<svg fill="none" height="357" viewBox="0 0 389 357" width="389" xmlns="http://www.w3.org/2000/svg" xmlns:xlink="http://www.w3.org/1999/xlink"><linearGradient id="a"><stop offset="0" stop-color="#34154b"/><stop offset=".4906" stop-color="#4e2852"/><stop offset="1" stop-color="#6d3f5a"/></linearGradient><linearGradient id="b" gradientUnits="userSpaceOnUse" x1="295.524" x2="295.524" xlink:href="#a" y1="306.071" y2="211.029"/><linearGradient id="c"><stop offset="0" stop-color="#98a9c5"/><stop offset=".188" stop-color="#9ca6be"/><stop offset=".4648" stop-color="#a99daa"/><stop offset=".795" stop-color="#bd8f8a"/><stop offset="1" stop-color="#cc8572"/></linearGradient><linearGradient id="d" gradientUnits="userSpaceOnUse" x1="240.434" x2="240.434" xlink:href="#c" y1="265.417" y2="97.1523"/><linearGradient id="e" gradientUnits="userSpaceOnUse" x1="115.245" x2="115.245" xlink:href="#c" y1="265.417" y2="97.1523"/><linearGradient id="f" gradientUnits="userSpaceOnUse" x1="178.225" x2="178.225" xlink:href="#a" y1="217.18" y2="122.138"/><linearGradient id="g" gradientUnits="userSpaceOnUse" x1="43.2772" x2="115.625" xlink:href="#a" y1="241.644" y2="241.644"/><linearGradient id="h" gradientUnits="userSpaceOnUse" x1="178.226" x2="178.226" y1="295.624" y2="172.156"><stop offset="0" stop-color="#98a9c5"/><stop offset="1" stop-color="#d48066"/></linearGradient><linearGradient id="i" gradientUnits="userSpaceOnUse" x1="255.975" x2="255.975" xlink:href="#a" y1="195.854" y2="211.895"/><linearGradient id="j"><stop offset="0" stop-color="#602d58"/><stop offset=".1717" stop-color="#653059"/><stop offset=".3618" stop-color="#723a5a"/><stop offset=".5608" stop-color="#884a5d"/><stop offset=".7659" stop-color="#a76061"/><stop offset=".9738" stop-color="#ce7c65"/><stop offset="1" stop-color="#d48066"/></linearGradient><linearGradient id="k" gradientUnits="userSpaceOnUse" x1="255.948" x2="255.948" xlink:href="#j" y1="366.822" y2="204.474"/><linearGradient id="l" gradientUnits="userSpaceOnUse" x1="45.8513" x2="45.8513" xlink:href="#a" y1="175.53" y2="191.571"/><linearGradient id="m" gradientUnits="userSpaceOnUse" x1="45.8251" x2="45.8251" xlink:href="#j" y1="366.824" y2="184.151"/><linearGradient id="n" gradientUnits="userSpaceOnUse" x1="121.22" x2="121.22" y1="233.184" y2="262.88"><stop offset="0" stop-color="#3e1c4e"/><stop offset="1" stop-color="#6d3f5a"/></linearGradient><linearGradient id="o" gradientUnits="userSpaceOnUse" x1="178.226" x2="178.226" y1="366.824" y2="251.83"><stop offset="0" stop-color="#917d90"/><stop offset=".684" stop-color="#be8f88"/><stop offset="1" stop-color="#d48066"/></linearGradient><linearGradient id="p" gradientUnits="userSpaceOnUse" x1="313.894" x2="313.894" y1="366.824" y2="159.35"><stop offset="0" stop-color="#4a2651"/><stop offset=".1673" stop-color="#593155"/><stop offset=".4911" stop-color="#824f5f"/><stop offset=".9355" stop-color="#c27e6f"/><stop offset="1" stop-color="#cc8572"/></linearGradient><mask id="q" height="357" maskUnits="userSpaceOnUse" width="362" x="0" y="0"><path d="m361.574 0h-361.19607v356.649h361.19607z" fill="#fff"/></mask><mask id="r" height="357" maskUnits="userSpaceOnUse" width="362" x="0" y="0"><path d="m361.574 0h-361.19607v356.649h361.19607z" fill="#fff"/></mask><mask id="s" height="357" maskUnits="userSpaceOnUse" width="362" x="0" y="0"><path d="m361.574 0h-361.19607v356.649h361.19607z" fill="#fff"/></mask><mask id="t" height="357" maskUnits="userSpaceOnUse" width="362" x="0" y="0"><path d="m361.574 0h-361.19607v356.649h361.19607z" fill="#fff"/></mask><mask id="u" height="357" maskUnits="userSpaceOnUse" width="362" x="0" y="0"><path d="m361.574 0h-361.19607v356.649h361.19607z" fill="#fff"/></mask><mask id="v" height="357" maskUnits="userSpaceOnUse" width="362" x="0" y="0"><path d="m361.574 0h-361.19607v356.649h361.19607z" fill="#fff"/></mask><mask id="w" height="357" maskUnits="userSpaceOnUse" width="362" x="0" y="0"><path d="m361.574 0h-361.19607v356.649h361.19607z" fill="#fff"/></mask><mask id="x" height="357" maskUnits="userSpaceOnUse" width="362" x="0" y="0"><path d="m361.574 0h-361.19607v356.649h361.19607z" fill="#fff"/></mask><mask id="y" height="357" maskUnits="userSpaceOnUse" width="362" x="0" y="0"><path d="m361.574 0h-361.19607v356.649h361.19607z" fill="#fff"/></mask><mask id="z" height="357" maskUnits="userSpaceOnUse" width="362" x="0" y="0"><path d="m361.574 0h-361.19607v356.649h361.19607z" fill="#fff"/></mask><mask id="A" height="357" maskUnits="userSpaceOnUse" width="362" x="0" y="0"><path d="m361.574 0h-361.19607v356.649h361.19607z" fill="#fff"/></mask><g opacity=".8"><path d="m221.698 14.2965c-.272-.6796-1.799-4.29785-5.858-5.96473-4.829-1.98316-9.132.48136-9.615.76912-.186-.42568-3.616-7.91935-11.376-8.978886-6.48-.884496-13.135 3.105676-15.835 9.844156 4.13 5.23604 13.338 15.16434 27.395 17.51884 7.904 1.3234 20.902.8507 23.18-4.7308.637-1.5581.594-3.8741-.557-5.6252-2.151-3.2748-7.052-2.8604-7.334-2.8325z" fill="#fff"/><path d="m219.146 16.586c-.291-.6199-2.237-4.5862-6.873-5.9209-3.79-1.09074-6.919.2831-7.717.6623-.197-1.1364-.702-3.08641-2.177-4.91905-3.2-3.97559-8.288-4.07173-9.526-4.0956-5.355-.10145-9.051 2.98235-10.342 4.05912-1.405 1.17292-2.377 2.36043-2.993 3.21443-.802-.54767-2.212-1.33073-4.061-1.44809-3.532-.2241-7.511 2.05149-8.365 5.48069-.36 1.4468-.075 2.737.165 3.4916-.589-.5948-2.06-1.9122-4.204-2.1456-3.767-.4098-7.794 2.7257-8.041 6.22-.104 1.4785.452 3.1759 1.59 4.3197 1.142 1.1477 2.542 1.4514 2.976 1.5475 5.426 1.2041 66.397 6.0323 67.395-4.331.111-1.155-.436-3.3928-2.027-4.7898-1.91-1.6755-4.597-1.5038-5.8-1.3453z" fill="#f2f7f8"/><path d="m219.205 24.364c-2.305-1.4613-3.133-3.6865-3.365-4.3986-.795 1.0901-2.095 2.4871-3.9 2.743-3.01.4277-4.144-2.7867-7.542-3.6089-4.875-1.1782-7.436 4.2521-13.864 4.8594-2.419.2281-5.939-.1737-10.453-3.2316-.262.169-.55.2897-.873.3282-1.046.1253-1.427-.7115-2.436-1.0775-3.577-1.2989-9.148 5.4416-13.889 6.6371-1.249.3156-2.177.3368-2.904.2353-2.014-.2804-3.307-1.4414-3.378-1.3459-.096.1293 2.128 2.5029 5.347 4.4854 1.008.6206 11.287 6.7385 22.502 2.8372 2.188-.7612 3.858-1.706 4.908-2.3704.926.919 1.835 1.4667 2.468 1.7862.716.3614 2.269 1.1219 4.249.9767.651-.0477 1.532-.1227 2.375-.6935.577-.3906.462-.5563.898-.7281.597-.2353.977.0106 2.855.0405.115.002.172.004.229.0026.473-.0119 1.217-.1399 3.194-.7903.657-.2162 1.303-.4674 1.954-.7015 0 0 1.434-.5165 2.798-.9753 2.845-.9581 6.523.7797 10.268.2062 4.841-.7413 8.111-5.0855 8.008-5.248-.077-.1227-.669.3322-1.848.734 0 0-.776.2493-1.534.3892-3.367.6206-6.067-1.0914-6.067-1.0914z" fill="#ceeaf0"/><path d="m201.364 20.4661c-1.039-1.0795-.001-2.3678-1.058-3.6812-.797-.9893-2.417-1.3725-3.629-1.2764-.724.057-1.277.2639-1.721.4297-.491.1836-.816.3043-1.052.1041-.203-.1731-.179-.4549-.143-.8812.028-.3262.063-.7327.009-1.2386-.114-1.0834-.773-2.2934-1.017-2.6356-1.603-2.25165-4.592-2.37565-4.718-2.37896-3.162-.08354-5.242 2.40616-5.47 2.68666-.958 1.1835-.721 1.7564-1.631 2.3027-1.398.8394-2.523-.173-4.278.8023-.392.2181-1.221.7784-1.499 1.6271-.207.6325-.072 1.1696.035 1.6012.1.3992.179.7148-.02.9734-.242.3149-.694.2718-1.318.2122-.36-.0345-.768-.0736-1.227-.0538-1.125.0478-3.848.5583-4.7 2.684-.421 1.0483-.335 2.322.242 3.3292.73 1.275 2.099 1.7358 3.056 2.0017 5.174 1.4361 11.257.4767 11.59.4217 8.75-1.4481 8.689-2.8465 12.012-2.318 3.181.5059 4.56 2.3253 7.797 1.6861.729-.1439 2.115-.4376 2.662-1.5449.57-1.151.044-2.7987-.941-3.6494-1.095-.9481-2.1-.2884-2.981-1.204z" fill="#ceeaf0"/><path d="m201.363 20.466c.087-.3149.547-2.1111-.523-3.8655-1.236-2.0289-3.471-2.2808-3.749-2.3074-1.706-.1631-2.96.618-3.329.868.047-.5272.136-2.2643-1.008-3.8748-1.593-2.24112-4.248-2.36643-4.719-2.37903-2.798-.07293-4.679 1.86973-5.469 2.68663-.825.8514-1.332 1.7067-1.632 2.3027-.22-.0915-2.098-.8341-3.842.2043-1.548.9216-2.345 2.8623-1.919 4.8004-.647-.1751-2.062-.4628-3.696.0364-.792.2414-2.788.8514-3.549 2.806-.52 1.3354-.417 3.1276.684 4.3462 1.617 1.7909 4.298 1.1431 4.785 1.0251 3.409-.8241 4.652-4.5259 4.753-4.8415.589.3726 3.325 2.0136 6.942 1.3214 3.493-.6677 5.406-3.0506 5.846-3.6288.571 2.129 2.31 3.6998 4.374 3.9696 2.538.3316 4.292-1.4706 4.472-1.6622.064.1591.824 1.9679 2.597 2.2736.185.0318 1.804.2871 2.506-.7592.61-.9104.185-2.2981-.683-3.0169-.763-.6305-1.869-.7485-2.841-.305z" fill="#fff"/></g><g opacity=".8"><path d="m67.6983 102.296c-.2719-.679-1.7995-4.2974-5.8586-5.9642-4.8283-1.9832-9.1321.4813-9.6148.7691-.1863-.4257-3.6162-7.9194-11.3758-8.9789-6.4799-.8845-13.1355 3.1057-15.8347 9.8442 4.1301 5.2358 13.3377 15.1648 27.3948 17.5188 7.9035 1.323 20.9017.851 23.1799-4.731.6365-1.558.5934-3.874-.5569-5.625-2.1516-3.275-7.0521-2.86-7.3339-2.833z" fill="#fff"/><path d="m65.1464 104.586c-.2911-.62-2.2378-4.5862-6.8738-5.9209-3.7893-1.0907-6.9188.2831-7.7164.6623-.1976-1.1364-.7022-3.0864-2.1775-4.9191-3.1998-3.9755-8.288-4.0717-9.5259-4.0956-5.3547-.1014-9.0504 2.9824-10.3414 4.0592-1.4056 1.1729-2.377 2.3604-2.9936 3.2144-.8016-.5477-2.2119-1.3307-4.0611-1.4481-3.5321-.2241-7.511 2.0515-8.365 5.4808-.36 1.447-.0742 2.737.1651 3.491-.5887-.594-2.06-1.912-4.20363-2.145-3.7674-.41-7.79403 2.726-8.04068 6.22-.104759 1.478.45154 3.176 1.58998 4.32 1.14175 1.147 2.54143 1.451 2.97506 1.547 5.42627 1.204 66.39747 6.032 67.39537-4.331.1114-1.155-.4363-3.393-2.0269-4.79-1.9102-1.675-4.5969-1.503-5.7996-1.345z" fill="#f2f7f8"/><path d="m65.2047 112.364c-2.3047-1.461-3.1329-3.686-3.3649-4.399-.7943 1.09-2.0945 2.487-3.8993 2.743-3.0109.428-4.1447-2.786-7.5428-3.609-4.8747-1.178-7.4353 4.253-13.8642 4.86-2.4181.228-5.9381-.174-10.4521-3.232-.2619.169-.5503.29-.8732.328-1.0463.126-1.4276-.711-2.4361-1.077-3.5771-1.299-9.1486 5.442-13.88865 6.637-1.24983.316-2.17743.337-2.90478.235-2.01366-.28-3.30658-1.441-3.37753-1.346-.09614.13 2.12836 2.503 5.34675 4.486 1.00783.621 11.28691 6.738 22.50231 2.837 2.1873-.761 3.8575-1.706 4.9078-2.37.9256.919 1.8353 1.466 2.4685 1.786.7154.361 2.2682 1.122 4.2481.977.6511-.048 1.5323-.123 2.3756-.694.5769-.39.4615-.556.8978-.728.5974-.235.9767.011 2.8551.04.1153.002.1723.004.2287.003.4727-.012 1.2173-.14 3.1939-.79.6577-.216 1.3035-.468 1.9546-.702 0 0 1.4341-.516 2.7974-.975 2.8451-.958 6.5236.78 10.2685.206 4.8408-.741 8.1109-5.085 8.0082-5.248-.0776-.122-.6697.332-1.8486.734 0 0-.7757.249-1.5336.389-3.3676.621-6.0675-1.091-6.0675-1.091z" fill="#ceeaf0"/><path d="m47.3637 108.466c-1.039-1.079-.0006-2.368-1.0582-3.681-.7963-.989-2.4161-1.373-3.6288-1.276-.7241.057-1.277.263-1.7206.429-.4913.184-.8162.304-1.0516.104-.2036-.173-.1797-.455-.1432-.881.0278-.326.0623-.733.0086-1.238-.114-1.084-.7731-2.2939-1.0164-2.6361-1.6033-2.2516-4.5929-2.3756-4.7189-2.379-3.1614-.0835-5.242 2.4062-5.4694 2.6867-.9581 1.1834-.7207 1.7564-1.6311 2.3024-1.3983.84-2.5235-.173-4.2786.803-.3918.218-1.2206.778-1.4985 1.627-.2068.632-.0722 1.169.0352 1.601.0994.399.179.715-.0206.973-.242.315-.6935.272-1.3174.212-.3601-.034-.7678-.073-1.2273-.053-1.1252.047-3.8483.558-4.7003 2.684-.4204 1.048-.3342 2.322.2427 3.329.73 1.275 2.0985 1.736 3.0553 2.002 5.1743 1.436 11.2577.476 11.5906.421 8.7501-1.448 8.6891-2.846 12.0116-2.318 3.1813.506 4.5604 2.326 7.7973 1.686.7294-.143 2.1145-.437 2.6622-1.544.5695-1.152.0437-2.799-.9416-3.65-1.0947-.948-2.0998-.288-2.981-1.204z" fill="#ceeaf0"/><path d="m47.3634 108.466c.0862-.315.5463-2.111-.5231-3.865-1.2366-2.029-3.471-2.281-3.7495-2.308-1.7054-.163-2.9598.618-3.3291.868.047-.527.1365-2.264-1.0079-3.8747-1.5932-2.2411-4.2481-2.3664-4.7188-2.379-2.798-.073-4.6791 1.8697-5.4694 2.6866-.8242.8511-1.3314 1.7071-1.6311 2.3031-.2201-.092-2.0985-.834-3.8423.204-1.5482.921-2.3452 2.862-1.9195 4.8-.6465-.175-2.0614-.463-3.6958.037-.7917.241-2.7881.851-3.5493 2.806-.5198 1.335-.4164 3.127.6843 4.346 1.6171 1.791 4.2985 1.143 4.7851 1.025 3.4087-.824 4.6519-4.526 4.7527-4.842.5895.373 3.3252 2.014 6.9427 1.322 3.4922-.668 5.4058-3.051 5.8454-3.629.5708 2.129 2.31 3.7 4.374 3.97 2.5382.331 4.2919-1.471 4.4723-1.663.0636.16.8241 1.968 2.5971 2.274.185.032 1.8041.287 2.5056-.759.6107-.91.1857-2.298-.6829-3.017-.7625-.631-1.8685-.749-2.8405-.305z" fill="#fff"/></g><g opacity=".8"><path d="m263.377 100.087c3.298-1.6461 6.704-3.258 10.218-4.823 18.31-8.153 35.972-13.4461 52.162-16.8621.76-1.867 2.486-6.836.935-12.747-.475-1.81-1.46-5.562-4.767-8.356-4.814-4.067-12.153-4.091-17.517-1.384-7.304 3.686-9.021 11.449-9.244 12.543-.815-.85-2.482-2.348-4.998-3.033-4.5-1.225-9.405.783-12.121 4.262-1.857 2.378-2.296 4.936-2.42 6.272-1.082-.63-2.893-1.5-5.266-1.792-.672-.082-6.557-.711-10.902 3.362-4.878 4.574-5.112 12.545-1.784 17.689 1.787 2.76 4.266 4.191 5.704 4.8691z" fill="#fff"/><path d="m278.612 81.626c-.935-.79-2.528-1.934-4.751-2.609-.583-.177-8.204-2.351-13.139 2.936-3.422 3.665-3.78 9.02-2.183 12.848 2.878 6.896 11.825 8.16 13.493 8.395 8.802 1.243 11.136-4.01 22.105-3.826 4.258.071 5.219.885 8.154 1.627 1.957.495 3.378.68 5.647.883 9.436.843 19.069 1.704 24.171-3.938 3.417-3.779 3.214-8.719 3.188-9.172-.058-1.026-.296-5.438-3.935-8.263-2.217-1.721-4.577-2.032-5.604-2.105.33-1.355.712-3.767-.024-6.543-.248-.934-2.174-7.757-8.156-8.819-3.551-.631-7.282.99-9.77 4.038-1.015-.255-3.093-.621-5.471.13-4.393 1.389-6.148 5.434-6.416 6.078-.888-.58-3.021-1.797-5.89-1.732-3.591.082-5.969 2.124-7.067 3.05-3.087 2.606-4.06 5.849-4.352 7.022z" fill="#e9f4f6"/><path d="m282.406 93.13c-1.37-1.055-3.536-2.364-5.862-1.954-3.092.545-3.888 3.671-7.3 5.601-1.749.989-4.642 1.923-9.381.997 4.639 4.98 8.838 6.501 11.861 6.949 6.192.919 7.994-2.533 19.18-3.354 5.01-.368 9.899-.015 11.844.154 4.225.367 4.78.758 9.127 1.109 6.153.497 9.23.746 12.735-.384 2.221-.716 7.921-2.554 9.118-7.425.655-2.665-.093-6.013-2.345-7.946-3.183-2.731-9.039-2.353-13.156 1.824-4.603-4.425-10.939-5.388-15.241-2.736-3.315 2.044-4.394 5.603-4.698 6.791-.873-.455-2.13-.917-3.378-.538-2.614.794-2.609 4.498-4.689 5.341-1.311.531-3.586-.022-7.815-4.429z" fill="#ceeaf0"/><path d="m324.194 80.357c1.943-.513 2.647-5.418 1.888-8.95-.183-.852-.462-2.087-1.414-3.313-2.201-2.837-5.935-2.968-6.562-2.99-3.856-.135-7.624 2.35-9.872 6.271-.527-.229-2.05-.809-3.928-.376-.568.131-2.235.515-3.354 2.076-1.416 1.976-.821 4.26-.729 4.589-.562-.311-2.783-1.453-5.434-.731-.284.077-3.956 1.138-4.64 4.304-.042.195-.516 2.569 1.008 4.127 1.204 1.231 3.163 1.451 3.341 1.114.105-.198-.481-.45-.783-1.229-.5-1.292.305-2.691.44-2.925.765-1.329 2.065-1.858 2.533-2.041 3.381-1.32 6.124 1.076 7.385-.247.693-.727.002-1.594.891-3.117.648-1.11 1.605-1.659 2.202-2.002 2.011-1.155 5.542-1.914 9.013-.676 5.183 1.849 6.012 6.645 8.015 6.116z" fill="#fff"/></g><g opacity=".8"><path d="m230.777 171.642c-2.753 3.613-8.224 4.911-13.365 2.905-.594 1.106-1.55 2.677-2.997 4.326-8.322 9.481-23.667 10.98-35.045 7.556-2.87-.864-7.097-2.525-11.669-5.941-1.638.843-3.774 1.745-6.36 2.375-3.992.972-7.451.903-9.819.657-5.454 2.119-10.321 3.195-14.193 3.764-4.174.614-22.72 2.923-37.8061-7.28-5.1176-3.462-6.5463-6.137-7.0406-8.395-1.0404-4.749 1.4892-10.222 3.8889-11.78.8254-.536 2.7023-1.694 4.7238-3.904.318-.348.62-.768.939-1.345 2.957-5.334-2.6871-9.545-1.28-16.145 1.658-7.776 12.547-15.653 20.756-14.169 4.126.747 5.365 3.463 9.22 2.916 4.893-.695 5.297-5.411 9.808-6.163 5.341-.89 12.042 4.508 13.011 9.829.513 2.812-.516 5.938-.102 6.027.313.067.505-1.743 1.897-3.053 1.814-1.708 5.106-2.027 7.7-.863 2.521 1.131 4.564 3.745 4.484 6.33-.094 3.023-3.064 5.11-2.807 5.369.267.268 2.848-2.533 6.46-4.376 5.14-2.624 10.68-1.066 11.46-.834 6.295 1.866 10.005 7.481 10.419 8.127 1.344 2.092 1.482 3.259 2.864 3.788 2.325.89 3.963-1.644 9.097-2.832 2.159-.499 4.595-1.063 7.249-.037 3.781 1.462 5.393 5.031 5.527 5.34 1.216 2.805.198 4.333 1.427 5.2 1.643 1.157 3.762-1.409 7.828-.71.796.137 2.651.41 3.99 1.713 2.646 2.577 2.325 8.205-.265 11.605z" fill="#e9f4f6"/><path d="m210.968 163.378c-2.613-1.397-7.125-3.809-12.516-4.596-9.018-1.317-11.389 3.244-18.783 1.555-6.337-1.448-6.726-5.285-12.739-7.654-4.441-1.749-11.447-2.499-22.375 2.626-1.337-1.382-3.896-3.625-7.718-4.759-6.564-1.947-14.974-.065-18.351 5.055-3.493 5.295.557 10.782-3.646 14.755-2.634 2.49-6.579 2.559-7.332 2.572-5.511.097-8.6403-3.727-10.1626-2.572-1.2813.972-.6267 4.869 1.0502 7.824 6.2234 10.96 27.5874 10.8 38.9334 9.101 6.244-.934 11.163-2.59 14.193-3.764 2.368.246 5.827.315 9.819-.656 2.586-.63 4.722-1.532 6.36-2.376 4.572 3.416 8.799 5.077 11.669 5.941 11.379 3.425 26.723 1.925 35.045-7.556 1.447-1.648 2.403-3.221 2.997-4.326 1.646.623 4.153 1.251 7.057.751 1.378-.237 5.595-.964 6.308-3.656.376-1.424-.253-3.3-1.452-3.855-1.361-.63-2.634.82-4.502 1.415-4.027 1.28-7.544-2.451-13.855-5.825z" fill="#ceeaf0"/><path d="m233.206 160.574c-.358-.491-1.833-2.402-4.519-3.236-2.4-.746-4.437-.218-5.866.153-1.57.407-2.777 1.02-3.557 1.483.184-1.349.53-5.288-1.954-8.552-4.271-5.611-12.763-3.778-13.595-3.585-3.97.92-6.576 3.239-7.767 4.459-.312-1.198-2.404-8.718-9.802-12.364-1.777-.876-6.534-2.846-12.167-1.4-2.509.645-4.377 1.758-5.527 2.57.091-3.946-2.259-7.42-5.669-8.573-3.992-1.349-7.453 1.153-7.768 1.389.024-.417.386-9.439-7.003-14.362-6.241-4.159-12.982-2.043-13.629-1.828-4.755 1.582-7.307 5.014-8.118 6.212-.948-.372-11.058-4.144-20.234 1.973-7.172 4.781-10.5374 13.447-9.3678 20.999.528 3.405 1.8892 5.996 2.8829 7.564-1.1911.537-2.9589 1.5-4.6961 3.177-.8774.847-2.9089 2.845-3.9934 6.117-.4364 1.317-1.8113 5.431.239 9.63 2.023 4.144 6.2645 6.089 6.5106 5.819.1104-.121-.5728-.717-1.3287-1.864-.4137-.627-2.3374-3.676-2.1341-7.666.2481-4.856 3.4855-7.964 4.3811-8.763 2.6345-2.349 5.5115-3.004 6.7845-3.215-.372-1.864-1.264-7.599 1.815-13.66.4-.786 4.355-8.272 12.961-10.597 3.731-1.008 6.985-.681 8.657-.4 5.391.907 7.294 3.822 13.757 5.48 2.621.673 4.839.856 6.227.912.82 1.497 2.177 3.616 4.32 5.741 1.382 1.371 2.375 2.368 3.894 2.921 3.92 1.425 7.442-.661 7.951-.974 1.528-1.028 5.938-3.703 12.089-3.496 2.78.093 7.91.841 12.414 4.795 3.899 3.423 5.335 7.499 5.841 9.249.715-.748 4.983-5.072 11.217-4.707 1.255.074 4.581.319 7.442 2.918 3.731 3.391 3.745 8.127 3.734 8.928.612-.768 2.116-2.427 4.582-3.092 3.01-.811 7.182-.01 9.192 3.21 1.423 2.281 1.184 5.884-.668 7.647-.154.147-.323.281-.508.406.196-.073.393-.176.59-.291.857-.496 3.325-1.927 4.012-4.796.741-3.096-1.121-5.645-1.622-6.331z" fill="#fff"/><path d="m130.769 176.821c5.111-.171 9.861-3.672 12.252-8.954 4.278 3.358 7.31 3.608 9.258 3.253 4.893-.892 5.268-6.02 11.655-8.152 4.824-1.61 9.615-.606 9.615-.606 3.592.752 5.776 2.45 8.209 1.415 1.55-.659 2.421-2.095 2.899-3.126-1.003-.129-1.735-.412-2.189-.624-2.085-.975-3.578-2.813-4.538-4.349-1.853-1.751-5.226-4.428-10.147-5.876-8.106-2.385-14.939.174-17.073 1.083-2.486 1.06-4.363 2.337-5.604 3.302.022-.838-.002-2.014-.22-3.395-.135-.85-.812-5.126-3.403-8.183-3.481-4.109-10.002-5.524-15.34-3.84-6.013 1.897-8.657 7.079-9.525 8.782-3.419 6.7-2.713 15.028 1.404 21.09 1.518 2.236 5.717 8.416 12.747 8.18z" fill="#e9f4f6"/><path d="m122.938 174.198c.022-.023.044-.045.067-.067-3.856-3.519-6.762-9.14-5.624-12.649.164-.505.688-2.122 2.098-2.795 1.473-.701 2.479.311 4.104.316 4.091.014 4.901-6.379 9.942-7.417 2.664-.549 4.921.725 5.486 1.043 3.473 1.96 4.327 5.698 4.472 6.382 1.389-1.303 3.76-3.204 7.153-4.535 5.582-2.187 10.646-1.513 13.164-1 4.619.943 8.435 3.325 10.065 4.45 3.614 2.495 5.704 5.142 8.263 4.555 1.182-.271 2.008-1.129 2.53-1.83-1.003-.13-1.735-.412-2.189-.624-2.085-.976-3.578-2.813-4.537-4.349-3.239-5.05-10.644-6.884-11.462-7.087-5.668-1.403-10.616.358-13.534 1.397-3.491 1.242-6.114 2.919-7.829 4.198.023-.837-.002-2.013-.22-3.394-.135-.851-.815-5.123-3.403-8.183-3.357-3.97-9.808-5.586-15.34-3.841-6.013 1.897-8.656 7.079-9.525 8.782-5.195 10.184 1.132 20.65 1.404 21.091.811 1.316 2.375 3.462 4.915 5.557z" fill="#fff"/><path d="m189.051 173.678c-.025-.357-.065-1.545.742-2.584.996-1.283 2.539-1.382 3.085-1.417 1.755-.112 3.019.783 3.391 1.067-.016-.465-.034-2.481 1.478-4.197 1.367-1.551 3.106-1.859 3.74-1.961.434-.07 3.697-.547 5.47 1.582 1.01 1.214 1.152 2.812 1.183 3.162.056.619.007 1.14-.049 1.504.123-.19 1.149-1.706 3.048-1.852 1.825-.141 3.018 1.094 3.305 1.391 1.707 1.767 1.266 4.228 1.214 4.493 1.272-.387 2.644.007 3.467.99.931 1.112.988 2.773.106 4.011-.251.22-.633.538-1.122.885-.267.189-3.068 2.133-6.599 2.577-5.228.658-6.735-2.644-12.165-1.595-1.422.274-1.033.445-2.693.797-1.05.223-7.314 1.552-11.53-1.965-.888-.74-2.581-2.185-2.409-4.17.123-1.426 1.196-2.955 2.861-3.416 1.817-.501 3.292.56 3.477.698z" fill="#fff"/><path d="m199.486 176.634c-2.836.682-4.698 2.385-5.576 3.322-.135-.248-1.476-2.609-3.989-2.801-1.618-.123-3.716.653-3.964 1.955-.254 1.331 1.528 2.657 1.906 2.939 2.717 2.022 5.142.887 11.817 1.217 3.979.197 4.949.691 8.194.351 4.69-.491 5.813-1.853 6.22-2.636.074-.141.518-1.028.32-2.109-.374-2.038-2.68-2.851-2.929-2.935-.309-.104-2.547-.855-3.959.505-.687.661-.862 1.517-.915 1.927-.424-.469-1.143-1.14-2.203-1.599-1.96-.849-3.783-.41-4.922-.136z" fill="#e9f4f6"/></g><g opacity=".8"><path d="m385.534 221.665c-2.259 2.965-6.749 4.031-10.969 2.384-.487.907-1.272 2.197-2.459 3.55-6.83 7.781-19.423 9.012-28.761 6.201-2.356-.709-5.825-2.072-9.577-4.876-1.344.692-3.097 1.433-5.22 1.95-3.275.798-6.114.741-8.057.539-4.477 1.739-8.471 2.622-11.648 3.089-3.426.504-18.647 2.399-31.028-5.975-4.2-2.84-5.372-5.036-5.778-6.889-.854-3.898 1.222-8.389 3.192-9.668.677-.44 2.217-1.39 3.876-3.204.262-.286.509-.63.771-1.104 2.427-4.377-2.205-7.833-1.05-13.25 1.361-6.381 10.297-12.846 17.034-11.628 3.386.613 4.403 2.842 7.566 2.393 4.016-.57 4.347-4.441 8.05-5.058 4.383-.73 9.882 3.7 10.678 8.067.421 2.307-.424 4.873-.084 4.946.257.055.415-1.431 1.557-2.506 1.489-1.401 4.191-1.663 6.319-.708 2.069.929 3.746 3.074 3.68 5.195-.077 2.481-2.515 4.194-2.303 4.406.219.221 2.337-2.079 5.301-3.591 4.218-2.153 8.765-.874 9.406-.685 5.166 1.532 8.211 6.14 8.551 6.67 1.102 1.717 1.216 2.675 2.35 3.109 1.908.73 3.252-1.349 7.465-2.324 1.772-.41 3.772-.873 5.949-.031 3.104 1.2 4.427 4.129 4.537 4.383.998 2.302.162 3.556 1.171 4.267 1.348.95 3.087-1.156 6.424-.582.653.113 2.176.336 3.274 1.406 2.172 2.115 1.908 6.733-.217 9.524z" fill="#e9f4f6"/><path d="m369.277 214.883c-2.145-1.147-5.848-3.126-10.272-3.772-7.401-1.081-9.347 2.662-15.415 1.276-5.201-1.188-5.519-4.338-10.454-6.281-3.645-1.436-9.395-2.052-18.364 2.155-1.097-1.135-3.197-2.976-6.334-3.906-5.387-1.598-12.289-.054-15.06 4.148-2.866 4.346.457 8.849-2.992 12.11-2.162 2.043-5.4 2.1-6.018 2.111-4.522.079-7.091-3.059-8.34-2.111-1.052.797-.514 3.996.862 6.42 5.107 8.996 22.641 8.864 31.953 7.47 5.123-.767 9.161-2.126 11.648-3.089 1.942.202 4.781.259 8.057-.539 2.123-.517 3.876-1.257 5.22-1.949 3.752 2.803 7.221 4.166 9.577 4.875 9.338 2.811 21.931 1.58 28.761-6.201 1.187-1.353 1.972-2.643 2.459-3.55 1.352.511 3.409 1.026 5.792.616 1.131-.195 4.592-.791 5.177-3 .309-1.169-.208-2.709-1.192-3.164-1.117-.517-2.161.673-3.695 1.161-3.305 1.051-6.19-2.011-11.37-4.78z" fill="#ceeaf0"/><path d="m387.528 212.581c-.294-.403-1.505-1.971-3.709-2.656-1.97-.611-3.642-.178-4.814.126-1.289.334-2.279.838-2.919 1.218.15-1.107.434-4.341-1.604-7.019-3.505-4.605-10.475-3.101-11.157-2.942-3.258.755-5.397 2.658-6.374 3.659-.257-.983-1.973-7.155-8.045-10.147-1.459-.719-5.363-2.336-9.985-1.149-2.06.529-3.593 1.443-4.536 2.109.074-3.238-1.854-6.089-4.653-7.035-3.276-1.108-6.116.946-6.375 1.14.02-.343.317-7.747-5.747-11.787-5.122-3.413-10.654-1.677-11.185-1.501-3.903 1.299-5.997 4.115-6.663 5.099-.778-.306-9.075-3.401-16.606 1.619-5.886 3.924-8.647 11.036-7.688 17.233.434 2.795 1.551 4.921 2.366 6.208-.977.441-2.428 1.232-3.854 2.608-.72.695-2.387 2.334-3.277 5.02-.358 1.08-1.487 4.457.196 7.903 1.66 3.401 5.141 4.997 5.343 4.776.091-.1-.47-.589-1.09-1.531-.34-.514-1.918-3.016-1.752-6.291.204-3.985 2.861-6.536 3.596-7.191 2.162-1.928 4.523-2.466 5.568-2.639-.305-1.53-1.037-6.236 1.49-11.211.328-.645 3.574-6.788 10.637-8.697 3.062-.827 5.732-.558 7.104-.327 4.424.744 5.986 3.136 11.29 4.497 2.151.552 3.972.703 5.11.748.674 1.229 1.787 2.968 3.546 4.712 1.135 1.125 1.949 1.943 3.196 2.397 3.217 1.17 6.107-.542 6.526-.799 1.253-.844 4.873-3.039 9.921-2.87 2.281.077 6.491.691 10.187 3.935 3.2 2.81 4.379 6.155 4.794 7.591.587-.613 4.09-4.162 9.206-3.862 1.03.06 3.759.261 6.107 2.394 3.062 2.783 3.074 6.67 3.065 7.327.503-.63 1.737-1.992 3.76-2.537 2.471-.666 5.894-.009 7.544 2.634 1.168 1.872.972 4.829-.548 6.276-.127.12-.265.23-.417.333.161-.06.322-.144.484-.238.703-.408 2.729-1.582 3.293-3.937.608-2.541-.92-4.632-1.331-5.196z" fill="#fff"/><path d="m303.459 225.916c4.195-.141 8.092-3.014 10.055-7.349 3.511 2.756 5.999 2.961 7.598 2.669 4.016-.731 4.323-4.94 9.565-6.69 3.959-1.321 7.891-.497 7.891-.497 2.948.617 4.741 2.011 6.737 1.161 1.272-.54 1.987-1.719 2.379-2.565-.823-.106-1.424-.338-1.796-.513-1.711-.8-2.937-2.308-3.724-3.568-1.522-1.438-4.29-3.634-8.328-4.823-6.653-1.958-12.261.143-14.012.889-2.04.869-3.58 1.918-4.599 2.709.018-.687-.002-1.652-.181-2.786-.11-.697-.666-4.206-2.792-6.715-2.858-3.372-8.209-4.534-12.59-3.152-4.934 1.557-7.104 5.81-7.817 7.207-2.805 5.499-2.227 12.334 1.153 17.309 1.245 1.835 4.691 6.907 10.461 6.714z" fill="#e9f4f6"/><path d="m297.032 223.762c.018-.018.036-.036.054-.054-3.164-2.889-5.549-7.502-4.615-10.381.135-.415.565-1.742 1.722-2.294 1.209-.575 2.034.255 3.368.259 3.358.011 4.022-5.235 8.159-6.087 2.187-.45 4.039.595 4.503.856 2.85 1.608 3.551 4.676 3.67 5.238 1.14-1.07 3.086-2.63 5.871-3.722 4.581-1.795 8.737-1.242 10.803-.821 3.79.774 6.923 2.729 8.26 3.652 2.966 2.048 4.682 4.22 6.782 3.738.969-.222 1.648-.926 2.076-1.502-.823-.106-1.424-.338-1.796-.512-1.711-.8-2.937-2.308-3.724-3.569-2.658-4.144-8.736-5.649-9.407-5.816-4.652-1.151-8.712.294-11.107 1.146-2.865 1.02-5.018 2.397-6.425 3.446.018-.687-.002-1.652-.181-2.786-.11-.698-.669-4.204-2.792-6.716-2.755-3.258-8.05-4.583-12.59-3.151-4.934 1.557-7.104 5.809-7.817 7.207-4.264 8.358.929 16.947 1.152 17.309.666 1.08 1.949 2.841 4.034 4.56z" fill="#fff"/><path d="m351.291 223.336c-.021-.294-.054-1.268.608-2.121.818-1.053 2.084-1.134 2.532-1.163 1.44-.092 2.478.643 2.783.876-.013-.382-.028-2.036 1.213-3.445 1.122-1.273 2.549-1.525 3.07-1.609.356-.058 3.033-.449 4.489 1.299.828.995.945 2.307.971 2.594.045.509.005.936-.041 1.235.101-.156.944-1.401 2.502-1.52 1.497-.116 2.476.898 2.712 1.141 1.401 1.45 1.039 3.471.996 3.687 1.045-.317 2.17.007 2.846.813.763.913.81 2.276.087 3.292-.206.181-.52.441-.921.726-.219.156-2.518 1.751-5.416 2.115-4.29.54-5.527-2.169-9.984-1.309-1.167.225-.847.365-2.209.654-.862.183-6.003 1.274-9.464-1.612-.728-.608-2.117-1.793-1.976-3.422.101-1.171.981-2.425 2.347-2.804 1.492-.411 2.702.459 2.855.573z" fill="#fff"/><path d="m359.853 225.762c-2.327.559-3.855 1.957-4.575 2.726-.112-.204-1.212-2.141-3.274-2.298-1.328-.102-3.05.535-3.254 1.604-.208 1.092 1.254 2.18 1.565 2.412 2.23 1.659 4.22.728 9.698.998 3.265.162 4.062.568 6.725.288 3.849-.403 4.77-1.52 5.104-2.163.061-.116.425-.843.263-1.731-.307-1.672-2.199-2.34-2.404-2.408-.254-.086-2.09-.702-3.249.414-.564.543-.707 1.245-.751 1.582-.348-.385-.938-.936-1.808-1.313-1.609-.696-3.105-.336-4.04-.111z" fill="#e9f4f6"/></g><g opacity=".8"><path d="m115.534 221.665c-2.259 2.965-6.749 4.031-10.969 2.384-.487.907-1.272 2.197-2.459 3.55-6.83 7.781-19.4229 9.012-28.7614 6.201-2.3553-.709-5.8245-2.072-9.5762-4.876-1.3442.692-3.0972 1.433-5.2201 1.95-3.2757.798-6.1144.741-8.0577.539-4.4766 1.739-8.4708 2.622-11.6479 3.089-3.4261.504-18.6466 2.399-31.02744-5.975-4.19995-2.84-5.37253-5.036-5.77813-6.889-.85385-3.898 1.22214-8.389 3.19154-9.668.67742-.44 2.21776-1.39 3.87642-3.204.2617-.286.50901-.63.77124-1.104 2.42667-4.377-2.20551-7.833-1.05053-13.25 1.3607-6.381 10.2968-12.846 17.0338-11.628 3.3866.613 4.403 2.842 7.5668 2.393 4.0156-.57 4.3471-4.441 8.0492-5.058 4.3833-.73 9.8827 3.7 10.6785 8.067.4205 2.307-.4238 4.873-.0843 4.946.2575.055.4147-1.431 1.5569-2.506 1.4892-1.401 4.1909-1.663 6.3197-.708 2.069.929 3.7458 3.074 3.6797 5.195-.0773 2.481-2.5146 4.194-2.3036 4.406.2191.221 2.3377-2.079 5.3017-3.591 4.218-2.153 8.765-.874 9.4056-.685 5.1657 1.532 8.2107 6.14 8.5508 6.67 1.1027 1.717 1.2162 2.675 2.3499 3.109 1.9081.73 3.2528-1.349 7.4656-2.324 1.7722-.41 3.7714-.873 5.9489-.031 3.104 1.2 4.427 4.129 4.537 4.383.998 2.302.162 3.556 1.171 4.267 1.348.95 3.087-1.156 6.424-.582.653.113 2.176.336 3.274 1.406 2.172 2.115 1.908 6.733-.217 9.524z" fill="#e9f4f6"/><path d="m99.2766 214.883c-2.1442-1.147-5.8474-3.126-10.2712-3.772-7.4011-1.081-9.3471 2.662-15.4151 1.276-5.201-1.188-5.5197-4.338-10.4546-6.281-3.6451-1.436-9.3945-2.052-18.3636 2.155-1.0969-1.135-3.1969-2.976-6.3341-3.906-5.3869-1.598-12.2885-.054-15.0601 4.148-2.8664 4.346.4568 8.849-2.9922 12.11-2.1618 2.043-5.3997 2.1-6.0174 2.111-4.52243.079-7.0909-3.059-8.34023-2.111-1.05158.797-.51433 3.996.86184 6.42 5.10709 8.996 22.64079 8.864 31.95269 7.47 5.1236-.767 9.161-2.126 11.6479-3.089 1.9428.202 4.782.259 8.0577-.539 2.1229-.517 3.8759-1.257 5.2201-1.949 3.7517 2.803 7.221 4.166 9.5762 4.875 9.3385 2.811 21.9315 1.58 28.7615-6.201 1.187-1.353 1.972-2.643 2.459-3.55 1.352.511 3.409 1.026 5.792.616 1.131-.195 4.592-.791 5.177-3 .309-1.169-.208-2.709-1.192-3.164-1.117-.517-2.161.673-3.695 1.161-3.305 1.051-6.19-2.011-11.3704-4.78z" fill="#ceeaf0"/><path d="m117.528 212.581c-.294-.403-1.505-1.971-3.709-2.656-1.97-.611-3.642-.178-4.814.126-1.289.334-2.279.838-2.919 1.218.15-1.107.434-4.341-1.604-7.019-3.505-4.605-10.4745-3.101-11.1573-2.942-3.2582.755-5.397 2.658-6.374 3.659-.2564-.983-1.9731-7.155-8.0444-10.147-1.4588-.719-5.363-2.336-9.9856-1.149-2.0594.529-3.5923 1.443-4.5357 2.109.0741-3.238-1.8543-6.089-4.653-7.035-3.2757-1.108-6.116.946-6.3751 1.14.0198-.343.3172-7.747-5.7472-11.787-5.1215-3.413-10.6539-1.677-11.1847-1.501-3.9026 1.299-5.9967 4.115-6.6629 5.099-.7777-.306-9.0747-3.401-16.6058 1.619-5.88583 3.924-8.64778 11.036-7.68787 17.233.43332 2.795 1.55047 4.921 2.36594 6.208-.9775.441-2.4283 1.232-3.85404 2.608-.72007.695-2.38726 2.334-3.277348 5.02-.358168 1.08-1.486505 4.457.19614 7.903 1.660258 3.401 5.141208 4.997 5.343208 4.776.09061-.1-.47009-.589-1.09049-1.531-.33951-.514-1.91823-3.016-1.7514-6.291.2036-3.985 2.86055-6.536 3.59554-7.191 2.1618-1.928 4.52292-2.466 5.56812-2.639-.3054-1.53-1.0372-6.236 1.4897-11.211.3278-.645 3.5737-6.788 10.6369-8.697 3.062-.827 5.7323-.558 7.1047-.327 4.4238.744 5.986 3.136 11.2898 4.497 2.1511.552 3.9718.703 5.1103.748.6737 1.229 1.7866 2.968 3.546 4.712 1.1342 1.125 1.9486 1.943 3.1958 2.397 3.2171 1.17 6.1069-.542 6.5253-.799 1.2536-.844 4.8731-3.039 9.9211-2.87 2.2812.077 6.4918.691 10.1875 3.935 3.2001 2.81 4.3785 6.155 4.7943 7.591.5862-.613 4.089-4.162 9.2057-3.862 1.0298.06 3.7592.261 6.1068 2.394 3.062 2.783 3.074 6.67 3.065 7.327.503-.63 1.737-1.992 3.76-2.537 2.471-.666 5.894-.009 7.544 2.634 1.168 1.872.972 4.829-.548 6.276-.127.12-.265.23-.417.333.161-.06.322-.144.484-.238.703-.408 2.729-1.582 3.293-3.937.608-2.541-.92-4.632-1.331-5.196z" fill="#fff"/><path d="m33.4591 225.916c4.1946-.141 8.0923-3.014 10.0548-7.349 3.5108 2.756 5.9993 2.961 7.5983 2.669 4.0155-.731 4.3231-4.94 9.565-6.69 3.9585-1.321 7.8909-.497 7.8909-.497 2.9474.617 4.7404 2.011 6.737 1.161 1.2717-.54 1.987-1.719 2.3792-2.565-.8234-.106-1.4241-.338-1.7967-.513-1.7109-.8-2.9362-2.308-3.724-3.568-1.5211-1.438-4.2894-3.634-8.3279-4.823-6.6528-1.958-12.2603.143-14.0112.889-2.0408.869-3.5806 1.918-4.5997 2.709.0187-.687-.0016-1.652-.1807-2.786-.1103-.697-.6657-4.206-2.7923-6.715-2.8574-3.372-8.2086-4.534-12.5897-3.152-4.9344 1.557-7.1042 5.81-7.8168 7.207-2.8057 5.499-2.2269 12.334 1.1523 17.309 1.2456 1.835 4.6913 6.907 10.4615 6.714z" fill="#e9f4f6"/><path d="m27.0321 223.762c.0182-.018.0363-.036.0544-.054-3.1644-2.889-5.5495-7.502-4.6151-10.381.1343-.415.5649-1.742 1.722-2.294 1.2083-.575 2.0339.255 3.3675.259 3.3578.011 4.0224-5.235 8.1595-6.087 2.1863-.45 4.039.595 4.5021.856 2.851 1.608 3.5519 4.676 3.6702 5.238 1.1406-1.07 3.086-2.63 5.8709-3.722 4.581-1.795 8.7373-1.242 10.8036-.821 3.7901.774 6.9225 2.729 8.2598 3.652 2.9661 2.048 4.6818 4.22 6.7817 3.738.9695-.222 1.648-.926 2.0766-1.502-.8235-.106-1.4242-.338-1.7968-.512-1.7108-.8-2.9362-2.308-3.7239-3.569-2.6581-4.144-8.7352-5.649-9.4062-5.816-4.652-1.151-8.7123.294-11.1075 1.146-2.8648 1.02-5.0176 2.397-6.4252 3.446.0187-.687-.0016-1.652-.1807-2.786-.1103-.698-.6689-4.204-2.7923-6.716-2.755-3.258-8.0492-4.583-12.5897-3.151-4.9344 1.557-7.1042 5.809-7.8168 7.207-4.264 8.358.929 16.947 1.1523 17.309.6651 1.08 1.9486 2.841 4.0336 4.56z" fill="#fff"/><path d="m81.2905 223.336c-.0208-.294-.0538-1.268.6087-2.121.8176-1.053 2.084-1.134 2.5317-1.163 1.4401-.092 2.4778.643 2.7827.876-.0128-.382-.0272-2.036 1.2136-3.445 1.122-1.273 2.5488-1.525 3.0695-1.609.356-.058 3.0338-.449 4.4889 1.299.8287.995.9455 2.307.9711 2.594.0453.509.0053.936-.0406 1.235.1013-.156.9434-1.401 2.5019-1.52 1.497-.116 2.476.898 2.712 1.141 1.401 1.45 1.039 3.471.996 3.687 1.045-.317 2.17.007 2.846.813.763.913.81 2.276.087 3.292-.206.181-.52.441-.921.726-.219.156-2.518 1.751-5.4157 2.115-4.2905.54-5.5276-2.169-9.9839-1.309-1.1673.225-.8475.365-2.2098.654-.8618.183-6.003 1.274-9.4632-1.612-.7286-.608-2.1176-1.793-1.9769-3.422.1013-1.171.9818-2.425 2.3479-2.804 1.4913-.411 2.7017.459 2.8541.573z" fill="#fff"/><path d="m89.8534 225.762c-2.327.559-3.8551 1.957-4.5757 2.726-.1114-.204-1.2115-2.141-3.2741-2.298-1.3277-.102-3.0492.535-3.2534 1.604-.2084 1.092 1.2541 2.18 1.5649 2.412 2.2295 1.659 4.2196.728 9.6977.998 3.2656.162 4.0619.568 6.7253.288 3.8489-.403 4.7699-1.52 5.1039-2.163.061-.116.425-.843.263-1.731-.307-1.672-2.1994-2.34-2.4035-2.408-.2543-.086-2.0904-.702-3.2497.414-.5639.543-.7072 1.245-.7509 1.582-.3476-.385-.9381-.936-1.8079-1.313-1.6086-.696-3.1047-.336-4.0396-.111z" fill="#e9f4f6"/></g><g mask="url(#q)"><path d="m328.082 215.706v-4.677h-4.776v4.677h-5.637v-4.677h-4.776v4.677h-5.923v-4.677h-4.776v4.677h-5.159v-4.677h-4.774v4.677h-5.159v-4.677h-4.776v4.677h-5.924v-4.677h-4.776v4.677h-5.637v-4.677h-4.776v4.677h-1.863v21.547c2.685-3.29 6.768-5.393 11.346-5.393 8.082 0 14.635 6.553 14.635 14.637v59.575h20.707v-59.576c0-8.084 6.553-14.637 14.637-14.637 4.402 0 8.339 1.952 11.022 5.028v-21.181z" fill="url(#b)"/></g><g mask="url(#r)"><path d="m267.286 97.1522h-53.704v168.2648h53.704z" fill="url(#d)"/><path d="m240.433 32.4343s-4.513 38.1791-36.787 66.5805h73.575c-32.273-28.4014-36.788-66.5805-36.788-66.5805z" fill="#2b0f49"/><path d="m267.286 99.0149h-53.704v3.2601h53.704z" fill="#602d58" opacity=".6"/><path d="m241.369 26.0709.682 10.3013s2.359-5.3121 8.257-3.6418c5.897 1.6704 13.501 5.0111 18.314-3.0363-2.018-.608-6.208 1.5177-13.192-4.4032-6.985-5.9218-14.061.78-14.061.78z" fill="#602d58"/><path d="m243.324 22.746c0-1.5868-1.288-2.8736-2.874-2.8736-1.588 0-2.873 1.2868-2.873 2.8736 0 1.0996.624 2.044 1.533 2.5271l-.432 12.6656c0 .7496 1.039.6603 1.786.6603.749 0 1.803.2108 1.803-.5388l-.447-12.804c.891-.4882 1.504-1.4233 1.504-2.5102z" fill="#2b0f49"/><path d="m242.516 42.4727-4.205.0009.391-4.8164h3.534z" fill="#cc8572"/><g fill="#602d58"><path d="m261.294 167.642h-11.175v4.423h11.175z" opacity=".3"/><path d="m222.133 143.314h-8.551v3.375h8.551z" opacity=".3"/><path d="m251.775 182.656h-9.545v4.424h9.545z" opacity=".3"/><path d="m265.037 112.197h-4.275v3.376h4.275z" opacity=".3"/><path d="m234.83 209.029h-4.275v3.375h4.275z" opacity=".3"/></g><path d="m240.433 115.574c-3.28 0-3.239 11.174-3.239 11.174h6.479s.04-11.174-3.24-11.174z" fill="#ffe5a4"/><path d="m240.433 152.898c-3.28 0-3.239 11.174-3.239 11.174h6.479s.04-11.174-3.24-11.174z" fill="#2b0f49"/></g><g mask="url(#s)"><path d="m142.097 97.1522h-53.7044v168.2648h53.7044z" fill="url(#e)"/><path d="m115.245 32.4343s-4.514 38.1791-36.7877 66.5805h73.5757c-32.274-28.4014-36.788-66.5805-36.788-66.5805z" fill="#2b0f49"/><path d="m142.097 99.0149h-53.7044v3.2601h53.7044z" fill="#602d58" opacity=".6"/><path d="m116.18 26.0709.682 10.3013s2.359-5.3121 8.257-3.6418c5.897 1.6704 13.501 5.0111 18.313-3.0363-2.017-.608-6.208 1.5177-13.192-4.4032-6.984-5.9218-14.06.78-14.06.78z" fill="#602d58"/><path d="m118.134 22.746c0-1.5868-1.287-2.8736-2.873-2.8736-1.588 0-2.874 1.2868-2.874 2.8736 0 1.0996.624 2.044 1.533 2.5271l-.431 12.6656c0 .7496 1.039.6603 1.786.6603.75 0 1.803.2108 1.803-.5388l-.448-12.804c.891-.4882 1.504-1.4233 1.504-2.5102z" fill="#2b0f49"/><path d="m117.327 42.4727-4.204.0009.391-4.8164h3.533z" fill="#cc8572"/><g fill="#602d58"><path d="m142.097 164.072h-9.275v4.423h9.275z" opacity=".3"/><path d="m96.9434 143.314h-8.5508v3.375h8.5508z" opacity=".3"/><path d="m130.066 175.59h-9.545v4.423h9.545z" opacity=".3"/><path d="m139.849 112.197h-4.275v3.376h4.275z" opacity=".3"/><path d="m109.641 209.029h-4.275v3.375h4.275z" opacity=".3"/><path d="m115.245 115.574c-3.279 0-3.239 11.174-3.239 11.174h6.479s.039-11.174-3.24-11.174z"/></g><path d="m115.245 152.898c-3.279 0-3.239 11.174-3.239 11.174h6.479s.039-11.174-3.24-11.174z" fill="#2b0f49"/></g><g mask="url(#t)"><path d="m210.783 126.815v-4.677h-4.776v4.677h-5.636v-4.677h-4.776v4.677h-5.924v-4.677h-4.776v4.677h-5.159v-4.677h-4.773v4.677h-5.161v-4.677h-4.776v4.677h-5.923v-4.677h-4.776v4.677h-5.637v-4.677h-4.776v4.677h-1.862v21.546c2.684-3.289 6.767-5.393 11.346-5.393 8.082 0 14.635 6.553 14.635 14.636v59.576h20.708v-59.576c0-8.083 6.554-14.636 14.637-14.636 4.402 0 8.339 1.952 11.022 5.028v-21.181z" fill="url(#f)"/></g><g mask="url(#u)"><path d="m112.009 198.8v-4.677h-4.776v4.677h-5.636v-4.677h-4.777v4.677h-5.9234v-4.677h-4.7767v4.677h-5.1595v-4.677h-4.7742v4.677h-5.1595v-4.677h-4.7759v4.677h-5.9234v-4.677h-4.7759v4.677h-5.6359v-4.677h-4.7759v4.677h-1.8626v21.547c2.6847-3.29 6.7675-5.394 11.3452-5.394 8.0829 0 14.6353 6.554 14.6353 14.637v59.575h20.7081v-59.575c0-8.084 6.5525-14.637 14.6373-14.637 4.401 0 8.339 1.953 11.021 5.028v-21.181z" fill="url(#g)"/></g><g mask="url(#v)"><path d="m238.292 172.155v6.053h-6.832v-6.053h-5.791v6.053h-7.182v-6.053h-5.79v6.053h-6.255v-6.053h-5.79v6.053h-7.21v-6.053h-5.79v6.053h-6.834v-6.053h-5.791v6.053h-7.182v-6.053h-5.79v6.053h-6.256v-6.053h-5.789v6.053h-6.255v-6.053h-5.792v6.053h-7.181v-6.053h-5.79v6.053h-6.834v-6.053h-5.79v123.469h131.716v-123.469z" fill="url(#h)"/><path d="m178.226 210.717c-8.405 0-15.217 6.812-15.217 15.217v69.69h30.433v-69.69c0-8.405-6.811-15.217-15.216-15.217z" fill="#2b0f49"/><path d="m178.226 209.023c-9.325 0-16.911 7.587-16.911 16.911v69.69h3.387v-2.776h-1.032v-66.662c0-8.038 6.516-14.556 14.555-14.556s14.554 6.517 14.554 14.556v66.662h-1.032v2.776h3.387v-69.69c.001-9.324-7.584-16.911-16.908-16.911z" fill="#602d58"/><path d="m219.614 194.386c-3.279 0-3.239 11.175-3.239 11.175h6.479s.04-11.175-3.24-11.175z" fill="#ffe5a4"/><path d="m136.837 226.047c-3.28 0-3.239 11.174-3.239 11.174h6.478s.04-11.174-3.239-11.174z" fill="#ffe5a4"/><g fill="#602d58"><path d="m157.983 185.813h-9.545v4.424h9.545z" opacity=".3"/><path d="m166.089 192.175h-9.545v4.423h9.545z" opacity=".3"/><path d="m240.433 237.221h-9.545v4.423h9.545z" opacity=".3"/><path d="m235.662 241.644h-9.545v4.423h9.545z" opacity=".3"/><path d="m119.882 241.644h-7.514v4.423h7.514z" opacity=".3"/></g></g><g mask="url(#w)"><path d="m270.634 195.854h-29.319v16.041h29.319z" fill="url(#i)"/><path d="m255.976 201.967c-1.091 0-1.975.885-1.975 1.975v9.041h3.948v-9.041c0-1.09-.884-1.975-1.973-1.975z" fill="#2b0f49"/><path d="m269.083 204.473v4.992h-5.636v-4.992h-4.345v4.992h-6.355v-4.992h-4.775v4.992h-5.16v-4.992h-4.774v162.349h35.821v-156.425-.932-4.992z" fill="url(#k)"/><g fill="#602d58"><path d="m244.707 246.505h-6.676v4.459h6.676z" opacity=".3"/><path d="m270.687 262.88h-6.157v3.402h6.157z" opacity=".3"/><path d="m273.859 221.705h-5.097v3.841h5.097z" opacity=".3"/><path d="m252.775 302.265v-2.833h-8.068v4.458h4.849v2.833h8.068v-4.458z" opacity=".3"/><path d="m255.974 147.721s-3.378 28.569-27.527 49.821h55.056c-24.151-21.252-27.529-49.821-27.529-49.821z"/></g><path d="m256.674 142.959.509 7.708s1.766-3.974 6.179-2.725c4.412 1.25 10.102 3.75 13.703-2.271-1.509-.455-4.644 1.136-9.871-3.295-5.226-4.432-10.52.583-10.52.583z" fill="#2b0f49"/><path d="m258.137 140.471c0-1.188-.964-2.151-2.151-2.151s-2.15.963-2.15 2.151c0 .823.467 1.53 1.146 1.891l-.322 9.477c0 .561.777.495 1.336.495.562 0 1.349.156 1.349-.404l-.335-9.581c.669-.365 1.127-1.064 1.127-1.878z" fill="#602d58"/><path d="m257.532 155.232-3.147.001.294-3.604h2.644z" fill="#602d58"/><path d="m255.948 236.057c-3.279 0-3.239 11.174-3.239 11.174h6.479s.039-11.174-3.24-11.174z" fill="#2b0f49"/></g><g mask="url(#x)"><path d="m60.5103 175.53h-29.3179v16.041h29.3179z" fill="url(#l)"/><path d="m45.8523 181.644c-1.0902 0-1.9739.884-1.9739 1.975v9.04h3.9479v-9.04c-.0009-1.091-.8845-1.975-1.974-1.975z" fill="#2b0f49"/><path d="m58.9599 184.151v4.991h-5.6359v-4.991h-4.345v4.991h-6.3551v-4.991h-4.7759v4.991h-5.1595v-4.991h-4.7742v182.673h35.8215v-176.752-.93-4.991z" fill="url(#m)"/><g fill="#602d58"><path d="m34.5839 226.182h-6.6764v4.458h6.6764z" opacity=".3"/><path d="m60.5634 242.557h-6.1562v3.402h6.1562z" opacity=".3"/><path d="m63.7366 201.821h-3.1721v3.401h3.1721z" opacity=".3"/><path d="m42.6506 281.941v-2.833h-8.0669v4.458h4.8484v2.834h8.0677v-4.459z" opacity=".3"/><path d="m45.8515 127.397s-3.3786 28.569-27.5278 49.821h55.0557c-24.1509-21.252-27.5279-49.821-27.5279-49.821z"/></g><path d="m46.5505 122.635.5102 7.708s1.7648-3.975 6.1789-2.725c4.4108 1.25 10.1023 3.75 13.7019-2.272-1.5084-.454-4.6443 1.136-9.8696-3.295-5.2261-4.43-10.5214.584-10.5214.584z" fill="#2b0f49"/><path d="m48.0134 120.148c0-1.189-.9637-2.15-2.1501-2.15-1.1881 0-2.1502.962-2.1502 2.15 0 .823.4663 1.53 1.1468 1.89l-.3213 9.478c0 .561.7766.495 1.3356.495.5616 0 1.3492.157 1.3492-.404l-.3348-9.581c.667-.365 1.1248-1.064 1.1248-1.878z" fill="#602d58"/><path d="m47.4097 134.908-3.1468.002.2926-3.605h2.6443z" fill="#602d58"/><path d="m45.8253 215.733c-3.2792 0-3.2396 11.175-3.2396 11.175h6.4783s.0405-11.175-3.2387-11.175z" fill="#2b0f49"/></g><g mask="url(#y)"><path d="m135.88 233.184h-29.319v29.696h29.319z" fill="url(#n)"/><g fill="#2b0f49"><path d="m121.221 243.856c-1.091 0-1.974.883-1.974 1.974v12.72h3.948v-12.72c-.001-1.091-.885-1.974-1.974-1.974z"/><path d="m121.22 185.051s-3.379 28.569-27.5281 49.821h55.0551c-24.15-21.252-27.527-49.821-27.527-49.821z"/><path d="m121.918 180.291.511 7.707s1.765-3.975 6.179-2.725c4.411 1.25 10.103 3.751 13.702-2.271-1.508-.455-4.644 1.136-9.87-3.294-5.226-4.433-10.522.583-10.522.583z"/></g><path d="m123.382 177.802c0-1.188-.963-2.151-2.151-2.151-1.187 0-2.149.963-2.149 2.151 0 .823.466 1.53 1.147 1.891l-.322 9.477c0 .561.776.494 1.336.494.561 0 1.349.159 1.349-.403l-.334-9.58c.666-.366 1.124-1.066 1.124-1.879z" fill="#602d58"/><path d="m122.777 192.562-3.146.001.292-3.604h2.645z" fill="#602d58"/><path d="m135.88 234.872h-29.319v2.349h29.319z" fill="#2b0f49" opacity=".5"/></g><g mask="url(#z)"><path d="m301.265 251.83v6.052h-6.833v-6.052h-5.791v6.052h-7.181v-6.052h-5.791v6.052h-6.255v-6.052h-5.79v6.052h-7.21v-6.052h-5.791v6.052h-6.833v-6.052h-5.791v6.052h-7.181v-6.052h-5.79v6.052h-6.256v-6.052h-5.79v6.052h-6.255v-6.052h-5.791v6.052h-7.181v-6.052h-5.79v6.052h-6.834v-6.052h-.019-5.773-.018v6.052h-6.834v-6.052h-5.79v6.052h-7.182v-6.052h-5.79v6.052h-6.256v-6.052h-5.789v6.052h-7.21v-6.052h-5.791v6.052h-6.834v-6.052h-5.791v6.052h-7.18v-6.052h-5.7906v6.052h-6.2566v-6.052h-5.7885v6.052h-6.2548v-6.052h-5.7919v6.052h-7.1815v-6.052h-5.7903v6.052h-6.8332v-6.052h-5.7911v114.994h257.6605v-114.994z" fill="url(#o)"/><g fill="#602d58"><path d="m162.756 273.915h-9.545v4.422h9.545z" opacity=".3"/><path d="m155.656 278.337h-9.545v4.424h9.545z" opacity=".3"/><path d="m213.273 304.643h-9.545v4.424h9.545z" opacity=".3"/><path d="m289.515 273.915h-7.101v4.422h7.101z" opacity=".3"/><path d="m94.0799 302.432h-9.545v4.423h9.545z" opacity=".3"/><path d="m56.2507 284.466h-6.8552v4.422h6.8552z" opacity=".3"/></g><path d="m263.325 290.037c-3.279 0-3.239 11.174-3.239 11.174h6.479s.039-11.174-3.24-11.174z" fill="#2b0f49"/><path d="m78.6889 279.734c-3.2792 0-3.2387 11.175-3.2387 11.175h6.4783s.0396-11.175-3.2396-11.175z" fill="#ffe5a4"/><path d="m157.983 306.855c-3.279 0-3.238 11.175-3.238 11.175h6.478s.04-11.175-3.24-11.175z" fill="#602d58"/></g><g mask="url(#A)"><path d="m335.743 159.351h-43.699v207.473h43.699z" fill="url(#p)"/><path d="m313.894 106.689s-3.674 31.066-29.935 54.177h59.869c-26.261-23.111-29.934-54.177-29.934-54.177z" fill="#2b0f49"/><path d="m335.743 160.867h-43.699v2.651h43.699z" fill="#602d58" opacity=".6"/><path d="m314.655 101.511.556 8.381s1.919-4.322 6.718-2.964c4.798 1.359 10.986 4.079 14.902-2.47-1.641-.494-5.052 1.236-10.734-3.582-5.683-4.8183-11.442.635-11.442.635z" fill="#602d58"/><path d="m316.247 98.8049c0-1.291-1.048-2.3374-2.338-2.3374-1.292 0-2.339 1.0464-2.339 2.3374 0 .8963.509 1.6641 1.248 2.0561l-.35 10.307c0 .61.845.537 1.454.537.61 0 1.465.172 1.465-.439l-.364-10.418c.725-.396 1.224-1.1578 1.224-2.0431z" fill="#2b0f49"/><path d="m315.588 114.857-3.42.001.318-3.92h2.875z" fill="#cc8572"/><g fill="#602d58"><path d="m335.743 213.805h-7.547v3.6h7.547z" opacity=".3"/><path d="m299.002 196.913h-6.958v2.747h6.958z" opacity=".3"/><path d="m325.955 223.175h-7.767v3.601h7.767z" opacity=".3"/><path d="m333.916 171.593h-3.479v2.748h3.479z" opacity=".3"/><path d="m309.335 250.386h-3.479v2.748h3.479z" opacity=".3"/><path d="m313.894 174.341c-2.668 0-2.636 9.092-2.636 9.092h5.271s.034-9.092-2.635-9.092z"/></g><path d="m313.894 204.712c-2.668 0-2.636 9.093-2.636 9.093h5.271s.034-9.093-2.635-9.093z" fill="#2b0f49"/><path d="m313.879 338.07c-4.042 0-7.318 3.277-7.318 7.318v21.436h14.633v-21.436c.001-4.041-3.275-7.318-7.315-7.318z" fill="#2b0f49"/><path d="m313.879 337.256c-4.485 0-8.133 3.647-8.133 8.132v21.436h14.634 1.028.6v-21.436c0-4.485-3.646-8.132-8.129-8.132zm6.502 28.232h-13.502v-19.98c0-3.864 3.133-6.999 6.999-6.999s6.999 3.135 6.999 6.999v19.98z" fill="#875362"/></g><path d="m30.6572 270.78c3.9676-1.553 7.6071-1.562 9.2709-1.551 3.5716.022 6.4798.737 8.4254 1.372.8155-1.676 2.2453-4.105 4.6719-6.412 1.3598-1.294 7.0512-6.532 15.6358-6.171 9.1389.384 14.5342 6.817 15.4431 7.941 4.4272 5.474 7.4387 14.856 3.7458 20.838-7.7762 12.599-43.6454 7.467-47.2014 6.957-1.6845-.241-6.0881-1.121-11.5141.13-4.4984 1.038-5.2176 2.482-8.8635 3.525-7.1362 2.04-17.50438.257-19.776082-5.458-1.25215-3.15-.025686-7.506 2.518572-9.821 1.90854-1.738 4.13316-2.119 5.91471-2.401 1.2714-.201 2.2389-.163 3.4989-.112 1.661.069 4.0525.306 6.9228 1.085 1.3121-2.213 4.8046-7.378 11.3072-9.922z" fill="#fff"/><path d="m85.1932 297.661c-1.4141.069-2.8482-.026-2.8482-.026-.8726-.069-1.7024-.183-2.5928-.307-2.5635-.496-5.1027-.989-7.642-1.482l-.0421-.003c-3.8756 1.125-6.9978 1.244-9.1325 1.144-3.9262-.184-4.8031-1.119-8.4019-.87-3.0679.211-2.6998.909-7.8946 1.72-3.8256.596-6.1152.543-7.4979.45-.67-.046-1.2714-.121-1.3442-.131-2.2774-.281-4.7054-1.037-4.7054-1.037-2.2788-.706-6.2343.352-14.0083.98-4.2274.342-6.35.295-8.2692-1.031-.4438-.306-1.68025-1.185-2.30026-2.811-1.07949-2.832.60217-5.498.85189-5.879 1.60037-2.449 4.32367-3.103 6.66177-3.628 5.087-1.141 9.5784.012 12.2946 1.022.3153-1.036 2.1582-6.737 7.8974-9.455 4.1831-1.981 8.1764-1.309 9.5642-1.056 2.6733.488 4.6896 1.532 5.914 2.292 2.9602-1.984 7.378-4.297 13.0708-5.232 3.3141-.543 7.8112-1.282 12.7413.814 1.3877.59 4.4085 1.919 6.7773 5.15 1.6402 2.239 2.2881 4.461 2.5678 5.801.6207-1.296 2.4465-4.648 6.4055-6.709.7656-.399 5.2591-2.629 10.6176-.987 3.875 1.187 6.056 3.742 6.531 4.319 1.501 1.827 2.185 3.667 2.508 4.791 2.46-1.525 5.413-1.622 7.667-.269 1.327.797 3.425 2.704 3.025 4.419-.721 3.081-9.255 4.409-14.555 4.049-1.177-.08-3.904-.362-7.657.039-.746.08-1.8044.215-3.0666.456-5.9639 1.139-9.4378 3.288-13.1372 3.467z" fill="#e9f4f6"/><path d="m79.76 298.545c-3.1978-.377-5.7884-1.197-7.6021-1.909l-.0421-.001c-6.5875 1.65-14.9516 3.025-24.6391 2.915-4.4764-.051-8.6017-.411-12.3175-.935-5.4317.165-9.3922.379-12.1776.558-3.3918.218-6.8543.498-9.8738-1.644-.5279-.374-.9239-.739-1.1801-.994 1.793-.005 4.5948-.193 7.7883-1.256 3.5403-1.178 4.7796-2.506 7.8397-3.513 2.0548-.677 5.2341-1.31 9.6476-.627 1.036.742 3.0394 1.937 5.7513 2.13 6.0446.431 10.0279-4.513 10.4261-5.025 1.2079.319 3.0365.621 5.097.16 2.54-.569 3.3505-1.832 6.4648-3.209 1.4006-.618 3.4197-1.511 6.0432-1.659 4.263-.241 7.6527 1.624 9.151 2.447 1.875 1.031 1.7095 1.323 3.912 2.597 2.6855 1.553 5.4959 2.604 7.0163 2.93 6.6339 1.428 13.696-5.528 14.611-6.451.524 2.554 1.63 3.38 2.222 3.687.376.196 1.025.433 5.212-.06 2.536-.299 2.898-.465 3.796-.277 1.537.322 3.621 1.398 3.576 2.468-.08 1.931-7.092 3.741-11.38 3.589-.491-.018-2.012-.097-4.116-.043-1.037.027-2.222.088-3.533.21 0 0-1.6194.149-3.072.373-3.3798.522-5.4574 2.076-8.4461 3.036-3.8792 1.247-7.2789.845-10.1749.503z" fill="#ceeaf0"/></svg>