<svg fill="none" height="59" viewBox="0 0 174 59" width="174" xmlns="http://www.w3.org/2000/svg"><path d="m42.9688 17.9119c5.561-2.176 10.662-2.189 12.994-2.174 5.006.031 9.082 1.033 11.809 1.923 1.143-2.349 3.147-5.753 6.548-8.98704 1.906-1.813 9.883-9.154017 21.915-8.649017 12.8092.538 20.3712 9.555007 21.6452 11.129957 6.205 7.673 10.426 20.822 5.25 29.207-10.899 17.658-61.1732 10.4651-66.1572 9.7511-2.361-.338-8.533-1.572-16.138.182-6.305 1.454-7.313 3.479-12.423 4.94-10.002 2.859-24.53399.3599-27.717988-7.6491-1.755002-4.415-.036001-10.5209 3.529998-13.7659 2.675-2.435 5.79299-2.969 8.28999-3.365 1.782-.282 3.138-.228 4.904-.156 2.328.096 5.68.4279 9.703 1.5199 1.839-3.102 6.734-10.3409 15.848-13.9069z" fill="#fff"/><path d="m119.406 55.5888c-1.982.096-3.992-.037-3.992-.037-1.223-.096-2.386-.257-3.634-.43-3.593-.695-7.152-1.386-10.711-2.077l-.059-.004c-5.4324 1.577-9.8085 1.743-12.8005 1.603-5.503-.258-6.732-1.568-11.776-1.22-4.3.296-3.784 1.275-11.065 2.411-5.362.836-8.571.762-10.509.631-.939-.064-1.782-.17-1.884-.183-3.192-.395-6.595-1.454-6.595-1.454-3.194-.989-8.7379.493-19.6339 1.374-5.925.479-8.9001.413-11.5901-1.445-.622-.43-2.355-1.661-3.224-3.941-1.513-3.969.844-7.705 1.194-8.24 2.243-3.432 6.06-4.349 9.337-5.084 7.13-1.599 13.425.016 17.232 1.432.442-1.452 3.025-9.442 11.069-13.252 5.863-2.777 11.46-1.835 13.405-1.48 3.747.684 6.573 2.147 8.289 3.213 4.149-2.782 10.341-6.023 18.32-7.333 4.645-.762 10.9485-1.797 17.8585 1.14 1.945.827 6.179 2.69 9.499 7.219 2.299 3.137 3.207 6.252 3.599 8.13.87-1.817 3.429-6.515 8.978-9.403 1.073-.559 7.371-3.685 14.881-1.384 5.431 1.664 8.489 5.245 9.154 6.054 2.104 2.561 3.063 5.14 3.516 6.715 3.448-2.138 7.586-2.273 10.745-.377 1.861 1.117 4.801 3.79 4.24 6.193-1.01 4.319-12.972 6.18-20.4 5.675-1.65-.112-5.472-.507-10.732.055-1.045.112-2.529.302-4.298.64-8.359 1.596-13.228 4.608-18.413 4.859z" fill="#e9f4f6"/><path d="m111.791 56.8278c-4.482-.529-8.113-1.6779-10.655-2.6759l-.059-.0021c-9.2332 2.313-20.9562 4.2401-34.5342 4.0861-6.274-.071-12.056-.5761-17.264-1.3101-7.613.231-13.164.5311-17.068.7821-4.754.305-9.607.698-13.839-2.304-.74-.525-1.295-1.036-1.654-1.393 2.513-.008 6.44-.2711 10.916-1.7611 4.962-1.651 6.699-3.5119 10.988-4.9239 2.88-.949 7.336-1.836 13.522-.879 1.452 1.04 4.26 2.715 8.061 2.986 8.472.604 14.055-6.326 14.613-7.043 1.693.447 4.256.87 7.144.224 3.56-.797 4.696-2.5681 9.061-4.4971 1.963-.867 4.793-2.1179 8.47-2.3259 5.9752-.337 10.7262 2.276 12.8262 3.43 2.628 1.445 2.396 1.854 5.483 3.64 3.764 2.177 7.703 3.649 9.834 4.107 9.298 2.001 19.196-7.7491 20.478-9.0421.735 3.58 2.285 4.737 3.115 5.168.527.274 1.437.606 7.305-.085 3.554-.419 4.062-.652 5.321-.388 2.154.451 5.074 1.9601 5.012 3.4591-.112 2.707-9.941 5.243-15.951 5.03-.688-.025-2.819-.1351-5.769-.0591-1.453.037-3.114.123-4.952.293 0 0-2.269.2101-4.305.5241-4.737.731-7.649 2.909-11.838 4.255-5.437 1.747-10.202 1.1839-14.261.7049z" fill="#ceeaf0"/></svg>