<svg fill="none" height="52" viewBox="0 0 114 52" width="114" xmlns="http://www.w3.org/2000/svg"><path d="m100.595 21.562c-.41-1.025-2.7142-6.482-8.8362-8.996-7.282-2.99099-13.773.726-14.501 1.16-.281-.642-5.454-11.94399-17.157-13.541993-9.773-1.333997-19.811 4.684003-23.882 14.846993 6.229 7.897 20.116 22.871 41.317 26.422 11.92 1.996 31.5242 1.283 34.9602-7.135.96-2.35.895-5.843-.84-8.484-3.245-4.939-10.636-4.314-11.061-4.272z" fill="#fff"/><path d="m96.7458 25.0151c-.439-.935-3.375-6.917-10.367-8.93-5.715-1.645-10.435.427-11.638.999-.298-1.714-1.059-4.655-3.284-7.41904-4.826-5.996-12.5-6.141-14.367-6.177-8.076-.153-13.65 4.498-15.597 6.122-2.12 1.76904-3.585 3.56004-4.515 4.84804-1.209-.826-3.336-2.007-6.125-2.184-5.327-.338-11.328 3.094-12.616 8.266-.543 2.182-.112 4.128.249 5.266-.888-.897-3.107-2.884-6.34-3.236-5.68198-.618-11.754961 4.111-12.1269612 9.381-.1579998 2.23.6810102 4.79 2.3980112 6.515 1.722 1.731 3.833 2.189 4.487 2.334 8.18395 1.816 100.14115 9.098 101.64615-6.532.168-1.742-.658-5.117-3.057-7.224-2.881-2.527-6.9332-2.268-8.7472-2.029z" fill="#f2f7f8"/><path d="m96.8339 36.746c-3.476-2.204-4.725-5.5601-5.075-6.6341-1.198 1.644-3.159 3.7511-5.881 4.1371-4.541.645-6.251-4.2031-11.376-5.4431-7.352-1.777-11.214 6.4131-20.91 7.3291-3.647.344-8.956-.262-15.764-4.874-.395.255-.83.4369-1.317.4949-1.578.189-2.153-1.073-3.674-1.625-5.395-1.959-13.798 8.2071-20.947 10.0101-1.885.476-3.28398.508-4.38098.355-3.037-.423-4.987-2.174-5.094-2.03-.145.195 3.21 3.775 8.06398 6.765 1.52.936 17.023 10.163 33.938 4.279 3.299-1.148 5.818-2.5731 7.402-3.5751 1.396 1.386 2.768 2.212 3.723 2.694 1.079.545 3.421 1.6921 6.407 1.4731.982-.072 2.311-.185 3.583-1.046.87-.589.696-.839 1.354-1.098.901-.355 1.473.0159 4.306.0609.174.003.26.0061.345.0041.713-.018 1.836-.211 4.817-1.192.992-.326 1.966-.705 2.948-1.058 0 0 2.163-.779 4.219-1.471 4.291-1.445 9.839 1.176 15.487.311 7.3011-1.118 12.2331-7.6701 12.0781-7.9151-.117-.185-1.01.5011-2.788 1.1071 0 0-1.17.3759-2.313.5869-5.079.936-9.1511-1.6459-9.1511-1.6459z" fill="#ceeaf0"/><path d="m69.9259 30.867c-1.567-1.628-.001-3.571-1.596-5.552-1.201-1.492-3.644-2.07-5.473-1.925-1.092.086-1.926.398-2.595.648-.741.277-1.231.459-1.586.157-.307-.261-.2709-.686-.2159-1.329.042-.492.094-1.105.013-1.868-.172-1.634-1.1661-3.459-1.5331-3.975-2.418-3.396-6.927-3.583-7.117-3.588-4.768-.126-7.906 3.629-8.249 4.052-1.445 1.785-1.087 2.649-2.46 3.473-2.109 1.266-3.806-.261-6.453 1.21-.591.329-1.841 1.174-2.26 2.454-.312.954-.109 1.764.053 2.415.15.602.27 1.078-.031 1.468-.365.475-1.046.41-1.987.32-.543-.052-1.1579-.111-1.8509-.081-1.697.072-5.8041.842-7.0891 4.048-.634 1.581-.504 3.502.366 5.021 1.101 1.923 3.165 2.618 4.608 3.019 7.804 2.166 16.979.719 17.481.636 13.197-2.184 13.105-4.293 18.116-3.496 4.798.763 6.878 3.507 11.76 2.543 1.1-.217 3.189-.66 4.015-2.33.859-1.736.066-4.221-1.42-5.504-1.651-1.43-3.167-.435-4.496-1.816z" fill="#ceeaf0"/><path d="m69.9259 30.867c.13-.475.824-3.184-.789-5.83-1.865-3.06-5.235-3.44-5.655-3.48-2.572-.246-4.464.932-5.021 1.309.071-.795.206-3.415-1.52-5.844-2.403-3.38-6.407-3.569-7.117-3.588-4.22-.11-7.057 2.82-8.249 4.052-1.243 1.284-2.008 2.574-2.46 3.473-.332-.138-3.165-1.258-5.795.308-2.335 1.39-3.537 4.317-2.895 7.24-.975-.264-3.109-.698-5.574.055-1.194.364-4.205 1.284-5.353 4.232-.784 2.014-.628 4.717 1.032 6.555 2.439 2.701 6.483 1.724 7.217 1.546 5.141-1.243 7.016-6.826 7.168-7.302.889.562 5.015 3.037 10.471 1.993 5.267-1.007 8.153-4.601 8.816-5.473.861 3.211 3.484 5.58 6.597 5.987 3.828.5 6.473-2.218 6.745-2.507.096.24 1.243 2.968 3.917 3.429.279.048 2.721.433 3.779-1.145.921-1.373.28-3.466-1.03-4.55-1.15-.951-2.818-1.129-4.284-.46z" fill="#fff"/></svg>