<svg fill="none" height="112" viewBox="0 0 224 112" width="224" xmlns="http://www.w3.org/2000/svg"><path d="m216.766 85.6764c-4.239 5.564-12.663 7.563-20.579 4.473-.915 1.703-2.387 4.123-4.615 6.661-12.814 14.5986-36.441 16.9076-53.962 11.6346-4.419-1.33-10.928-3.888-17.967-9.1476-2.522 1.2976-5.811 2.6876-9.794 3.6576-6.146 1.496-11.4722 1.39-15.1182 1.011-8.399 3.263-15.893 4.919-21.854 5.796-6.428.945-34.985 4.501-58.214-11.2096-7.87999-5.33-10.07999-9.449-10.84099-12.926-1.602-7.313 2.293-15.74 5.988-18.139 1.27099-.825 4.16099-2.608 7.27299-6.011.491-.537.955-1.183 1.447-2.071 4.553-8.214-4.138-14.698-1.971-24.86 2.553-11.973 19.319-24.102 31.959-21.817 6.354 1.149 8.261 5.331 14.197 4.489 7.534-1.069 8.156-8.33103 15.102-9.48903 8.224-1.371 18.542 6.94103 20.035 15.13503.789 4.329-.795 9.143-.158 9.28.483.103.778-2.685 2.9212-4.702 2.794-2.629 7.863-3.12 11.857-1.328 3.882 1.742 7.028 5.767 6.904 9.747-.145 4.654-4.718 7.868-4.322 8.266.411.414 4.386-3.9 9.947-6.738 7.914-4.039 16.445-1.64 17.647-1.284 9.692 2.873 15.405 11.52 16.043 12.514 2.069 3.222 2.282 5.019 4.409 5.833 3.58 1.37 6.103-2.531 14.007-4.36 3.325-.769 7.076-1.638 11.162-.058 5.823 2.251 8.305 7.747 8.511 8.223 1.873 4.319.305 6.671 2.198 8.006 2.529 1.782 5.792-2.169 12.053-1.092 1.225.211 4.082.631 6.143 2.637 4.075 3.968 3.58 12.634-.408 17.869z" fill="#e9f4f6"/><path d="m186.264 72.9524c-4.023-2.151-10.971-5.865-19.271-7.077-13.886-2.028-17.537 4.995-28.922 2.394-9.758-2.229-10.356-8.138-19.615-11.785-6.839-2.694-17.626-3.849-34.454 4.043-2.058-2.128-5.998-5.582-11.884-7.328-10.107-2.998-23.056-.1-28.256 7.783-5.378 8.154.857 16.603-5.614 22.72-4.056 3.834-10.131 3.941-11.29 3.961-8.485.149-13.304-5.739-15.648-3.961-1.97304 1.497-.965 7.498 1.617 12.047 9.582 16.8766 42.479 16.6296 59.95 14.0146 9.613-1.439 17.188-3.989 21.854-5.796 3.645.378 8.972.485 15.118-1.011 3.983-.97 7.272-2.359 9.794-3.6576 7.039 5.2596 13.548 7.8176 17.967 9.1476 17.521 5.273 41.148 2.964 53.962-11.6346 2.228-2.538 3.7-4.959 4.615-6.661 2.535.96 6.395 1.926 10.867 1.156 2.121-.365 8.615-1.484 9.712-5.629.58-2.193-.389-5.082-2.236-5.936-2.095-.97-4.055 1.263-6.932 2.179-6.201 1.971-11.615-3.774-21.334-8.969z" fill="#ceeaf0"/><path d="m220.507 68.6344c-.552-.756-2.823-3.699-6.958-4.983-3.696-1.148-6.833-.335-9.033.236-2.417.627-4.275 1.571-5.476 2.284.282-2.077.815-8.143-3.01-13.169-6.576-8.64-19.652-5.817-20.933-5.52-6.113 1.417-10.126 4.988-11.959 6.866-.481-1.845-3.702-13.424-15.093-19.038-2.737-1.349-10.062-4.382-18.735-2.155-3.864.992-6.74 2.706-8.51 3.956.139-6.075-3.479-11.425-8.73-13.2-6.146-2.077-11.475 1.775-11.961 2.139.037-.643.595-14.534-10.7831-22.115-9.609-6.403-19.989-3.145969-20.985-2.81497-7.322 2.436-11.251 7.72098-12.501 9.56597-1.459-.573-17.026-6.381-31.156 3.038-11.043 7.362-16.22496 20.706-14.424 32.333.813 5.244 2.909 9.233 4.439 11.648-1.834.827-4.556 2.31-7.23096 4.892-1.351 1.304-4.479 4.38-6.149 9.419-.671996 2.027-2.789 8.362.368 14.828 3.115 6.38 9.64596 9.376 10.02496 8.96.17-.187-.882-1.105-2.04596-2.871-.637-.965-3.599-5.66-3.286-11.804.382-7.477 5.36696-12.263 6.74596-13.492 4.056-3.617 8.486-4.626 10.447-4.951-.573-2.871-1.946-11.701 2.795-21.034.615-1.21 6.705-12.737 19.957-16.317 5.745-1.552 10.755-1.048 13.33-.615 8.3 1.396 11.231 5.884 21.182 8.438 4.036 1.036 7.452 1.318 9.588 1.403 1.264 2.306 3.352 5.569 6.653 8.841 2.128 2.11 3.6561 3.646 5.9961 4.497 6.036 2.195 11.458-1.017 12.243-1.499 2.352-1.583 9.143-5.702 18.614-5.384 4.28.143 12.18 1.295 19.114 7.383 6.004 5.271 8.215 11.547 8.995 14.242 1.1-1.151 7.672-7.81 17.272-7.247 1.932.113 7.053.49 11.458 4.493 5.745 5.221 5.767 12.514 5.75 13.747.943-1.182 3.259-3.738 7.055-4.761 4.635-1.249 11.059-.016 14.154 4.943 2.192 3.512 1.824 9.059-1.029 11.774-.237.226-.497.433-.781.625.301-.112.604-.27.908-.447 1.319-.765 5.12-2.968 6.177-7.386 1.142-4.767-1.725-8.691-2.497-9.748z" fill="#fff"/><path d="m62.7757 93.6523c7.87-.264 15.183-5.655 18.865-13.788 6.587 5.171 11.256 5.556 14.256 5.009 7.5343-1.373 8.1113-9.27 17.9463-12.553 7.427-2.479 14.805-.933 14.805-.933 5.53 1.159 8.894 3.773 12.64 2.18 2.386-1.015 3.728-3.226 4.464-4.814-1.545-.199-2.672-.634-3.371-.961-3.21-1.502-5.509-4.331-6.987-6.696-2.854-2.697-8.048-6.818-15.625-9.048-12.482-3.673-23.0033.268-26.2883 1.668-3.829 1.631-6.718 3.598-8.63 5.083.035-1.289-.003-3.1-.339-5.227-.207-1.309-1.249-7.893-5.239-12.6-5.361-6.327-15.401-8.506-23.621-5.913-9.258 2.921-13.329 10.9-14.666 13.522-5.264 10.317-4.178 23.14 2.162 32.475 2.337 3.442 8.802 12.959 19.628 12.596z" fill="#e9f4f6"/><path d="m50.7178 89.6124c.034-.035.068-.069.102-.103-5.937-5.419-10.412-14.074-8.659-19.477.252-.777 1.06-3.268 3.231-4.303 2.267-1.08 3.816.478 6.318.486 6.3.021 7.547-9.822 15.309-11.421 4.102-.845 7.578 1.116 8.447 1.606 5.349 3.018 6.664 8.774 6.886 9.827 2.14-2.006 5.79-4.934 11.015-6.982 8.5952-3.369 16.3932-2.331 20.2702-1.54 7.111 1.451 12.988 5.119 15.497 6.851 5.565 3.842 8.784 7.918 12.724 7.014 1.819-.417 3.092-1.738 3.896-2.818-1.545-.199-2.672-.634-3.371-.961-3.21-1.502-5.509-4.331-6.987-6.696-4.987-7.776-16.389-10.6-17.648-10.912-8.728-2.161-16.346.551-20.8402 2.15-5.375 1.913-9.414 4.496-12.055 6.465.035-1.289-.003-3.1-.339-5.227-.207-1.309-1.255-7.888-5.239-12.6-5.169-6.113-15.102-8.6-23.621-5.913-9.258 2.921-13.329 10.9-14.666 13.522-8 15.681 1.743 31.796 2.162 32.475 1.248 2.027 3.656 5.331 7.568 8.557z" fill="#fff"/><path d="m152.518 88.8114c-.039-.55-.101-2.379 1.142-3.979 1.534-1.975 3.91-2.127 4.75-2.181 2.702-.173 4.649 1.205 5.221 1.643-.024-.717-.051-3.8209 2.277-6.4629 2.105-2.389 4.782-2.8621 5.759-3.0201.668-.108 5.692-.842 8.422 2.437 1.555 1.868 1.774 4.329 1.822 4.868.085.954.01 1.756-.076 2.316.19-.292 1.77-2.627 4.694-2.852 2.809-.217 4.646 1.685 5.088 2.142 2.629 2.721 1.949 6.511 1.869 6.918 1.96-.595 4.072.012 5.339 1.525 1.433 1.712 1.521 4.269.164 6.176-.387.339-.975.828-1.728 1.362-.411.292-4.725 3.2846-10.161 3.9686-8.05 1.013-10.371-4.0706-18.732-2.457-2.19.423-1.59.686-4.146 1.228-1.617.343-11.263 2.389-17.755-3.0246-1.367-1.14-3.973-3.365-3.709-6.421.19-2.196 1.842-4.55 4.405-5.26 2.798-.772 5.069.861 5.355 1.074z" fill="#fff"/><path d="m168.585 93.3634c-4.366 1.05-7.233 3.672-8.585 5.115-.209-.382-2.273-4.017-6.143-4.312-2.491-.19-5.721 1.005-6.104 3.01-.391 2.049 2.353 4.0906 2.936 4.5246 4.183 3.113 7.917 1.366 18.195 1.874 6.127.303 7.621 1.064 12.618.54 7.221-.756 8.95-2.852 9.577-4.059.113-.2166.797-1.5816.492-3.2466-.575-3.138-4.126-4.39-4.509-4.519-.477-.16-3.922-1.316-6.097.778-1.058 1.018-1.327 2.335-1.409 2.967-.652-.722-1.76-1.755-3.392-2.463-3.018-1.306-5.825-.631-7.579-.209z" fill="#e9f4f6"/></svg>