<svg fill="none" height="78" viewBox="0 0 242 78" width="242" xmlns="http://www.w3.org/2000/svg"><path d="m52.3122 50.5485c-4.0453 4.5627-19.3012-10.2834-37.5643-7.7825-2.1638.2968-12.48747 1.7101-14.433947 8.1331-1.086354 3.5872.786207 8.0939 3.598407 10.4816 1.93976 1.6463 4.90091 1.6654 10.50854 2.1178 2.2981.1848 4.4899.2151 5.7621 1.7975.8209 1.0203.3618 1.7875 1.0864 2.9175 1.5041 2.3441 4.9345 3.3341 8.3391 3.7026 6.423.6955 16.9875 1.8378 25.7769-2.9432 1.3741-.7471 4.0374-2.3643 7.2617-1.8659 1.9398.3002 1.9241 1.0326 4.8718 2.0148 3.398 1.1323 6.3781 1.1233 8.4501 1.1379 7.1072.0526 8.8397-2.1962 13.6656-2.231 5.5785-.0403 8.3257 3.4159 13.5664 5.2862 18.472 6.5909 45.108 5.1854 53.135-3.2367 1.078-1.1311 1.289-2.0181 2.639-3.0462 4.312-3.2837 8.876-2.511 20.908-2.9791 8.031-.3125 10.016-.8881 11.809-2.3295 3.535-2.8413 4.15-7.301 4.236-8.0009.988-8.0099-6.339-14.5337-9.178-17.0603-5.437-4.8404-11.495-7.3984-21.964-10.0235-9.163-2.2982-33.298-8.1029-56.287-2.9959-6.247 1.3876-11.1311 2.5266-16.2011 6.3109-5.2313 3.9053-5.5886 6.8384-10.1154 8.4097-6.4028 2.222-8.4893-2.7898-15.8563-.9049-5.406 1.3832-10.914 5.7588-13.2502 11.1883-.6216 1.4437-.3729 1.4616-.7638 1.9017z" fill="#e9f4f6"/><path d="m236.55 57.36c-13.293 10.2711-64.088 3.9288-63.808 1.0203.161-1.6754 16.994.7929 20.127-6.5394 1.027-2.4045.496-5.6647-.66-7.9696-1.548-3.0877-4.206-4.444-6.164-5.4429-.943-.4816-5.012-2.455-10.825-2.1179-6.202.3595-8.173 2.9556-10.736 1.5332-2.497-1.3853-1.07-4.3611-3.811-7.9964-4.327-5.7409-12.844-5.6647-13.447-5.6513-4.651.1064-8.471 2.1548-10.265 3.1157-.983.5264-2.459 1.7158-5.231 3.3733-2.166 1.2958-3.249 1.9431-3.852 2.1078-3.435.9351-6.086-1.9499-10.288-3.9804 0 0-5.771-2.7898-12.87-2.3608-9.1294.551-15.419 6.5349-17.2367 8.2641-3.8818 3.6936-5.9918 7.6045-7.0837 10.0359-.9218-1.2353-2.8402-3.4416-6.0052-4.7822-5.4889-2.3261-10.6284-.3057-11.9589.2005-6.6558 2.5277-9.0828 8.4433-9.8074 7.983-.7918-.5029 1.4302-7.9024 7.245-13.6724 6.1564-6.1093 13.4058-7.4813 15.1574-7.7713 6.6402-1.0987 11.9589.495 14.4026 1.401.6305-1.7325 5.3265-14.0688 16.9809-17.6437 5.203-1.59592 9.925-.87356 10.614-.76044 5.837.95534 9.75 3.92764 11.412 5.35894.349-.3236 3.209-2.8872 7.274-2.2444 3.641.5757 5.534 3.2927 5.843 3.7541 1.237-2.3116 3.4-5.6972 6.991-8.87671 2.448-2.16823 8.148-7.070259 16.834-7.6436741 9.443-.6226939 16.243 4.2793341 18.366 5.9727041 9.799 7.81728 10.471 19.48938 10.547 21.34068.943-1.0987 3.199-3.4237 6.904-4.6198 2.02-.6529 6.073-1.4761 10.356.3976 5.31 2.3228 7.39 7.5227 7.562 7.9718 1.562 4.0822.012 6.2001 1.714 7.5149 2.274 1.7561 5.461-1.7774 11.225-.5253 1.015.2207 3.402.7683 5.59 2.6946.39.3439 4.528 4.1024 3.878 9.1859-.494 3.9064-3.698 6.3871-4.974 7.3726z" fill="#fff"/><path d="m189.501 50.9057c-7.7-2.6173-6.956-4.6131-13.053-6.3848-15.57-4.5246-26.07 9.7044-40.324 4.9255-4.511-1.513-7.589-4.323-9.26-6.0947-1.297 1.653-10.813 13.3901-25.983 13.2367-7.145-.0717-12.6025-2.7517-15.483-4.4754-4.6769 6.7646-12.9131 9.7582-20.1312 7.5362-8.6449-2.661-11.4134-11.4437-11.6284-12.1683-.2027.383-.3942.7717-.5645 1.1659-.6216 1.4436-.3718 1.4604-.7627 1.9005-4.0452 4.5627-19.3012-10.2834-37.5643-7.7825-2.1637.2968-12.48857 1.7102-14.433924 8.1331-1.086354 3.5872.786204 8.0939 3.598404 10.4816 1.93976 1.6464 4.90091 1.6654 10.50852 2.1179 2.2981.1847 4.4899.215 5.7621 1.7975.821 1.0202.3618 1.7874 1.0864 2.9175 1.5041 2.344 4.9345 3.3341 8.3392 3.7025 6.4229.6955 16.9874 1.8379 25.7768-2.9432 1.3742-.747 4.0374-2.3642 7.2618-1.8659 1.9397.3002 1.924 1.0326 4.8717 2.0148 3.398 1.1323 6.3782 1.1233 8.4501 1.1379 7.1072.0526 8.8398-2.1962 13.6656-2.2309 5.5785-.0404 8.3258 3.4158 13.5664 5.2861 18.472 6.591 45.108 5.1854 53.135-3.2366 1.078-1.1312 1.289-2.0182 2.639-3.0463 6.475-4.93 15.394-3.7698 20.908-2.9791 10.937 1.5702 27.477 3.8303 43.305.485 0 0 14.97-3.0597 17.885-10.195 1.5-3.6689.731-6.7634.731-6.7634-.292-1.1714-.762-2.0696-1.114-2.6442-.252.5723-3.442 7.497-11.013 8.8085-5.788 1.0023-10.158-1.9656-11.035-2.5894-7.208 1.9432-17.895 3.5749-29.14-.2475z" fill="#ceeaf0"/><path d="m169.563 48.8741c5.017-1.4402 9.949.1602 11.37.6216 5.936 1.9263 9.55 6.1015 10.975 4.9547.581-.4671.191-1.3294.359-3.1269 0 0 .373-3.9927 3.408-7.2809 3.306-3.5816 9.279-4.6108 14.057-2.8704 5.375 1.9577 7.596 6.8228 8.29 8.3437 4.268 9.3504-1.732 18.5318-2.113 19.0918-.674.9923-3.195 4.5089-8.138 6.9985-2.213 1.1144-5.646 2.3923-29.595.4671-6.977-.5611-10.465-.8411-13.057-1.2096-4.337-.6159-5.935-1.0639-9.226-1.0426-5.229.0347-5.862 1.1994-9.803 1.1703-1.426-.0101-10.998-.0918-13.18-5.6905-1.432-3.6723.806-8.469 4.009-10.8277 2.367-1.7426 4.93-1.9128 6.982-2.0226 6.351-.3393 7.516 2.708 11.689 2.3295 6.156-.5566 6.275-7.6952 13.973-9.906z" fill="#fff"/><path d="m66.6286 55.4539c-.4132 2.4997-4.9423 3.4068-5.3668 3.4886-3.2221.6182-4.8987-.5992-9.4602-1.7214-8.1197-1.998-9.9542-1.802-11.3496-1.2431-1.8143.7268-1.7337 1.4324-3.8639 2.138-.8881.2934-4.1438 1.3159-7.6246-.2083-1.0191-.4458-4.1304-1.8087-4.8348-4.8853-.4626-2.017.4099-3.7126.6249-4.1247.9643-1.8457 2.558-2.6375 3.6455-3.1762.6663-.3304 2.1581-1.0494 4.2155-1.0069 1.4313.0303 2.5568.4167 3.2321.7079.2744-.961.803-2.315 1.8916-3.5873 3.2199-3.7641 10.0326-5.2895 14.7184-1.942 4.0005 2.857 4.3578 7.7703 4.4015 8.5296 1.4324.0941 4.2692.4984 6.8328 2.5524 1.0684.8556 3.2478 2.6027 2.9376 4.4787z" fill="#fff"/><path d="m64.3248 51.4544c-4.4294 1.8603-9.6943 1.6755-13.2792-1.6362-1.344.5476-4.117 1.4626-7.6314 1.0583-2.698-.3102-4.7318-1.2711-5.9122-1.9464-.3931.6562-1.214 1.8255-2.6711 2.7338-.4233.2643-3.0116 1.8199-6.2706.9833-2.3654-.607-3.7563-2.1335-4.2424-2.7237-.2173.6708-.4737 1.8042-.187 3.0989.6742 3.0496 3.7899 4.4271 4.8348 4.8852 3.4808 1.5243 6.7365.5029 7.6246.2083 2.1313-.7044 2.0496-1.4111 3.8639-2.138 1.3954-.5588 3.231-.7548 11.3496 1.2432 4.5604 1.1222 6.2381 2.3395 9.4602 1.7213.4245-.0817 4.9524-.9889 5.3668-3.4886.2688-1.6363-1.3439-3.2154-2.306-3.9994z" fill="#e9f4f6"/><path d="m218.642 51.1544c-.423 1.0662-4.793 11.5512-16.292 14.4328-9.89 2.4785-17.672-2.5187-18.929-3.3565-5.855 6.1441-19.303 8.7491-26.007 3.3129-.845.5163-7.07 4.174-14.215 1.5981-4.917-1.7729-7.452-5.4833-8.244-6.7578-.626.4402-1.778 1.3854-2.424 2.9769-1.139 2.7999.145 5.4777.378 5.9424 2.716 5.3971 11.5 5.6558 12.616 5.6827.245.0056.437.0078.564.0078 3.941.028 4.574-1.1356 9.803-1.1703 3.291-.0224 4.889.4267 9.226 1.0426 2.591.3674 6.08.6485 13.057 1.2096 23.949 1.9252 27.383.6473 29.595-.467 4.804-2.4191 7.525-6.1049 8.138-6.9986.728-1.0606 4.524-6.8127 3.499-14.1831-.193-1.382-.51-2.5042-.765-3.2725z" fill="#ceeaf0"/></svg>