<svg fill="none" height="363" viewBox="0 0 422 363" width="422" xmlns="http://www.w3.org/2000/svg" xmlns:xlink="http://www.w3.org/1999/xlink"><linearGradient id="a" gradientUnits="userSpaceOnUse" x1="336" x2="174.5" y1="361.5" y2="62.5"><stop offset="0" stop-color="#011a46"/><stop offset="1" stop-color="#713306"/></linearGradient><clipPath id="b"><path d="m0 0h422v363h-422z"/></clipPath><g clip-path="url(#b)"><path d="m374.195.461593c-9.725 2.044137-52.453 16.748807-61.157 21.034907-1.582.7912-2.802 1.8793-2.802 2.4727 0 .2308-.198.4286-.462.4286-.626 0-1.022.6924-4.154 7.2534-5.934 12.4957-10.418 20.0458-17.242 29.2115-5.77 7.7479-6.33 8.6052-8.308 12.4297l-1.715 3.231-.923-1.2198c-.527-.6924-1.681-1.5496-2.769-2.0772-1.715-.7912-2.176-.8572-6.462-.8572-4.253 0-4.847.066-7.418.9562-1.55.5275-2.638 1.022-2.473 1.055.198.0659 1.978.3297 3.989.6264 6.232.8572 8.375 1.8134 8.902 3.9235.165.6594-.033 1.1209-.824 2.0111-1.154 1.3518-1.187 1.3848-.396 3.6267.462 1.3518.791 1.7804 1.879 2.3079.759.3957 1.253.8902 1.187 1.187-.033.2637.627 1.2858 1.451 2.2749 3.198 3.7256 6.759 13.2871 9.891 26.7061 2.34 9.891 2.34 9.627 1.088 15.166-1.418 6.561-3.561 11.44-5.935 13.715-1.483 1.352-2.407 1.88-5.242 2.935l-3.462 1.253-9.396.263c-5.176.132-10.484.396-11.803.627-1.483.231-4.318 1.154-7.45 2.44l-5.045 2.077-1.582-.825c-2.407-1.187-7.616-2.439-9.462-2.242-1.319.132-1.715.033-2.803-.758-4.022-2.934-11.044-12.298-16.187-21.562-1.088-1.978-2.209-3.825-2.473-4.122-.297-.296-.626-.989-.725-1.483-.165-.627-.363-.824-.594-.594-.428.429-3.165-2.505-3.198-3.429 0-.362.594-1.615 1.286-2.802.725-1.187 1.253-2.209 1.187-2.242-.066-.066-1.22.462-2.604 1.187l-2.473 1.286-.857-.89c-.462-.462-.825-.989-.825-1.121 0-.165.759-1.286 1.649-2.506.923-1.22 1.648-2.341 1.648-2.473 0-.099-1.252.429-2.769 1.253-2.539 1.352-2.802 1.418-3.297.956-.494-.494-.363-.725 1.681-2.769 1.22-1.22 2.143-2.308 2.045-2.407-.198-.165-4.023 1.055-5.704 1.846-.89.429-.989.396-1.714-.527l-.759-.956.693-.759c.791-.857.791-.857-.66-.461-.56.164-1.055.23-1.055.132 0-.066.528-.759 1.154-1.517.627-.725 1.088-1.385 1.022-1.451s-.923.165-1.879.561c-2.143.791-2.143.791-2.407.132-.132-.33.165-.891.857-1.517 1.253-1.187.858-1.517-.923-.758-.659.263-1.285.428-1.351.362-.099-.066.395-.857 1.055-1.714.692-.89 1.088-1.6486.923-1.6816-.165-.0659-1.154.1649-2.176.5276l-1.879.659-.495-.725c-.462-.6594-.429-.7583.528-1.7474.989-1.0221.989-1.0551.329-1.2859-.362-.0989-1.187-.0989-1.846.033-.626.0989-1.154.1319-1.154.033s.758-.7254 1.714-1.3848c1.418-1.022 1.814-1.1869 2.308-.8572 1.022.6264.726-.3956-.428-1.4177-.561-.4945-.956-.9561-.89-1.0221.065-.0659.923-.1648 1.879-.1978 1.681-.0989 1.813-.033 2.736 1.121.857 1.088 1.154 1.2199 2.473 1.2199.791 0 1.747.1648 2.143.3627.923.4945 1.022.1978.231-.7913-.462-.5935-.99-.8902-1.616-.8902-.758 0-1.154-.2967-1.945-1.4507-1.022-1.4507-2.308-2.176-3.956-2.176-.528 0-1.418-.4946-2.341-1.3518-.824-.7253-2.044-1.6155-2.704-1.9782-.692-.3627-1.252-.7913-1.252-1.0221 0-.1978-.231-.5275-.495-.7253-.297-.1978-.56-.9561-.626-1.6815-.099-1.121-.231-1.3188-.89-1.3517-.429-.033-1.517-.2308-2.374-.4616l-1.583-.4286.726-.7583c.692-.7584.692-.7913.099-.7913-.33 0-1.121.2967-1.715.6594-1.319.7913-2.769.8902-2.505.1648.296-.7253-.759-.6264-1.748.1649-.989.7583-1.516.8242-2.505.2637-.396-.2308-1.154-.5605-1.649-.7583-1.187-.4286-7.781-7.649-8.011-8.737-.429-2.209-.792-2.4728-3.594-2.6706-1.451-.1319-3.528-.4616-4.616-.7583-3.23-.8243-3.791-.7254-5.538 1.055-1.682 1.7145-2.077 2.9014-.824 2.6047.395-.099.956-.066 1.285.0989.495.2637.528.4945.264 1.4836-.198.6594-.297 1.8793-.231 2.7365l.099 1.5496.989-1.7804.989-1.8133.165 1.8133.165 1.7804.593-1.088c.891-1.6155 1.748-1.4177 1.55.3627-.033.4286.132.5934.56.5605 1.682-.1978 1.847-.066 1.649 1.2858-.231 1.7804.165 2.2749.923 1.154.56-.8573.593-.8902 1.022-.2968.264.3627.396.8902.264 1.2199-.198.6594.198.7913.791.1978.495-.4945 1.385.2308 1.385 1.121 0 .4946.165.5935.626.4286.824-.2637 1.154.2968.692 1.1869-.461.8573-.197 1.187.495.6265.429-.3297.495-.2968.495.2967s.197.6924 1.516.6924c.857 0 1.418.1319 1.286.3297-.099.1648-.099.6924.033 1.1539.165.6924.395.8243 1.45.8243 1.418 0 1.616.2967 1.385 2.0771-.132 1.121-.231 1.2529-.857 1.055-1.088-.3626-3.528-.3956-4.912-.0659-.924.2308-1.517.6924-2.407 1.9123-1.945 2.6376-2.176 2.7365-4.385 1.4506-2.604-1.5496-5.802-2.5716-7.088-2.2749-.561.0989-2.176.7913-3.561 1.4837-2.901 1.4506-3.099 1.4836-3.956.7253-.692-.6264-.791-.1978-.132.6264.231.3297.857.6265 1.385.6594 1.384.1319 4.714-.3626 6.297-.9231 1.318-.4946 1.417-.4616 3.363.5275 1.45.7253 2.011 1.1869 2.011 1.6485 0 .8242-.989.8902-1.022.0659 0-.4286-.099-.3956-.363.1649-.462.9231-.923.9891-.923.0989 0-.9232-.561-.8243-.791.1648-.132.5276-.363.7254-.693.6265-.264-.1319-.494-.033-.494.1978 0 .3297-.132.2967-.528-.033-.428-.3297-.56-.3297-.824.066-.264.3956-.33.3956-.593 0-.231-.3627-.33-.2968-.528.3297-.231.7253-.264.7253-.725.0989-.264-.3627-.363-.9562-.264-1.3848.264-1.022-.33-.6594-1.187.7254l-.626 1.022v-1.3188l-.033-1.3188-.726.8573c-.395.4615-.989.9561-1.285 1.055-.33.0989-.66.6264-.792 1.121-.098.4945-.692 1.3518-1.285 1.9125-.627.527-1.187 1.352-1.319 1.78-.231.758-.198.758 1.187.495.791-.165 2.703-.231 4.253-.165 2.538.066 3.066-.033 5.44-1.022 2.637-1.088 2.67-1.088 7.747-1.055 2.868.033 5.77.231 6.594.461.824.231 2.769.495 4.352.627l2.868.198 1.747 1.714c.99.956 1.946 1.747 2.143 1.747.231 0 .792.528 1.286 1.154.462.627 1.022 1.154 1.253 1.154.692.033 2.407 1.814 3.132 3.198.396.792.824 1.418.989 1.418s.659.89 1.121 1.978c.495 1.088 1.055 1.979 1.286 1.979.264 0 .725.527 1.088 1.186.329.66.956 1.451 1.352 1.748.395.33.857 1.121.956 1.813.131.66.494 1.385.824 1.616.297.198.89 1.187 1.319 2.11.395.956.923 1.747 1.153 1.747.231 0 .858 1.088 1.352 2.374.758 1.879 1.121 2.44 1.715 2.506.395.066.725.297.725.494 0 .231.461.989.989 1.682.791 1.055.989 1.648.989 2.967 0 2.407 1.022 6.264 3.264 12.529 2.967 8.209 3.758 11.737 3.758 16.353 0 3.594-.033 3.89-.923 5.275-2.176 3.429-4.78 10.55-4.78 12.99 0 .792-.396 1.517-1.484 2.803-.824.989-1.747 2.209-2.011 2.703-.363.726-.725.956-1.451.956-.758 0-1.483.462-2.967 1.814-1.088.989-2.275 1.813-2.637 1.813-.396 0-1.088.297-1.616.692-.56.396-1.813.792-3.363.99-1.549.23-2.604.527-2.835.89-.626.791-.56 5.506.099 6.462.659 1.055.396 1.187-3.132 1.418-3.462.23-6.66-.198-13.55-1.781-6.033-1.385-7.253-1.945-19.452-9.001-4.615-2.703-10.714-6.165-13.517-7.682-2.802-1.549-5.835-3.396-6.758-4.088-.891-.692-1.847-1.253-2.143-1.253-.33 0-.528-.395-.594-1.088-.099-.824-.428-1.319-1.483-2.077-1.517-1.088-2.935-1.187-5.078-.264-.956.396-1.219.363-2.736-.362-2.176-1.022-3.066-2.077-3.9563-4.781-.7912-2.374-1.1209-2.44-2.11-.363-.7583 1.616-.6594 2.737.4616 5.078.5605 1.154.989 2.176.989 2.242s-.4285.132-.956.132-5.6047.593-11.3083 1.285c-5.6707.726-16.2536 1.913-23.5068 2.638-13.2864 1.319-16.6492 1.813-16.6492 2.374 0 .165-.4286.297-.9561.297-.4945 0-1.2858.263-1.7143.626-.4286.33-1.2199.824-1.7804 1.121-2.6375 1.385-28.3531 25.09-34.9798 32.245-2.5386 2.736-2.76938 3.132-4.35188 7.121-2.011091 4.979-2.7693727 8.078-2.6374977 10.584.1318747 2.406.7912497 2.604 1.0549977.329.13188-.956.32969-1.912.46156-2.143.36266-.56 8.24219-2.077 10.78082-2.077 4.9782 0 8.407.594 13.3523 2.374 4.3189 1.55 5.0772 1.945 7.9784 4.121 4.4838 3.429 8.7368 8.012 12.9238 13.947 1.9781 2.802 3.9892 5.637 4.4838 6.264.4945.626 1.1539 1.978 1.4835 2.967.6265 1.879 1.4507 3.429 1.7144 3.165.0989-.066-.0659-1.286-.3626-2.703-.2968-1.385-.4616-2.605-.3957-2.671.066-.066 3.2969-.659 7.1543-1.286 17.4075-2.835 17.4075-2.868 26.375-3 8.407-.165 8.4729-.165 14.0114.89 5.209.989 5.968 1.22 11.506 3.66l5.935 2.637 6.264 5.408c3.989 3.428 6.561 5.901 7.121 6.824.956 1.616 3.297 3.561 4.319 3.561.527 0 .297-.33-1.022-1.516-3.132-2.803-3.132-2.638.33-8.342 1.615-2.736 3.362-5.44 3.857-6.033.494-.561 2.967-2.836 5.506-5.012 4.286-3.66 4.945-4.121 9.561-6.33l4.978-2.374 5.077-.231 5.11-.231 5.44 1.88c4.319 1.45 15.759 6.429 17.671 7.682.231.132 1.22 1.714 2.242 3.528 1.022 1.813 1.847 3.099 1.847 2.835 0-.231-.528-2.011-1.22-3.956l-1.187-3.528 2.209-6.561c1.22-3.594 2.835-7.88 3.56-9.529 1.616-3.692 2.506-6.231 4.418-12.561 2.011-6.561 4.484-11.408 8.209-16.057 1.583-1.978 3.001-3.56 3.132-3.56.165 0 .759.56 1.319 1.286.561.692 1.748 1.78 2.572 2.373.857.627 2.703 2.11 4.154 3.363 3.824 3.297 8.077 5.111 18.33 7.847l4.122 1.121-2.012.363c-1.121.198-2.505.692-3.066 1.088-.593.428-1.813 1.055-2.769 1.385-3.791 1.384-8.077 5.176-9.759 8.605-.56 1.154-1.253 3.198-1.516 4.55-.264 1.351-.726 3.297-1.022 4.352-.66 2.275-.462 3.692.857 5.506 1.253 1.681 4.451 4.088 7.22 5.407l2.077.989 6.825-.297c9.297-.396 21.231-.264 22.187.231 2.374 1.253 9.067 8.242 11.671 12.166.759 1.187 2.671 3.561 4.22 5.308 4.385 4.978 9.298 7.484 12.43 6.396 1.219-.461 1.285-.428 2.637.693 1.649 1.351 2.802 1.45 5.275.329 1.715-.758 3.693-2.835 4.88-5.077.527-.989.89-7.155.428-7.451-.198-.099-.264-.759-.165-1.451.165-1.286-.395-2.868-1.286-3.594-.329-.296-.428-.033-.428 1.385 0 .956-.132 1.879-.264 2.044-.165.132-.791-.33-1.45-1.055-2.143-2.44-3.825-4.121-3.957-3.989-.099.066.099.593.363 1.154.692 1.318.692 2.275-.033 2.209-.528-.033-.593.263-.495 2.373.066 1.319-.033 2.374-.197 2.374-.198 0-1.583-.362-3.165-.824-1.55-.462-3.627-.923-4.616-1.022-1.912-.231-3.725-1.121-4.055-1.945-.231-.627 1.253-2.044 2.374-2.341.461-.099 1.285-.033 1.846.165 1.319.461 1.582.231.758-.66-.758-.824-2.209-1.615-2.967-1.615-.33 0-.956-.363-1.418-.791-.89-.858-3-1.154-4.516-.693-.594.198-1.121-.33-3.528-3.528-3.396-4.517-9.462-13.715-9.462-14.309 0-.263.626-.758 1.418-1.154 2.34-1.186 6.461-4.846 7.319-6.528 1.121-2.11 1.615-2.67 2.373-2.67.89 0 13.55 10.517 16.715 13.88 4.319 4.583 14.375 17.375 21.991 27.992 4.055 5.638 9.594 15.726 16.418 30.002 2.308 4.814 4.978 9.924 5.934 11.375 3.528 5.242 9.924 11.045 33.002 30.003 6.264 5.143 13.155 10.913 15.331 12.825s4.121 3.495 4.319 3.495c.23 0 .626-.396.956-.857.461-.693.461-.923.099-1.352-.231-.297-7.484-7.319-16.089-15.595-20.573-19.782-23.078-22.485-27.793-29.937-3.396-5.407-3.692-6.198-5.209-13.517-1.22-6.034-1.549-7.155-3.495-11.54-1.154-2.67-3.329-7.748-4.78-11.276-1.451-3.527-3.429-7.945-4.418-9.792-.989-1.846-1.78-3.659-1.78-4.022 0-.396-.165-.593-.396-.528-.231.099-.659-.23-.956-.725-.297-.527-1.385-2.374-2.44-4.154l-1.912-3.231.627-1.154c.593-1.088.593-1.187.033-2.176l-.561-.989 1.78.198c1.748.23 1.814.197 2.275-.693.264-.494.561-1.385.66-1.978.164-.857.066-1.121-.627-1.583-.428-.296-.758-.758-.725-1.055.132-.659-4.846-2.703-9.034-3.758-3.395-.824-4.055-1.517-3.461-3.495.395-1.319.132-1.714-.693-.956-.593.527-.758.396-3.165-2.506-1.516-1.879-2.505-3.363-2.505-3.824 0-.462-.132-.693-.363-.561-.461.297-1.945-1.121-1.945-1.879 0-.33-.198-.594-.429-.594-.626 0-4.187-3.725-4.187-4.385 0-.362-.164-.494-.362-.362-.198.099-1.352-.759-2.572-1.978l-2.209-2.209.297-1.781c.198-.989.231-1.912.132-2.044-.132-.132-.725.264-1.319.824l-1.088 1.055-2.077-1.846c-2.011-1.846-2.077-1.945-1.945-3.33.066-.758.033-1.418-.099-1.418-.099 0-.527.363-.956.825-.429.461-.923.824-1.055.824-.165 0-1.649-1.352-3.264-3-2.802-2.869-3.594-4.188-3.594-6.001 0-.791-.56-.725-.824.099-.198.659-.264.626-1.384-.363-.66-.56-2.869-1.813-4.913-2.769-3.099-1.484-3.758-1.913-3.956-2.638-.198-.758-.264-.824-.692-.396-.429.429-.825.33-3.33-.791-1.583-.692-3.033-1.286-3.264-1.286-.429 0-5.638-3.857-7.22-5.341-.594-.56-1.154-1.417-1.253-1.978-.165-.824-.297-.923-.66-.626-.56.494-1.318.164-2.439-1.055l-.758-.825 1.582-.132c.923-.098 1.846 0 2.242.231.363.231 1.22.561 1.879.791 1.352.462 2.572.066 2.572-.824 0-.264-.132-.428-.297-.329-.396.263-1.55-.693-1.253-1.023.561-.56 12.726-.527 17.704.066 10.946 1.253 27.595 4.946 41.64 9.232l2.868.857 2.341 3.462c1.319 1.879 2.473 3.363 2.572 3.264.098-.099-.594-1.615-1.484-3.363l-1.649-3.198 2.572-6.627c3.363-8.506 4.748-11.375 9.165-19.123l3.66-6.396 5.736-5.572 5.737-5.572 6.825-3.593c3.758-1.978 7.22-3.759 7.714-3.99.495-.197 4.946-1.516 9.957-2.868l9.066-2.506 6.891-.329c3.791-.165 8.407-.33 10.253-.33h3.363l1.648 2.506c.923 1.384 1.781 2.868 1.879 3.297.099.428.33.692.495.593.89-.528-.363-4.187-2.242-6.495-1.022-1.22-2.473-4.121-5.209-10.287l-3.791-8.572-1.088-6.033-1.121-6.001.758-5.671c1.385-10.1546 4.912-19.8478 10.022-27.4639 2.143-3.1321 7.221-9.858 7.583-9.9899.198-.0659 1.55.6264 3.033 1.5166 1.517.8902 3.067 1.8134 3.495 2.0112l.758.3956-.56-.8572c-.33-.4945-1.714-1.6485-3.066-2.5387-3.693-2.4727-13.979-12.8913-17.968-18.2324-2.539-3.3629-3.825-5.5719-6.165-10.2866l-2.967-6.0336-.528-5.1763c-.495-4.8466-.495-5.5389.033-9.9899.626-5.2092.429-4.7806 4.352-10.91305l1.385-2.14306 2.571.26376c1.451.13188 3 .3297 3.528.39564.494.09891.89.06594.89-.09891 0-.6594-1.121-1.08801-4.814-1.87929-3.593-.791277-4.714-.890188-12.989-.989098-6.759-.0659397-9.627 0-11.21.329701zm-193.856 92.546907c.462.8242.495.8242-1.22 1.088-1.285.1978-1.351.1648-1.154-.5605.33-1.3518 1.781-1.6815 2.374-.5275zm-22.946 1.4506c.692 1.0551.725 1.7145.033 1.154-.396-.3297-.528-.2967-.692.1319-.231.6264-1.385.3956-1.979-.3957-.296-.4286-.395-.4286-.56.066-.132.2967-.396.5275-.626.5275-.693-.033 1.978-2.3079 2.67-2.3079.33 0 .857.3627 1.154.8242zm18.891 106.3939c-.099.231-.165.066-.165-.395 0-.462.066-.627.165-.429.066.231.066.627 0 .824zm89.345 44.147c-.296.198-1.648.396-2.967.495-2.275.165-2.341.132-1.385-.33 1.154-.56 5.308-.725 4.352-.165z" fill="url(#a)"/></g></svg>