<svg width="422" height="363" viewBox="0 0 422 363" fill="none" xmlns="http://www.w3.org/2000/svg">
<g clip-path="url(#clip0_14_4091)">
<path d="M374.195 0.461593C364.47 2.50573 321.742 17.2104 313.038 21.4965C311.456 22.2877 310.236 23.3758 310.236 23.9692C310.236 24.2 310.038 24.3978 309.774 24.3978C309.148 24.3978 308.752 25.0902 305.62 31.6512C299.686 44.1469 295.202 51.697 288.378 60.8627C282.608 68.6106 282.048 69.4679 280.07 73.2924L278.355 76.5234L277.432 75.3036C276.905 74.6112 275.751 73.754 274.663 73.2264C272.948 72.4352 272.487 72.3692 268.201 72.3692C263.948 72.3692 263.354 72.4352 260.783 73.3254C259.233 73.8529 258.145 74.3474 258.31 74.3804C258.508 74.4463 260.288 74.7101 262.299 75.0068C268.531 75.864 270.674 76.8202 271.201 78.9303C271.366 79.5897 271.168 80.0512 270.377 80.9414C269.223 82.2932 269.19 82.3262 269.981 84.5681C270.443 85.9199 270.772 86.3485 271.86 86.876C272.619 87.2717 273.113 87.7662 273.047 88.063C273.014 88.3267 273.674 89.3488 274.498 90.3379C277.696 94.0635 281.257 103.625 284.389 117.044C286.729 126.935 286.729 126.671 285.477 132.21C284.059 138.771 281.916 143.65 279.542 145.925C278.059 147.277 277.135 147.805 274.3 148.86L270.838 150.113L261.442 150.376C256.266 150.508 250.958 150.772 249.639 151.003C248.156 151.234 245.321 152.157 242.189 153.443L237.144 155.52L235.562 154.695C233.155 153.508 227.946 152.256 226.1 152.453C224.781 152.585 224.385 152.486 223.297 151.695C219.275 148.761 212.253 139.397 207.11 130.133C206.022 128.155 204.901 126.308 204.637 126.011C204.34 125.715 204.011 125.022 203.912 124.528C203.747 123.901 203.549 123.704 203.318 123.934C202.89 124.363 200.153 121.429 200.12 120.505C200.12 120.143 200.714 118.89 201.406 117.703C202.131 116.516 202.659 115.494 202.593 115.461C202.527 115.395 201.373 115.923 199.989 116.648L197.516 117.934L196.659 117.044C196.197 116.582 195.834 116.055 195.834 115.923C195.834 115.758 196.593 114.637 197.483 113.417C198.406 112.197 199.131 111.076 199.131 110.944C199.131 110.845 197.879 111.373 196.362 112.197C193.823 113.549 193.56 113.615 193.065 113.153C192.571 112.659 192.702 112.428 194.746 110.384C195.966 109.164 196.889 108.076 196.791 107.977C196.593 107.812 192.768 109.032 191.087 109.823C190.197 110.252 190.098 110.219 189.373 109.296L188.614 108.34L189.307 107.581C190.098 106.724 190.098 106.724 188.647 107.12C188.087 107.284 187.592 107.35 187.592 107.252C187.592 107.186 188.12 106.493 188.746 105.735C189.373 105.01 189.834 104.35 189.768 104.284C189.702 104.218 188.845 104.449 187.889 104.845C185.746 105.636 185.746 105.636 185.482 104.977C185.35 104.647 185.647 104.086 186.339 103.46C187.592 102.273 187.197 101.943 185.416 102.702C184.757 102.965 184.131 103.13 184.065 103.064C183.966 102.998 184.46 102.207 185.12 101.35C185.812 100.46 186.208 99.7014 186.043 99.6684C185.878 99.6025 184.889 99.8333 183.867 100.196L181.988 100.855L181.493 100.13C181.031 99.4706 181.064 99.3717 182.021 98.3826C183.01 97.3605 183.01 97.3275 182.35 97.0967C181.988 96.9978 181.163 96.9978 180.504 97.1297C179.878 97.2286 179.35 97.2616 179.35 97.1627C179.35 97.0638 180.108 96.4373 181.064 95.7779C182.482 94.7559 182.878 94.591 183.372 94.9207C184.394 95.5471 184.098 94.5251 182.944 93.503C182.383 93.0085 181.988 92.5469 182.054 92.4809C182.119 92.415 182.977 92.3161 183.933 92.2831C185.614 92.1842 185.746 92.2501 186.669 93.4041C187.526 94.4921 187.823 94.624 189.142 94.624C189.933 94.624 190.889 94.7888 191.285 94.9867C192.208 95.4812 192.307 95.1845 191.516 94.1954C191.054 93.6019 190.526 93.3052 189.9 93.3052C189.142 93.3052 188.746 93.0085 187.955 91.8545C186.933 90.4038 185.647 89.6785 183.999 89.6785C183.471 89.6785 182.581 89.1839 181.658 88.3267C180.834 87.6014 179.614 86.7112 178.954 86.3485C178.262 85.9858 177.702 85.5572 177.702 85.3264C177.702 85.1286 177.471 84.7989 177.207 84.6011C176.91 84.4033 176.647 83.645 176.581 82.9196C176.482 81.7986 176.35 81.6008 175.691 81.5679C175.262 81.5349 174.174 81.3371 173.317 81.1063L171.734 80.6777L172.46 79.9194C173.152 79.161 173.152 79.1281 172.559 79.1281C172.229 79.1281 171.438 79.4248 170.844 79.7875C169.525 80.5788 168.075 80.6777 168.339 79.9523C168.635 79.227 167.58 79.3259 166.591 80.1172C165.602 80.8755 165.075 80.9414 164.086 80.3809C163.69 80.1501 162.932 79.8204 162.437 79.6226C161.25 79.194 154.656 71.9736 154.426 70.8856C153.997 68.6766 153.634 68.4128 150.832 68.215C149.381 68.0831 147.304 67.7534 146.216 67.4567C142.986 66.6324 142.425 66.7313 140.678 68.5117C138.996 70.2262 138.601 71.4131 139.854 71.1164C140.249 71.0174 140.81 71.0504 141.139 71.2153C141.634 71.479 141.667 71.7098 141.403 72.6989C141.205 73.3583 141.106 74.5782 141.172 75.4354L141.271 76.985L142.26 75.2046L143.249 73.3913L143.414 75.2046L143.579 76.985L144.172 75.897C145.063 74.2815 145.92 74.4793 145.722 76.2597C145.689 76.6883 145.854 76.8531 146.282 76.8202C147.964 76.6224 148.129 76.7542 147.931 78.106C147.7 79.8864 148.096 80.3809 148.854 79.26C149.414 78.4027 149.447 78.3698 149.876 78.9632C150.14 79.3259 150.272 79.8534 150.14 80.1831C149.942 80.8425 150.338 80.9744 150.931 80.3809C151.426 79.8864 152.316 80.6117 152.316 81.5019C152.316 81.9965 152.481 82.0954 152.942 81.9305C153.766 81.6668 154.096 82.2273 153.634 83.1174C153.173 83.9747 153.437 84.3044 154.129 83.7439C154.558 83.4142 154.624 83.4471 154.624 84.0406C154.624 84.6341 154.821 84.733 156.14 84.733C156.997 84.733 157.558 84.8649 157.426 85.0627C157.327 85.2275 157.327 85.7551 157.459 86.2166C157.624 86.909 157.854 87.0409 158.909 87.0409C160.327 87.0409 160.525 87.3376 160.294 89.118C160.162 90.239 160.063 90.3709 159.437 90.173C158.349 89.8104 155.909 89.7774 154.525 90.1071C153.601 90.3379 153.008 90.7995 152.118 92.0194C150.173 94.657 149.942 94.7559 147.733 93.47C145.129 91.9204 141.931 90.8984 140.645 91.1951C140.084 91.294 138.469 91.9864 137.084 92.6788C134.183 94.1294 133.985 94.1624 133.128 93.4041C132.436 92.7777 132.337 93.2063 132.996 94.0305C133.227 94.3602 133.853 94.657 134.381 94.6899C135.765 94.8218 139.095 94.3273 140.678 93.7668C141.996 93.2722 142.095 93.3052 144.041 94.2943C145.491 95.0196 146.052 95.4812 146.052 95.9428C146.052 96.767 145.063 96.833 145.03 96.0087C145.03 95.5801 144.931 95.6131 144.667 96.1736C144.205 97.0967 143.744 97.1627 143.744 96.2725C143.744 95.3493 143.183 95.4482 142.953 96.4373C142.821 96.9649 142.59 97.1627 142.26 97.0638C141.996 96.9319 141.766 97.0308 141.766 97.2616C141.766 97.5913 141.634 97.5583 141.238 97.2286C140.81 96.8989 140.678 96.8989 140.414 97.2946C140.15 97.6902 140.084 97.6902 139.821 97.2946C139.59 96.9319 139.491 96.9978 139.293 97.6243C139.062 98.3496 139.029 98.3496 138.568 97.7232C138.304 97.3605 138.205 96.767 138.304 96.3384C138.568 95.3164 137.974 95.679 137.117 97.0638L136.491 98.0858V96.767L136.458 95.4482L135.732 96.3055C135.337 96.767 134.743 97.2616 134.447 97.3605C134.117 97.4594 133.787 97.9869 133.655 98.4815C133.557 98.976 132.963 99.8333 132.37 100.394C131.743 100.921 131.183 101.746 131.051 102.174C130.82 102.932 130.853 102.932 132.238 102.669C133.029 102.504 134.941 102.438 136.491 102.504C139.029 102.57 139.557 102.471 141.931 101.482C144.568 100.394 144.601 100.394 149.678 100.427C152.546 100.46 155.448 100.658 156.272 100.888C157.096 101.119 159.041 101.383 160.624 101.515L163.492 101.713L165.239 103.427C166.229 104.383 167.185 105.174 167.382 105.174C167.613 105.174 168.174 105.702 168.668 106.328C169.13 106.955 169.69 107.482 169.921 107.482C170.613 107.515 172.328 109.296 173.053 110.68C173.449 111.472 173.877 112.098 174.042 112.098C174.207 112.098 174.701 112.988 175.163 114.076C175.658 115.164 176.218 116.055 176.449 116.055C176.713 116.055 177.174 116.582 177.537 117.241C177.866 117.901 178.493 118.692 178.889 118.989C179.284 119.319 179.746 120.11 179.845 120.802C179.976 121.462 180.339 122.187 180.669 122.418C180.966 122.616 181.559 123.605 181.988 124.528C182.383 125.484 182.911 126.275 183.141 126.275C183.372 126.275 183.999 127.363 184.493 128.649C185.251 130.528 185.614 131.089 186.208 131.155C186.603 131.221 186.933 131.452 186.933 131.649C186.933 131.88 187.394 132.638 187.922 133.331C188.713 134.386 188.911 134.979 188.911 136.298C188.911 138.705 189.933 142.562 192.175 148.827C195.142 157.036 195.933 160.564 195.933 165.18C195.933 168.774 195.9 169.07 195.01 170.455C192.834 173.884 190.23 181.005 190.23 183.445C190.23 184.237 189.834 184.962 188.746 186.248C187.922 187.237 186.999 188.457 186.735 188.951C186.372 189.677 186.01 189.907 185.284 189.907C184.526 189.907 183.801 190.369 182.317 191.721C181.229 192.71 180.042 193.534 179.68 193.534C179.284 193.534 178.592 193.831 178.064 194.226C177.504 194.622 176.251 195.018 174.701 195.216C173.152 195.446 172.097 195.743 171.866 196.106C171.24 196.897 171.306 201.612 171.965 202.568C172.624 203.623 172.361 203.755 168.833 203.986C165.371 204.216 162.173 203.788 155.283 202.205C149.25 200.82 148.03 200.26 135.831 193.204C131.216 190.501 125.117 187.039 122.314 185.522C119.512 183.973 116.479 182.126 115.556 181.434C114.665 180.742 113.709 180.181 113.413 180.181C113.083 180.181 112.885 179.786 112.819 179.093C112.72 178.269 112.391 177.774 111.336 177.016C109.819 175.928 108.401 175.829 106.258 176.752C105.302 177.148 105.039 177.115 103.522 176.39C101.346 175.368 100.456 174.313 99.5657 171.609C98.7745 169.235 98.4448 169.169 97.4557 171.246C96.6974 172.862 96.7963 173.983 97.9173 176.324C98.4778 177.478 98.9063 178.5 98.9063 178.566C98.9063 178.632 98.4778 178.698 97.9503 178.698C97.4228 178.698 92.3456 179.291 86.642 179.983C80.9713 180.709 70.3884 181.896 63.1352 182.621C49.8488 183.94 46.486 184.434 46.486 184.995C46.486 185.16 46.0574 185.292 45.5299 185.292C45.0354 185.292 44.2441 185.555 43.8156 185.918C43.387 186.248 42.5957 186.742 42.0352 187.039C39.3977 188.424 13.6821 212.129 7.0554 219.284C4.5168 222.02 4.28602 222.416 2.70352 226.405C0.692429 231.384 -0.0658527 234.483 0.0660223 236.989C0.197897 239.395 0.857272 239.593 1.12102 237.318C1.2529 236.362 1.45071 235.406 1.58258 235.175C1.94524 234.615 9.82477 233.098 12.3634 233.098C17.3416 233.098 20.7704 233.692 25.7157 235.472C30.0346 237.022 30.7929 237.417 33.6941 239.593C38.1779 243.022 42.4309 247.605 46.6179 253.54C48.596 256.342 50.6071 259.177 51.1017 259.804C51.5962 260.43 52.2556 261.782 52.5852 262.771C53.2117 264.65 54.0359 266.2 54.2996 265.936C54.3985 265.87 54.2337 264.65 53.937 263.233C53.6402 261.848 53.4754 260.628 53.5413 260.562C53.6073 260.496 56.8382 259.903 60.6956 259.276C78.1031 256.441 78.1031 256.408 87.0706 256.276C95.4776 256.111 95.5435 256.111 101.082 257.166C106.291 258.155 107.05 258.386 112.588 260.826L118.523 263.463L124.787 268.871C128.776 272.299 131.348 274.772 131.908 275.695C132.864 277.311 135.205 279.256 136.227 279.256C136.754 279.256 136.524 278.926 135.205 277.74C132.073 274.937 132.073 275.102 135.535 269.398C137.15 266.662 138.897 263.958 139.392 263.365C139.886 262.804 142.359 260.529 144.898 258.353C149.184 254.693 149.843 254.232 154.459 252.023L159.437 249.649L164.514 249.418L169.624 249.187L175.064 251.067C179.383 252.517 190.823 257.496 192.735 258.749C192.966 258.881 193.955 260.463 194.977 262.277C195.999 264.09 196.824 265.376 196.824 265.112C196.824 264.881 196.296 263.101 195.604 261.156L194.417 257.628L196.626 251.067C197.846 247.473 199.461 243.187 200.186 241.538C201.802 237.846 202.692 235.307 204.604 228.977C206.615 222.416 209.088 217.569 212.813 212.92C214.396 210.942 215.814 209.36 215.945 209.36C216.11 209.36 216.704 209.92 217.264 210.646C217.825 211.338 219.012 212.426 219.836 213.019C220.693 213.646 222.539 215.129 223.99 216.382C227.814 219.679 232.067 221.493 242.32 224.229L246.442 225.35L244.43 225.713C243.309 225.911 241.925 226.405 241.364 226.801C240.771 227.229 239.551 227.856 238.595 228.186C234.804 229.57 230.518 233.362 228.836 236.791C228.276 237.945 227.583 239.989 227.32 241.341C227.056 242.692 226.594 244.638 226.298 245.693C225.638 247.968 225.836 249.385 227.155 251.199C228.408 252.88 231.606 255.287 234.375 256.606L236.452 257.595L243.277 257.298C252.574 256.902 264.508 257.034 265.464 257.529C267.838 258.782 274.531 265.771 277.135 269.695C277.894 270.882 279.806 273.256 281.355 275.003C285.74 279.981 290.653 282.487 293.785 281.399C295.004 280.938 295.07 280.971 296.422 282.092C298.071 283.443 299.224 283.542 301.697 282.421C303.412 281.663 305.39 279.586 306.577 277.344C307.104 276.355 307.467 270.189 307.005 269.893C306.807 269.794 306.741 269.134 306.84 268.442C307.005 267.156 306.445 265.574 305.554 264.848C305.225 264.552 305.126 264.815 305.126 266.233C305.126 267.189 304.994 268.112 304.862 268.277C304.697 268.409 304.071 267.947 303.412 267.222C301.269 264.782 299.587 263.101 299.455 263.233C299.356 263.299 299.554 263.826 299.818 264.387C300.51 265.705 300.51 266.662 299.785 266.596C299.257 266.563 299.192 266.859 299.29 268.969C299.356 270.288 299.257 271.343 299.093 271.343C298.895 271.343 297.51 270.981 295.928 270.519C294.378 270.057 292.301 269.596 291.312 269.497C289.4 269.266 287.587 268.376 287.257 267.552C287.026 266.925 288.51 265.508 289.631 265.211C290.092 265.112 290.916 265.178 291.477 265.376C292.796 265.837 293.059 265.607 292.235 264.716C291.477 263.892 290.026 263.101 289.268 263.101C288.938 263.101 288.312 262.738 287.85 262.31C286.96 261.452 284.85 261.156 283.334 261.617C282.74 261.815 282.213 261.287 279.806 258.089C276.41 253.572 270.344 244.374 270.344 243.78C270.344 243.517 270.97 243.022 271.762 242.626C274.102 241.44 278.223 237.78 279.081 236.098C280.202 233.988 280.696 233.428 281.454 233.428C282.344 233.428 295.004 243.945 298.169 247.308C302.488 251.891 312.544 264.683 320.16 275.3C324.215 280.938 329.754 291.026 336.578 305.302C338.886 310.116 341.556 315.226 342.512 316.677C346.04 321.919 352.436 327.722 375.514 346.68C381.778 351.823 388.669 357.593 390.845 359.505C393.021 361.417 394.966 363 395.164 363C395.394 363 395.79 362.604 396.12 362.143C396.581 361.45 396.581 361.22 396.219 360.791C395.988 360.494 388.735 353.472 380.13 345.196C359.557 325.414 357.052 322.711 352.337 315.259C348.941 309.852 348.645 309.061 347.128 301.742C345.908 295.708 345.579 294.587 343.633 290.202C342.479 287.532 340.304 282.454 338.853 278.926C337.402 275.399 335.424 270.981 334.435 269.134C333.446 267.288 332.655 265.475 332.655 265.112C332.655 264.716 332.49 264.519 332.259 264.584C332.028 264.683 331.6 264.354 331.303 263.859C331.006 263.332 329.918 261.485 328.863 259.705L326.951 256.474L327.578 255.32C328.171 254.232 328.171 254.133 327.611 253.144L327.05 252.155L328.83 252.353C330.578 252.583 330.644 252.55 331.105 251.66C331.369 251.166 331.666 250.275 331.765 249.682C331.929 248.825 331.831 248.561 331.138 248.099C330.71 247.803 330.38 247.341 330.413 247.044C330.545 246.385 325.567 244.341 321.379 243.286C317.984 242.462 317.324 241.769 317.918 239.791C318.313 238.472 318.05 238.077 317.225 238.835C316.632 239.362 316.467 239.231 314.06 236.329C312.544 234.45 311.555 232.966 311.555 232.505C311.555 232.043 311.423 231.812 311.192 231.944C310.731 232.241 309.247 230.823 309.247 230.065C309.247 229.735 309.049 229.471 308.818 229.471C308.192 229.471 304.631 225.746 304.631 225.086C304.631 224.724 304.467 224.592 304.269 224.724C304.071 224.823 302.917 223.965 301.697 222.746L299.488 220.537L299.785 218.756C299.983 217.767 300.016 216.844 299.917 216.712C299.785 216.58 299.192 216.976 298.598 217.536L297.51 218.591L295.433 216.745C293.422 214.899 293.356 214.8 293.488 213.415C293.554 212.657 293.521 211.997 293.389 211.997C293.29 211.997 292.862 212.36 292.433 212.822C292.004 213.283 291.51 213.646 291.378 213.646C291.213 213.646 289.729 212.294 288.114 210.646C285.312 207.777 284.52 206.458 284.52 204.645C284.52 203.854 283.96 203.92 283.696 204.744C283.498 205.403 283.432 205.37 282.312 204.381C281.652 203.821 279.443 202.568 277.399 201.612C274.3 200.128 273.641 199.699 273.443 198.974C273.245 198.216 273.179 198.15 272.751 198.578C272.322 199.007 271.926 198.908 269.421 197.787C267.838 197.095 266.388 196.501 266.157 196.501C265.728 196.501 260.519 192.644 258.937 191.16C258.343 190.6 257.783 189.743 257.684 189.182C257.519 188.358 257.387 188.259 257.024 188.556C256.464 189.05 255.706 188.72 254.585 187.501L253.827 186.676L255.409 186.544C256.332 186.446 257.255 186.544 257.651 186.775C258.014 187.006 258.871 187.336 259.53 187.566C260.882 188.028 262.102 187.632 262.102 186.742C262.102 186.478 261.97 186.314 261.805 186.413C261.409 186.676 260.255 185.72 260.552 185.39C261.113 184.83 273.278 184.863 278.256 185.456C289.202 186.709 305.851 190.402 319.896 194.688L322.764 195.545L325.105 199.007C326.424 200.886 327.578 202.37 327.677 202.271C327.775 202.172 327.083 200.656 326.193 198.908L324.544 195.71L327.116 189.083C330.479 180.577 331.864 177.708 336.281 169.96L339.941 163.564L345.677 157.992L351.414 152.42L358.239 148.827C361.997 146.849 365.459 145.068 365.953 144.837C366.448 144.64 370.899 143.321 375.91 141.969L384.976 139.463L391.867 139.134C395.658 138.969 400.274 138.804 402.12 138.804H405.483L407.131 141.31C408.054 142.694 408.912 144.178 409.01 144.607C409.109 145.035 409.34 145.299 409.505 145.2C410.395 144.672 409.142 141.013 407.263 138.705C406.241 137.485 404.79 134.584 402.054 128.418L398.263 119.846L397.175 113.813L396.054 107.812L396.812 102.141C398.197 91.9864 401.724 82.2932 406.834 74.6771C408.977 71.545 414.055 64.8191 414.417 64.6872C414.615 64.6213 415.967 65.3136 417.45 66.2038C418.967 67.094 420.517 68.0172 420.945 68.215L421.703 68.6106L421.143 67.7534C420.813 67.2589 419.429 66.1049 418.077 65.2147C414.384 62.742 404.098 52.3234 400.109 46.9823C397.57 43.6194 396.284 41.4104 393.944 36.6957L390.977 30.6621L390.449 25.4858C389.954 20.6392 389.954 19.9469 390.482 15.4959C391.108 10.2867 390.911 10.7153 394.834 4.58285L396.219 2.43979L398.79 2.70355C400.241 2.83543 401.79 3.03325 402.318 3.09919C402.812 3.1981 403.208 3.16513 403.208 3.00028C403.208 2.34088 402.087 1.91227 398.394 1.12099C394.801 0.329713 393.68 0.230802 385.405 0.131892C378.646 0.0659523 375.778 0.131892 374.195 0.461593ZM180.339 93.0085C180.801 93.8327 180.834 93.8327 179.119 94.0965C177.834 94.2943 177.768 94.2613 177.965 93.536C178.295 92.1842 179.746 91.8545 180.339 93.0085ZM157.393 94.4591C158.085 95.5142 158.118 96.1736 157.426 95.6131C157.03 95.2834 156.898 95.3164 156.734 95.745C156.503 96.3714 155.349 96.1406 154.755 95.3493C154.459 94.9207 154.36 94.9207 154.195 95.4153C154.063 95.712 153.799 95.9428 153.569 95.9428C152.876 95.9098 155.547 93.6349 156.239 93.6349C156.569 93.6349 157.096 93.9976 157.393 94.4591ZM176.284 200.853C176.185 201.084 176.119 200.919 176.119 200.458C176.119 199.996 176.185 199.831 176.284 200.029C176.35 200.26 176.35 200.656 176.284 200.853ZM265.629 245C265.333 245.198 263.981 245.396 262.662 245.495C260.387 245.66 260.321 245.627 261.277 245.165C262.431 244.605 266.585 244.44 265.629 245Z" fill="url(#paint0_radial_14_4091)"/>
</g>
<defs>
<radialGradient id="paint0_radial_14_4091" cx="0" cy="0" r="1" gradientUnits="userSpaceOnUse" gradientTransform="translate(180.5 105) rotate(50.9315) scale(218.961 254.416)">
<stop offset="0.236676" stop-color="#4A0930"/>
<stop offset="0.656252" stop-color="#D43535"/>
<stop offset="0.833339" stop-color="#E38A51"/>
<stop offset="1" stop-color="#FBB42A"/>
</radialGradient>
<clipPath id="clip0_14_4091">
<rect width="422" height="363" fill="white"/>
</clipPath>
</defs>
</svg>
