<svg fill="none" height="424" viewBox="0 0 342 424" width="342" xmlns="http://www.w3.org/2000/svg" xmlns:xlink="http://www.w3.org/1999/xlink"><linearGradient id="a" gradientUnits="userSpaceOnUse" x1="225" x2="80" y1="433" y2="18"><stop offset="0" stop-color="#011a46"/><stop offset="1" stop-color="#772b58"/></linearGradient><clipPath id="b"><path d="m0 0h342v424h-342z"/></clipPath><g clip-path="url(#b)"><path d="m182.985.231877c-.132.099375-.232 3.113753-.232 6.691253-.033 7.22127-.232 8.31437-2.317 11.72627-1.192 1.9875-1.755 2.65-11.952 14.0119-13.342 14.9393-23.01 26.4337-29.764 35.4106-14.103 18.7818-24.599 30.7731-41.8475 48.0311-11.3559 11.362-19.103 18.484-27.3468 25.175-2.4499 2.021-6.5222 5.399-9.0383 7.553-2.5162 2.12-5.0324 4.107-5.5952 4.405-.9601.497-1.4236.497-6.0255-.033-20.1625-2.252-27.3137-3.279-35.4912-4.969-.6622-.165-1.1257-.066-1.3905.232-.298.398.3641.961 3.6418 3.081 5.7938 3.743 10.9586 5.764 14.6997 5.797.5628 0 1.2581.232 1.4898.563.2649.298 1.9203 1.689 3.675 3.147 1.7546 1.424 3.2776 2.716 3.3769 2.882.0993.165-.6952 1.292-1.8209 2.517-1.0925 1.226-1.9202 2.286-1.854 2.385.0993.066 1.225-.397 2.5162-1.027 1.2911-.662 2.8141-1.192 3.4431-1.192 1.1257 0 .8608-.166 13.0775 9.142 4.7674 3.644 6.2242 4.273 9.8329 4.24 2.8472-.033 5.5289-.762 13.2099-3.677 2.1519-.828 4.006-1.358 4.1384-1.192 4.1715 5.929 6.9526 10.567 9.7005 16.165 6.0586 12.389 6.7208 20.968 1.9202 25.473-.8939.828-2.152 1.756-2.781 2.087-.9932.464-3.1121 2.948-2.781 3.246.0662.033 2.1188-1.159 4.6019-2.65 2.483-1.49 5.6945-3.213 7.1181-3.842l2.615-1.127 8.277.034c15.495.066 28.605 2.186 42.146 6.79 4.834 1.656 12.846 5.101 13.177 5.665.132.165-.232.795-.795 1.358-1.556 1.656-7.25 8.943-10.528 13.482-11.223 15.502-19.997 31.071-25.791 45.712-2.979 7.519-8.31 15.171-15.726 22.525-8.012 7.95-17.3148 13.482-26.2207 15.536-6.158 1.457-15.1301 1.457-22.1158.033-11.422-2.319-21.5198-8.05-28.9028-16.397-12.0842-13.648-18.3746-34.549-18.507-61.348l-.0332-7.552 1.3574-5.134c3.5094-13.515 7.8796-24.016 13.4086-32.33 2.6155-3.942 7.1512-8.911 10.2964-11.296 2.152-1.59 6.2573-3.743 7.2174-3.743.7615 0 1.2581-.994 1.2581-2.584 0-2.584-1.7878-2.915-6.6877-1.292-24.7313 8.281-39.56342 35.08-43.304558 78.142-.4303974 4.671-.198645 8.116 1.158758 17.689 4.006 27.924 13.3754 49.356 28.1413 64.229 11.6208 11.726 26.2542 18.914 44.4302 21.896 6.8202 1.093 21.5199.993 27.9096-.232 2.616-.497 11.124-3.412 14.667-5.002 16.123-7.254 31.485-19.511 45.423-36.206 2.88-3.412 8.277-10.467 9.568-12.521.331-.497.861-.894 1.159-.894s2.019.861 3.84 1.888l3.311 1.921 1.457 2.849 1.49 2.849-1.523 1.755c-2.02 2.319-3.112 4.373-3.94 7.52-.596 2.186-.728 3.676-.795 9.374-.066 6.956-.331 8.977-1.49 11.262-.96 1.855-2.251 2.915-4.204 3.512-4.933 1.457-5.695 4.008-3.046 10.268 2.682 6.394 3.542 10.6 3.774 18.882.199 7.088.96 11.858 2.053 12.753.298.265.43 1.192.43 2.782 0 2.683.629 5.201 1.589 6.261.663.729 1.722 4.439 1.722 6.062 0 .497.132 1.126.298 1.391.232.364.397.133.662-.828.497-1.888 1.026-5.333 1.093-7.354l.099-1.755 2.251 1.755c2.881 2.286 4.735 5.201 4.205 6.658-.596 1.756-.397 3.876.497 5.4.695 1.159.794 1.656.629 3.014-.133.861-.53 2.219-.894 2.981-.762 1.59-.563 2.153.43 1.259 1.424-1.292 2.351-4.074 3.807-11.163 1.722-8.381 1.788-7.917-2.317-12.024-4.503-4.505-5.132-5.599-6.324-10.766-.43-1.921-.496-4.041-.397-12.157l.099-9.871 1.623-3.975c1.821-4.538 4.37-9.606 6.489-12.786l1.423-2.22 1.689.497c2.218.629 8.045 3.412 10.76 5.134 1.192.729 3.708 2.518 5.562 3.942 3.277 2.551 3.443 2.617 5.198 2.617 1.026 0 2.913-.199 4.237-.397 1.888-.332 2.384-.332 2.517 0 .165.53 1.821 1.391 2.648 1.391.331 0 .894.298 1.225.662.828.928 2.814 2.12 3.046 1.855.331-.298-.596-2.782-1.622-4.405-.497-.795-.927-1.656-.927-1.921s-.364-.729-.828-1.027c-.463-.298-.828-.696-.828-.862 0-.463 2.715-4.24 3.675-5.101.431-.397 1.325-.795 1.954-.894.993-.133 1.324 0 2.251.96.828.862 1.357 1.127 2.251 1.127 1.027 0 1.523.331 3.477 2.219 2.085 2.021 2.284 2.12 2.284 1.358 0-2.186-1.655-5.101-4.834-8.546-1.092-1.159-1.655-1.988-1.357-1.988.265 0 .662-.231.894-.496.364-.431.53-.365 1.225.662 1.092 1.623 1.755 1.888 4.238 1.623 2.085-.232 2.218-.199 3.178.729.563.53 1.39 1.59 1.854 2.385 1.159 1.954 1.655 1.325.761-.994-1.059-2.882-2.88-5.234-5.297-6.79-1.159-.795-2.417-1.789-2.814-2.253-.629-.828-.861-.861-4.006-.927l-3.377-.067-1.688 1.59c-1.258 1.193-1.888 1.557-2.285 1.358-.298-.132-1.821-.364-3.344-.496-1.523-.166-3.509-.53-4.37-.795-.894-.299-2.516-.663-3.609-.829-2.317-.331-11.223-4.538-13.342-6.293l-1.258-1.06 1.556-2.882c2.251-4.174 5.463-9.01 7.482-11.196.994-1.06 2.483-3.048 3.344-4.439 2.185-3.545 2.152-4.075-.794-9.242-7.979-14.078-9.204-18.152-8.84-29.879l.099-3.842 5.198-5.3 5.165-5.3 4.072-.53c6.92-.928 14.17-2.186 16.421-2.882l2.152-.663 6.192 3.975c8.243 5.267 13.474 8.414 16.719 10.037 2.417 1.226 2.913 1.358 5.131 1.358 2.351 0 2.45.034 3.046 1.027.331.563.729 1.557.828 2.187.099.629.563 1.523 1.026 1.987.431.464 1.424 1.855 2.185 3.114.762 1.259 1.59 2.352 1.821 2.451.994.331-.066-6.327-1.556-9.606-.563-1.226-1.026-2.319-1.026-2.418 0-.1.497-.166 1.092-.166 1.457 0 4.569-.828 6.158-1.656l1.292-.63.198.994c.1.53.762 1.557 1.457 2.22.927.894 1.424 1.788 1.755 2.981.496 2.054 1.059 2.054 1.324.033l.166-1.458.43.994c.232.53.497 2.087.596 3.379.099 1.325.331 2.418.463 2.418 1.159 0 1.325-6.062.298-9.904-.695-2.65-.894-5.499-.331-5.168.199.1.331.63.331 1.16 0 1.457.298 1.921 1.788 2.948 1.457 1.027 2.185 2.749 2.185 5.167 0 1.193.431 1.557.795.63.099-.299.198-1.657.198-3.048 0-2.087-.231-3.213-1.258-6.194l-1.258-3.644-2.317-1.226c-1.258-.695-2.516-1.258-2.814-1.258-.265 0-.861.364-1.292.828-.562.596-1.125.828-1.986.828-.662 0-2.748.232-4.668.53-3.907.596-10.793.364-12.978-.398-1.689-.596-3.642-2.153-5.264-4.207-.96-1.258-1.192-1.722-.861-1.921.794-.497 2.119-.298 3.741.563 2.086 1.093 7.78 2.286 7.78 1.623 0-.132-.298-.761-.695-1.358-.728-1.225-6.357-5.432-7.217-5.432-.298 0 .132-.663 1.191-1.756.927-.927 1.921-2.219 2.252-2.815.53-1.06.596-1.094 1.92-.862 1.059.166 1.722.563 2.748 1.69.96 1.027 1.622 1.457 2.152 1.424 1.424-.132 1.655 0 3.642 1.888 1.887 1.789 1.953 1.822 1.953.961 0-1.193-1.688-4.439-3.41-6.559-.795-.994-1.556-2.153-1.655-2.584-.133-.463-.729-1.623-1.391-2.583-.629-.994-1.159-1.855-1.159-1.955 0-.066.331-.099.729-.033.43.066.993.629 1.423 1.391.894 1.623 1.987 2.22 3.51 1.988 1.688-.232 3.079.96 3.84 3.379.298.993.662 1.788.828 1.788.43 0 .298-2.749-.232-4.538-.331-1.126-1.092-2.319-2.251-3.61-.927-1.094-2.285-2.75-2.98-3.677-1.423-1.955-2.053-2.22-6.257-2.551-2.384-.199-2.549-.166-3.145.563-.563.729-.795.795-2.483.63-1.689-.133-2.02-.034-2.914.695-.53.464-1.324.961-1.721 1.06-.431.133-1.49.994-2.417 1.955-2.152 2.219-4.834 3.544-7.516 3.743l-2.085.165-2.384-3.113c-1.291-1.69-2.814-3.512-3.344-4.009-.894-.861-.927-.993-.596-2.318.199-.828 1.093-2.319 2.053-3.545 3.675-4.604 5.264-8.314 5.926-13.68.265-2.054.629-4.406.794-5.201.199-.828.365-2.186.365-3.014 0-1.259.298-2.021 1.754-4.307 7.946-12.686 18.905-22.359 27.877-24.645 4.238-1.06 8.972-.463 13.044 1.657 5.297 2.782 10.528 9.407 8.939 11.295-.364.431-.894.464-3.178.298l-2.748-.231v.894c0 .497.695 2.617 1.523 4.737 1.556 3.909 2.98 8.91 2.648 9.242-.264.265-2.449-1.16-3.012-1.988l-.497-.695v.795c.033 1.225 1.093 3.411 2.483 4.935 1.358 1.491 1.457 1.789 2.351 8.381.43 2.981.596 6.459.596 13.018l.033 8.944-1.06 2.285c-.596 1.226-1.092 2.452-1.092 2.683 0 .265.596.53 1.423.663 1.788.298 3.046.961 4.834 2.517 2.152 1.922 3.013 1.789 4.536-.695.662-1.093 1.357-1.988 1.523-1.988.165 0 .232-.298.099-.662-.165-.497 0-.696.695-.861l.894-.232-.761-.563c-.563-.431-.695-.762-.563-1.392.232-.861 1.026-1.258 2.483-1.258 1.026 0 .927-.332-.497-1.524-.993-.861-1.158-1.16-.96-1.888.199-.828.364-.895 1.788-.895h1.556l-1.059-.861c-1.656-1.259-1.457-2.816.397-3.246l.993-.265-.761-.563c-.596-.431-.729-.762-.563-1.425.331-1.325 1.059-1.391 1.457-.165.827 2.55 2.383 9.606 2.748 12.322.397 3.313.86 4.207 1.622 3.28.993-1.193.662-7.056-.894-15.702l-.199-1.159 2.02.099c1.655.1 2.086.265 2.384.828.397.729.298.862-1.921 2.485-1.324.96-.695 1.391 1.921 1.391 2.019 0 2.317.066 2.218.563-.066.331-.596.895-1.159 1.292-1.192.795-1.093 1.126.232 1.126 1.622 0 2.979.398 2.979.895 0 .265-.364.828-.827 1.258l-.795.829h1.358c1.158 0 1.324.066 1.158.662-.132.497 0 .663.497.663.364 0 1.324.662 2.152 1.49.795.828 1.755 1.491 2.086 1.491.794 0 3.344-3.246 4.668-5.963 1.589-3.18 2.019-9.407.861-12.256-.166-.464-.431-2.584-.563-4.737-.166-2.319-.431-4.074-.662-4.372-.364-.431-.298-.663.43-1.425 1.225-1.292 1.556-2.418 1.788-5.995.132-2.584.463-4.075 1.788-7.983.894-2.65 1.721-5.764 1.821-6.957.231-2.385-.166-2.451-.861-.165-.53 1.755-1.656 3.743-2.218 3.942-.265.132-.828-.597-1.556-2.054-1.854-3.743-2.649-6.791-3.708-14.31-.927-6.625-2.649-12.19-5.099-16.496-.96-1.624-1.92-2.12-1.49-.729.331.994.265 7.983-.066 8.314-.199.199-.695-.199-1.324-1.093-1.258-1.789-5.827-6.261-8.873-8.745-3.741-3.014-10.661-7.884-14.203-9.904-1.821-1.06-4.768-2.849-6.589-4.009-3.873-2.451-4.999-2.881-10.495-3.776-2.284-.364-5.297-.927-6.687-1.225-2.152-.431-3.013-.464-5.562-.133-3.311.431-9.204 1.855-13.475 3.313-1.523.496-2.715.761-2.649.563.1-.199 1.556-2.518 3.278-5.168 1.721-2.65 4.006-6.227 5.098-7.983l1.954-3.18 2.45-.232c1.357-.099 3.509-.199 4.8-.199 2.417 0 3.046-.231 4.834-1.821.629-.564 1.39-.795 3.311-.928 1.357-.132 3.377-.53 4.469-.894 1.093-.365 7.516-2.319 14.236-4.34 19.6-5.83 20.163-6.062 23.672-9.242l1.159-1.026-1.821.132c-.993.099-4.105.928-6.919 1.888-5.496 1.855-6.324 1.888-6.953.232-.165-.431-.596-4.637-.993-9.374-1.093-13.714-1.126-15.5028-.53-18.6828.795-4.3725.96-5.8631.563-6.095-.166-.0993-.861.53-1.556 1.3913-1.258 1.6562-5.33 5.3-7.813 6.9562-1.821 1.2588-11.654 11.0307-17.018 16.9603-5.529 6.095-17.216 16.893-21.056 19.444l-1.258.828-5.893-.298c-3.245-.199-6.158-.431-6.456-.596-.53-.199-.596 0-.596 1.921v2.153l-1.722 1.524c-.927.828-2.748 1.987-4.039 2.584-5.463 2.55-11.422 5.598-13.408 6.89-3.609 2.352-16.852 8.745-26.652 12.918-1.821.762-4.436 1.624-5.794 1.855-6.091 1.16-7.681 1.856-10.495 4.506l-1.026.96-5.595-.265-5.595-.265 3.973-3.18c5.264-4.207 11.256-8.612 13.011-9.606.927-.497 2.052-1.623 3.112-3.048 1.92-2.683 3.443-3.511 8.078-4.538 2.483-.53 3.079-.795 3.807-1.656.927-1.093 1.49-1.325 7.913-3.014 4.337-1.16 9.072-2.021 9.767-1.756.563.232 1.688-.331 2.98-1.524.562-.497 2.615-1.755 4.635-2.815 4.171-2.154 17.149-9.938 21.453-12.82 2.947-1.987 4.999-4.174 6.887-7.387 1.589-2.749 1.522-2.749-3.576-.265l-3.907 1.888h-4.138c-4.503.034-6.622-.43-10.528-2.153-7.88-3.511-15.594-11.8253-21.057-22.7234-1.854-3.71-13.143-28.9512-16.851-37.6962-5.562-13.1175-7.582-19.0138-10.164-29.415-3.046-12.38877-4.735-16.59565-6.059-15.237523zm134.78 215.478123c.629.629.464 1.491-.331 1.689-.927.265-.96.199-.728-1.026.232-1.16.43-1.292 1.059-.663zm1.126 3.379c.43.629.298.894-.728 1.292-1.325.497-1.258.795.298 1.225 1.787.464 2.019 1.491.596 2.717-.596.496-1.225.894-1.424.927-.397 0-1.622-5.731-1.357-6.426.165-.398.496-.464 1.291-.298.596.099 1.192.364 1.324.563z" fill="url(#a)"/></g></svg>