<svg width="342" height="424" viewBox="0 0 342 424" fill="none" xmlns="http://www.w3.org/2000/svg">
<g clip-path="url(#clip0_14_4105)">
<path d="M182.985 0.231877C182.853 0.331252 182.753 3.34563 182.753 6.92313C182.72 14.1444 182.521 15.2375 180.436 18.6494C179.244 20.6369 178.681 21.2994 168.484 32.6613C155.142 47.6006 145.474 59.095 138.72 68.0719C124.617 86.8537 114.121 98.845 96.8725 116.103C85.5166 127.465 77.7695 134.587 69.5257 141.278C67.0758 143.299 63.0035 146.677 60.4874 148.831C57.9712 150.951 55.455 152.938 54.8922 153.236C53.9321 153.733 53.4686 153.733 48.8667 153.203C28.7042 150.951 21.553 149.924 13.3755 148.234C12.7133 148.069 12.2498 148.168 11.985 148.466C11.687 148.864 12.3491 149.427 15.6268 151.547C21.4206 155.29 26.5854 157.311 30.3265 157.344C30.8893 157.344 31.5846 157.576 31.8163 157.907C32.0812 158.205 33.7366 159.596 35.4913 161.054C37.2459 162.478 38.7689 163.77 38.8682 163.936C38.9675 164.101 38.173 165.228 37.0473 166.453C35.9548 167.679 35.1271 168.739 35.1933 168.838C35.2926 168.904 36.4183 168.441 37.7095 167.811C39.0006 167.149 40.5236 166.619 41.1526 166.619C42.2783 166.619 42.0134 166.453 54.2301 175.761C58.9975 179.405 60.4543 180.034 64.063 180.001C66.9102 179.968 69.5919 179.239 77.2729 176.324C79.4248 175.496 81.2789 174.966 81.4113 175.132C85.5828 181.061 88.3639 185.699 91.1118 191.297C97.1704 203.686 97.8326 212.265 93.032 216.77C92.1381 217.598 90.88 218.526 90.251 218.857C89.2578 219.321 87.1389 221.805 87.47 222.103C87.5362 222.136 89.5888 220.944 92.0719 219.453C94.5549 217.963 97.7664 216.24 99.19 215.611L101.805 214.484L110.082 214.518C125.577 214.584 138.687 216.704 152.228 221.308C157.062 222.964 165.074 226.409 165.405 226.973C165.537 227.138 165.173 227.768 164.61 228.331C163.054 229.987 157.36 237.274 154.082 241.813C142.859 257.315 134.085 272.884 128.291 287.525C125.312 295.044 119.981 302.696 112.565 310.05C104.553 318 95.2502 323.532 86.3443 325.586C80.1863 327.043 71.2142 327.043 64.2285 325.619C52.8065 323.3 42.7087 317.569 35.3257 309.222C23.2415 295.574 16.9511 274.673 16.8187 247.874L16.7855 240.322L18.1429 235.188C21.6523 221.673 26.0225 211.172 31.5515 202.858C34.167 198.916 38.7027 193.947 41.8479 191.562C43.9999 189.972 48.1052 187.819 49.0653 187.819C49.8268 187.819 50.3234 186.825 50.3234 185.235C50.3234 182.651 48.5356 182.32 43.6357 183.943C18.9044 192.224 4.07228 219.023 0.331142 262.085C-0.0992554 266.756 0.132497 270.201 1.4899 279.774C5.4959 307.698 14.8653 329.13 29.6312 344.003C41.252 355.729 55.8854 362.917 74.0614 365.899C80.8816 366.992 95.5813 366.892 101.971 365.667C104.587 365.17 113.095 362.255 116.638 360.665C132.761 353.411 148.123 341.154 162.061 324.459C164.941 321.047 170.338 313.992 171.629 311.938C171.96 311.441 172.49 311.044 172.788 311.044C173.086 311.044 174.807 311.905 176.628 312.932L179.939 314.853L181.396 317.702L182.886 320.551L181.363 322.306C179.343 324.625 178.251 326.679 177.423 329.826C176.827 332.012 176.695 333.502 176.628 339.2C176.562 346.156 176.297 348.177 175.138 350.462C174.178 352.317 172.887 353.377 170.934 353.974C166.001 355.431 165.239 357.982 167.888 364.242C170.57 370.636 171.43 374.842 171.662 383.124C171.861 390.212 172.622 394.982 173.715 395.877C174.013 396.142 174.145 397.069 174.145 398.659C174.145 401.342 174.774 403.86 175.734 404.92C176.397 405.649 177.456 409.359 177.456 410.982C177.456 411.479 177.588 412.108 177.754 412.373C177.986 412.737 178.151 412.506 178.416 411.545C178.913 409.657 179.442 406.212 179.509 404.191L179.608 402.436L181.859 404.191C184.74 406.477 186.594 409.392 186.064 410.849C185.468 412.605 185.667 414.725 186.561 416.249C187.256 417.408 187.355 417.905 187.19 419.263C187.057 420.124 186.66 421.482 186.296 422.244C185.534 423.834 185.733 424.397 186.726 423.503C188.15 422.211 189.077 419.429 190.533 412.34C192.255 403.959 192.321 404.423 188.216 400.316C183.713 395.811 183.084 394.717 181.892 389.55C181.462 387.629 181.396 385.509 181.495 377.393L181.594 367.522L183.217 363.547C185.038 359.009 187.587 353.941 189.706 350.761L191.129 348.541L192.818 349.038C195.036 349.667 200.863 352.45 203.578 354.172C204.77 354.901 207.286 356.69 209.14 358.114C212.417 360.665 212.583 360.731 214.338 360.731C215.364 360.731 217.251 360.532 218.575 360.334C220.463 360.002 220.959 360.002 221.092 360.334C221.257 360.864 222.913 361.725 223.74 361.725C224.071 361.725 224.634 362.023 224.965 362.387C225.793 363.315 227.779 364.507 228.011 364.242C228.342 363.944 227.415 361.46 226.389 359.837C225.892 359.042 225.462 358.181 225.462 357.916C225.462 357.651 225.098 357.187 224.634 356.889C224.171 356.591 223.806 356.193 223.806 356.027C223.806 355.564 226.521 351.787 227.481 350.926C227.912 350.529 228.806 350.131 229.435 350.032C230.428 349.899 230.759 350.032 231.686 350.992C232.514 351.854 233.043 352.119 233.937 352.119C234.964 352.119 235.46 352.45 237.414 354.338C239.499 356.359 239.698 356.458 239.698 355.696C239.698 353.51 238.043 350.595 234.864 347.15C233.772 345.991 233.209 345.162 233.507 345.162C233.772 345.162 234.169 344.931 234.401 344.666C234.765 344.235 234.931 344.301 235.626 345.328C236.718 346.951 237.381 347.216 239.864 346.951C241.949 346.719 242.082 346.752 243.042 347.68C243.605 348.21 244.432 349.27 244.896 350.065C246.055 352.019 246.551 351.39 245.657 349.071C244.598 346.189 242.777 343.837 240.36 342.281C239.201 341.486 237.943 340.492 237.546 340.028C236.917 339.2 236.685 339.167 233.54 339.101L230.163 339.034L228.475 340.624C227.217 341.817 226.587 342.181 226.19 341.982C225.892 341.85 224.369 341.618 222.846 341.486C221.323 341.32 219.337 340.956 218.476 340.691C217.582 340.392 215.96 340.028 214.867 339.862C212.55 339.531 203.644 335.324 201.525 333.569L200.267 332.509L201.823 329.627C204.074 325.453 207.286 320.617 209.305 318.431C210.299 317.371 211.788 315.383 212.649 313.992C214.834 310.447 214.801 309.917 211.855 304.75C203.876 290.672 202.651 286.598 203.015 274.871L203.114 271.029L208.312 265.729L213.477 260.429L217.549 259.899C224.469 258.971 231.719 257.713 233.97 257.017L236.122 256.354L242.314 260.329C250.557 265.596 255.788 268.743 259.033 270.366C261.45 271.592 261.946 271.724 264.164 271.724C266.515 271.724 266.614 271.758 267.21 272.751C267.541 273.314 267.939 274.308 268.038 274.938C268.137 275.567 268.601 276.461 269.064 276.925C269.495 277.389 270.488 278.78 271.249 280.039C272.011 281.298 272.839 282.391 273.07 282.49C274.064 282.821 273.004 276.163 271.514 272.884C270.951 271.658 270.488 270.565 270.488 270.466C270.488 270.366 270.985 270.3 271.58 270.3C273.037 270.3 276.149 269.472 277.738 268.644L279.03 268.014L279.228 269.008C279.328 269.538 279.99 270.565 280.685 271.228C281.612 272.122 282.109 273.016 282.44 274.209C282.936 276.263 283.499 276.263 283.764 274.242L283.93 272.784L284.36 273.778C284.592 274.308 284.857 275.865 284.956 277.157C285.055 278.482 285.287 279.575 285.419 279.575C286.578 279.575 286.744 273.513 285.717 269.671C285.022 267.021 284.823 264.172 285.386 264.503C285.585 264.603 285.717 265.133 285.717 265.663C285.717 267.12 286.015 267.584 287.505 268.611C288.962 269.638 289.69 271.36 289.69 273.778C289.69 274.971 290.121 275.335 290.485 274.408C290.584 274.109 290.683 272.751 290.683 271.36C290.683 269.273 290.452 268.147 289.425 265.166L288.167 261.522L285.85 260.296C284.592 259.601 283.334 259.038 283.036 259.038C282.771 259.038 282.175 259.402 281.744 259.866C281.182 260.462 280.619 260.694 279.758 260.694C279.096 260.694 277.01 260.926 275.09 261.224C271.183 261.82 264.297 261.588 262.112 260.826C260.423 260.23 258.47 258.673 256.848 256.619C255.888 255.361 255.656 254.897 255.987 254.698C256.781 254.201 258.106 254.4 259.728 255.261C261.814 256.354 267.508 257.547 267.508 256.884C267.508 256.752 267.21 256.123 266.813 255.526C266.085 254.301 260.456 250.094 259.596 250.094C259.298 250.094 259.728 249.431 260.787 248.338C261.714 247.411 262.708 246.119 263.039 245.523C263.569 244.463 263.635 244.429 264.959 244.661C266.018 244.827 266.681 245.224 267.707 246.351C268.667 247.378 269.329 247.808 269.859 247.775C271.283 247.643 271.514 247.775 273.501 249.663C275.388 251.452 275.454 251.485 275.454 250.624C275.454 249.431 273.766 246.185 272.044 244.065C271.249 243.071 270.488 241.912 270.389 241.481C270.256 241.018 269.66 239.858 268.998 238.898C268.369 237.904 267.839 237.043 267.839 236.943C267.839 236.877 268.17 236.844 268.568 236.91C268.998 236.976 269.561 237.539 269.991 238.301C270.885 239.924 271.978 240.521 273.501 240.289C275.189 240.057 276.58 241.249 277.341 243.668C277.639 244.661 278.003 245.456 278.169 245.456C278.599 245.456 278.467 242.707 277.937 240.918C277.606 239.792 276.845 238.599 275.686 237.308C274.759 236.214 273.401 234.558 272.706 233.631C271.283 231.676 270.653 231.411 266.449 231.08C264.065 230.881 263.9 230.914 263.304 231.643C262.741 232.372 262.509 232.438 260.821 232.273C259.132 232.14 258.801 232.239 257.907 232.968C257.377 233.432 256.583 233.929 256.186 234.028C255.755 234.161 254.696 235.022 253.769 235.983C251.617 238.202 248.935 239.527 246.253 239.726L244.168 239.891L241.784 236.778C240.493 235.088 238.97 233.266 238.44 232.769C237.546 231.908 237.513 231.776 237.844 230.451C238.043 229.623 238.937 228.132 239.897 226.906C243.572 222.302 245.161 218.592 245.823 213.226C246.088 211.172 246.452 208.82 246.617 208.025C246.816 207.197 246.982 205.839 246.982 205.011C246.982 203.752 247.28 202.99 248.736 200.704C256.682 188.018 267.641 178.345 276.613 176.059C280.851 174.999 285.585 175.596 289.657 177.716C294.954 180.498 300.185 187.123 298.596 189.011C298.232 189.442 297.702 189.475 295.418 189.309L292.67 189.078V189.972C292.67 190.469 293.365 192.589 294.193 194.709C295.749 198.618 297.173 203.619 296.841 203.951C296.577 204.216 294.392 202.791 293.829 201.963L293.332 201.268V202.063C293.365 203.288 294.425 205.474 295.815 206.998C297.173 208.489 297.272 208.787 298.166 215.379C298.596 218.36 298.762 221.838 298.762 228.397L298.795 237.341L297.735 239.626C297.139 240.852 296.643 242.078 296.643 242.309C296.643 242.574 297.239 242.839 298.066 242.972C299.854 243.27 301.112 243.933 302.9 245.489C305.052 247.411 305.913 247.278 307.436 244.794C308.098 243.701 308.793 242.806 308.959 242.806C309.124 242.806 309.191 242.508 309.058 242.144C308.893 241.647 309.058 241.448 309.753 241.283L310.647 241.051L309.886 240.488C309.323 240.057 309.191 239.726 309.323 239.096C309.555 238.235 310.349 237.838 311.806 237.838C312.832 237.838 312.733 237.506 311.309 236.314C310.316 235.453 310.151 235.154 310.349 234.426C310.548 233.598 310.713 233.531 312.137 233.531H313.693L312.634 232.67C310.978 231.411 311.177 229.854 313.031 229.424L314.024 229.159L313.263 228.596C312.667 228.165 312.534 227.834 312.7 227.171C313.031 225.846 313.759 225.78 314.157 227.006C314.984 229.556 316.54 236.612 316.905 239.328C317.302 242.641 317.765 243.535 318.527 242.608C319.52 241.415 319.189 235.552 317.633 226.906L317.434 225.747L319.454 225.846C321.109 225.946 321.54 226.111 321.838 226.674C322.235 227.403 322.136 227.536 319.917 229.159C318.593 230.119 319.222 230.55 321.838 230.55C323.857 230.55 324.155 230.616 324.056 231.113C323.99 231.444 323.46 232.008 322.897 232.405C321.705 233.2 321.804 233.531 323.129 233.531C324.751 233.531 326.108 233.929 326.108 234.426C326.108 234.691 325.744 235.254 325.281 235.684L324.486 236.513H325.844C327.002 236.513 327.168 236.579 327.002 237.175C326.87 237.672 327.002 237.838 327.499 237.838C327.863 237.838 328.823 238.5 329.651 239.328C330.446 240.156 331.406 240.819 331.737 240.819C332.531 240.819 335.081 237.573 336.405 234.856C337.994 231.676 338.424 225.449 337.266 222.6C337.1 222.136 336.835 220.016 336.703 217.863C336.537 215.544 336.272 213.789 336.041 213.491C335.677 213.06 335.743 212.828 336.471 212.066C337.696 210.774 338.027 209.648 338.259 206.071C338.391 203.487 338.722 201.996 340.047 198.088C340.941 195.438 341.768 192.324 341.868 191.131C342.099 188.746 341.702 188.68 341.007 190.966C340.477 192.721 339.351 194.709 338.789 194.908C338.524 195.04 337.961 194.311 337.233 192.854C335.379 189.111 334.584 186.063 333.525 178.544C332.598 171.919 330.876 166.354 328.426 162.048C327.466 160.424 326.506 159.928 326.936 161.319C327.267 162.313 327.201 169.302 326.87 169.633C326.671 169.832 326.175 169.434 325.546 168.54C324.288 166.751 319.719 162.279 316.673 159.795C312.932 156.781 306.012 151.911 302.47 149.891C300.649 148.831 297.702 147.042 295.881 145.882C292.008 143.431 290.882 143.001 285.386 142.106C283.102 141.742 280.089 141.179 278.699 140.881C276.547 140.45 275.686 140.417 273.137 140.748C269.826 141.179 263.933 142.603 259.662 144.061C258.139 144.557 256.947 144.822 257.013 144.624C257.113 144.425 258.569 142.106 260.291 139.456C262.012 136.806 264.297 133.229 265.389 131.473L267.343 128.293L269.793 128.061C271.15 127.962 273.302 127.862 274.593 127.862C277.01 127.862 277.639 127.631 279.427 126.041C280.056 125.477 280.817 125.246 282.738 125.113C284.095 124.981 286.115 124.583 287.207 124.219C288.3 123.854 294.723 121.9 301.443 119.879C321.043 114.049 321.606 113.817 325.115 110.637L326.274 109.611L324.453 109.743C323.46 109.842 320.348 110.671 317.534 111.631C312.038 113.486 311.21 113.519 310.581 111.863C310.416 111.432 309.985 107.226 309.588 102.489C308.495 88.775 308.462 86.9862 309.058 83.8062C309.853 79.4337 310.018 77.9431 309.621 77.7112C309.455 77.6119 308.76 78.2412 308.065 79.1025C306.807 80.7587 302.735 84.4025 300.252 86.0587C298.431 87.3175 288.598 97.0894 283.234 103.019C277.705 109.114 266.018 119.912 262.178 122.463L260.92 123.291L255.027 122.993C251.782 122.794 248.869 122.562 248.571 122.397C248.041 122.198 247.975 122.397 247.975 124.318V126.471L246.253 127.995C245.326 128.823 243.505 129.982 242.214 130.579C236.751 133.129 230.792 136.177 228.806 137.469C225.197 139.821 211.954 146.214 202.154 150.387C200.333 151.149 197.718 152.011 196.36 152.242C190.269 153.402 188.679 154.098 185.865 156.748L184.839 157.708L179.244 157.443L173.649 157.178L177.622 153.998C182.886 149.791 188.878 145.386 190.633 144.392C191.56 143.895 192.685 142.769 193.745 141.344C195.665 138.661 197.188 137.833 201.823 136.806C204.306 136.276 204.902 136.011 205.63 135.15C206.557 134.057 207.12 133.825 213.543 132.136C217.88 130.976 222.615 130.115 223.31 130.38C223.873 130.612 224.998 130.049 226.29 128.856C226.852 128.359 228.905 127.101 230.925 126.041C235.096 123.887 248.074 116.103 252.378 113.221C255.325 111.234 257.377 109.047 259.265 105.834C260.854 103.085 260.787 103.085 255.689 105.569L251.782 107.457H247.644C243.141 107.491 241.022 107.027 237.116 105.304C229.236 101.793 221.522 93.4787 216.059 82.5806C214.205 78.8706 202.916 53.6294 199.208 44.8844C193.646 31.7669 191.626 25.8706 189.044 15.4694C185.998 3.08063 184.309 -1.12625 182.985 0.231877ZM317.765 215.71C318.394 216.339 318.229 217.201 317.434 217.399C316.507 217.664 316.474 217.598 316.706 216.373C316.938 215.213 317.136 215.081 317.765 215.71ZM318.891 219.089C319.321 219.718 319.189 219.983 318.163 220.381C316.838 220.878 316.905 221.176 318.461 221.606C320.248 222.07 320.48 223.097 319.057 224.323C318.461 224.819 317.832 225.217 317.633 225.25C317.236 225.25 316.011 219.519 316.276 218.824C316.441 218.426 316.772 218.36 317.567 218.526C318.163 218.625 318.759 218.89 318.891 219.089Z" fill="url(#paint0_radial_14_4105)"/>
</g>
<defs>
<radialGradient id="paint0_radial_14_4105" cx="0" cy="0" r="1" gradientUnits="userSpaceOnUse" gradientTransform="translate(291 241.5) rotate(-174.526) scale(324.982 262.014)">
<stop offset="0.200217" stop-color="#4B021C"/>
<stop offset="0.596057" stop-color="#4C14C4"/>
<stop offset="1" stop-color="#FC2AE7"/>
</radialGradient>
<clipPath id="clip0_14_4105">
<rect width="342" height="424" fill="white"/>
</clipPath>
</defs>
</svg>
