<svg width="250" height="354" viewBox="0 0 250 354" fill="none" xmlns="http://www.w3.org/2000/svg">
<path d="M145.428 121.393C143.412 121.402 141.562 121.402 139.53 121.402C139.403 119.855 139.185 118.524 139.202 117.195C139.265 112.191 139.08 107.154 139.601 102.193C140.202 96.475 142.961 91.5094 147.614 88.1496C162.06 77.7186 176.68 67.5275 191.251 57.2691C201.24 50.2368 211.258 43.2466 221.266 36.2422C221.674 35.9569 222.115 35.72 223.011 35.1738C222.33 37.81 221.76 39.985 221.206 42.1638C217.567 56.4634 213.92 70.7609 210.305 85.0665C209.527 88.1426 208.888 91.2535 208.122 94.3327C208.059 94.5886 207.479 94.9291 207.192 94.8846C203.004 94.2352 198.826 93.5226 194.644 92.8349C193.002 92.5649 191.356 92.3192 189.484 92.0267C193.928 81.988 198.244 72.2394 202.738 62.087C199.305 64.6777 196.142 66.9584 193.094 69.3828C183.574 76.9544 174.091 84.5729 164.607 92.19C161.929 94.3405 159.052 96.3162 156.712 98.7932C154.134 101.522 152.058 104.728 149.788 107.745C149.194 108.534 148.693 109.394 148.15 110.221C148.234 110.36 148.318 110.499 148.402 110.638C152.475 107.843 156.547 105.048 160.889 102.067C160.013 108.681 159.16 115.123 158.332 121.383C154.009 121.383 149.802 121.383 145.428 121.393Z" fill="#172554"/>
<path d="M100.995 109.968C98.3382 104.427 94.7839 99.6549 89.8225 95.8831C84.3172 91.6978 79.046 87.2058 73.6363 82.8932C66.5798 77.2677 59.4911 71.6825 52.4077 66.0909C50.6336 64.6904 48.8267 63.3315 46.7474 61.7324C51.3707 72.0621 55.8328 82.0317 60.3314 92.083C56.1776 92.7763 52.236 93.4464 48.2896 94.0874C46.5125 94.376 44.7301 94.6475 42.9401 94.8268C42.6013 94.8607 41.963 94.4872 41.8881 94.1933C40.1102 87.2155 38.4438 80.209 36.6484 73.2358C33.4664 60.877 30.2121 48.5369 26.9947 36.1873C26.9688 36.0879 27.0352 35.9644 27.1296 35.5098C29.0207 36.7531 30.8357 37.8918 32.5944 39.1116C43.1993 46.467 53.8227 53.7965 64.3793 61.2207C76.0549 69.4318 87.674 77.7234 99.2996 86.0053C103.204 88.7867 106.766 92.0112 108.596 96.5136C109.667 99.1494 110.267 102.11 110.415 104.959C110.695 110.353 110.496 115.772 110.496 121.452C104.197 121.452 98.0649 121.452 91.6799 121.452C90.8062 115.22 89.9043 108.787 88.9407 101.913C93.0204 104.815 96.7799 107.489 100.716 110.328C101.055 110.519 101.218 110.546 101.381 110.573C101.253 110.371 101.124 110.169 100.995 109.968Z" fill="#172554"/>
<path d="M125.282 0.133235C129.948 15.6532 134.592 31.0395 139.147 46.4521C141.759 55.2899 144.254 64.1627 146.71 73.0451C146.914 73.7836 146.687 74.9375 146.204 75.522C142.958 79.4532 139.588 83.2826 135.943 87.5115C132.231 74.5674 128.652 62.0843 125.072 49.6013C124.959 49.6044 124.845 49.6075 124.731 49.6106C121.206 61.9346 117.68 74.2587 114.085 86.823C113.538 86.3232 113.147 86.0142 112.812 85.6536C109.647 82.2474 106.467 78.8535 103.364 75.3911C103.005 74.9902 102.845 74.1267 102.997 73.5927C106.694 60.605 110.42 47.6258 114.194 34.6604C117.416 23.5916 120.684 12.5361 124.033 1.50558C124.163 1.07671 123.684 -0.456389 125.282 0.133235Z" fill="#172554"/>
<path d="M161.136 154.595C146.483 154.339 132.001 154.071 117.518 153.849C113.692 153.79 109.859 153.779 106.035 153.912C97.4572 154.211 88.8726 154.456 80.3103 155.021C73.0816 155.498 65.8801 156.389 58.6676 157.108C56.5774 157.316 54.4948 157.609 52.4018 157.78C50.3972 157.942 48.7595 157.051 47.9575 155.292C47.0525 153.308 47.2128 151.251 48.6228 149.391C50.5144 146.895 53.3486 146.835 56.0333 146.488C61.0147 145.843 66.0094 145.297 71.0039 144.76C73.7967 144.459 76.5958 144.174 79.3996 144.028C89.2602 143.512 99.1197 142.835 108.988 142.641C120.302 142.418 131.627 142.58 142.945 142.7C148.942 142.764 154.943 142.967 160.929 143.334C168.363 143.79 175.794 144.368 183.206 145.107C188.181 145.603 193.127 146.421 198.072 147.187C201.198 147.672 203.369 151.845 201.992 155.19C201.06 157.454 198.586 158.265 195.347 157.74C191.674 157.145 187.961 156.78 184.258 156.387C179.546 155.887 174.83 155.407 170.108 155.021C167.182 154.782 164.241 154.733 161.136 154.595Z" fill="#172554"/>
<path d="M61.3358 124.88C57.2048 125.425 53.2345 125.968 49.0265 126.543C48.2865 122.921 47.5503 119.261 46.7892 115.607C46.094 112.27 45.3453 108.943 44.7003 105.596C44.6313 105.238 45.0414 104.46 45.3241 104.409C50.3434 103.516 55.3777 102.707 60.4078 101.874C61.0942 101.76 61.7754 101.615 62.7186 101.434C63.9991 108.96 65.2685 116.42 66.591 124.193C64.8618 124.425 63.1792 124.651 61.3358 124.88Z" fill="#172554"/>
<path d="M204.618 109.623C203.358 115.302 202.111 120.829 200.801 126.636C198.861 126.369 196.77 126.08 194.678 125.795C191.508 125.363 188.343 124.897 185.167 124.524C183.916 124.377 183.236 124.361 183.595 122.587C184.761 116.843 185.712 111.05 186.549 105.247C187.098 101.445 186.936 101.475 190.838 102.176C195.186 102.958 199.555 103.625 203.912 104.364C204.472 104.459 205.01 104.683 205.607 104.862C205.272 106.443 204.951 107.958 204.618 109.623Z" fill="#172554"/>
<path d="M92.4911 42.3204C97.9073 46.7622 95.573 53.9179 91.567 56.1958C88.5349 57.9199 84.4782 57.4878 81.6556 55.1037C79.2535 53.0748 78.4843 49.0519 79.853 45.676C81.1324 42.5205 84.4307 40.3327 87.868 40.7149C89.4133 40.8868 90.8864 41.7075 92.4911 42.3204Z" fill="#172554"/>
<path d="M163.106 57.2337C157.611 57.2649 154.059 53.4119 154.106 48.9095C154.158 43.8417 158.113 40.6001 162.691 40.6615C166.663 40.7147 170.38 44.2344 170.68 47.964C171.083 52.9707 167.588 56.7533 163.914 56.9714C163.691 56.9846 163.476 57.1292 163.106 57.2337Z" fill="#172554"/>
<path d="M46.0949 204.204V230.781C46.0949 231.818 46.4936 232.48 47.291 232.767C48.1043 233.038 48.511 233.373 48.511 233.772C48.511 234.106 48.3436 234.274 48.0087 234.274H39.8992C39.5643 234.274 39.3969 234.106 39.3969 233.772C39.3969 233.373 39.7956 233.038 40.593 232.767C41.3904 232.48 41.789 231.818 41.789 230.781V205.161L27.9863 234.992H27.0533L13.3941 206.286V230.781C13.3941 231.818 13.7928 232.48 14.5902 232.767C15.3876 233.038 15.7863 233.373 15.7863 233.772C15.7863 234.106 15.6188 234.274 15.2839 234.274H9.20785C8.87294 234.274 8.70549 234.106 8.70549 233.772C8.70549 233.373 9.10419 233.038 9.90157 232.767C10.699 232.48 11.0977 231.818 11.0977 230.781V204.204C11.0977 203.184 10.699 202.53 9.90157 202.243C9.10419 201.956 8.70549 201.605 8.70549 201.19C8.70549 200.855 8.87294 200.688 9.20785 200.688H15.571L28.6561 227.528L41.3345 200.688H48.0087C48.3436 200.688 48.511 200.855 48.511 201.19C48.511 201.605 48.1043 201.956 47.291 202.243C46.4936 202.53 46.0949 203.184 46.0949 204.204ZM71.1887 200.138C71.9861 202.02 72.9668 204.324 74.131 207.051C75.3112 209.778 76.5232 212.585 77.7671 215.472C79.027 218.358 80.239 221.165 81.4032 223.892C82.5833 226.619 83.5801 228.915 84.3934 230.781C84.6326 231.371 85.1031 231.906 85.8048 232.384C86.1716 232.623 86.5304 232.823 86.8812 232.982C87.248 233.142 87.5431 233.293 87.7663 233.437C87.9258 233.548 88.0295 233.66 88.0773 233.772C88.1092 233.835 88.1252 233.899 88.1252 233.963C88.1252 234.011 88.1092 234.067 88.0773 234.13C88.0295 234.226 87.9338 234.274 87.7903 234.274H79.7048C79.5612 234.274 79.4177 234.226 79.2742 234.13C79.1147 234.019 79.019 233.899 78.9871 233.772C78.9552 233.724 78.9393 233.676 78.9393 233.628C78.9393 233.485 79.035 233.333 79.2263 233.174C79.3699 233.03 79.5453 232.879 79.7526 232.719C79.9599 232.56 80.1114 232.344 80.2071 232.073C80.255 231.946 80.2789 231.802 80.2789 231.643C80.2789 231.371 80.2151 231.076 80.0875 230.757L76.5471 222.576H62.6008C62.0267 223.948 61.4526 225.319 60.8785 226.691C60.3203 228.046 59.7542 229.402 59.18 230.757C59.0365 231.076 58.9568 231.363 58.9408 231.619C58.9249 231.73 58.9169 231.842 58.9169 231.954C58.9169 232.113 58.9408 232.265 58.9887 232.408C59.0365 232.615 59.1162 232.791 59.2279 232.934C59.3395 233.062 59.4193 233.197 59.4671 233.341C59.483 233.469 59.491 233.556 59.491 233.604C59.491 233.652 59.4751 233.708 59.4432 233.772C59.3315 234.106 59.1561 234.274 58.9169 234.274H52.7451C52.5857 234.274 52.474 234.226 52.4102 234.13C52.4102 234.114 52.3943 234.075 52.3624 234.011C52.3624 233.979 52.3783 233.899 52.4102 233.772C52.5059 233.564 52.777 233.357 53.2236 233.15C53.4628 233.038 53.7179 232.918 53.9891 232.791C54.2761 232.647 54.5632 232.48 54.8502 232.288C55.4403 231.874 55.8709 231.371 56.142 230.781L69.7055 200.138H71.1887ZM75.7099 220.639L69.4663 206.07C68.4457 208.51 67.425 210.942 66.4044 213.366C65.3996 215.791 64.3949 218.215 63.3902 220.639H75.7099ZM99.6793 216.428L112.19 204.587C113.434 203.423 114.487 202.418 115.348 201.573C115.922 200.999 116.496 200.712 117.07 200.712C117.357 200.712 117.644 200.784 117.931 200.927L120.467 202.171C120.738 202.331 120.874 202.522 120.874 202.745C120.874 202.841 120.85 202.945 120.802 203.056L119.558 206.549L117.908 205.855C117.286 205.6 116.711 205.472 116.185 205.472C115.356 205.472 114.63 205.783 114.008 206.405L104.368 215.806L122.357 232.408C122.692 232.743 123.043 232.998 123.409 233.174C123.792 233.333 123.984 233.532 123.984 233.772C123.984 234.106 123.824 234.274 123.505 234.274H115.396C115.061 234.274 114.893 234.106 114.893 233.772C114.893 233.644 114.981 233.5 115.157 233.341C115.444 233.102 115.603 232.886 115.635 232.695V232.671C115.635 232.464 115.348 232.113 114.774 231.619L99.6793 217.696V230.781C99.6793 231.818 100.078 232.48 100.875 232.767C101.673 233.038 102.071 233.373 102.071 233.772C102.071 234.106 101.912 234.274 101.593 234.274H93.4836C93.1487 234.274 92.9812 234.106 92.9812 233.772C92.9812 233.373 93.3799 233.038 94.1773 232.767C94.9747 232.48 95.3734 231.818 95.3734 230.781V204.204C95.3734 203.184 94.9747 202.53 94.1773 202.243C93.3799 201.956 92.9812 201.605 92.9812 201.19C92.9812 200.855 93.1487 200.688 93.4836 200.688H101.593C101.912 200.688 102.071 200.855 102.071 201.19C102.071 201.605 101.673 201.956 100.875 202.243C100.078 202.53 99.6793 203.184 99.6793 204.204V216.428ZM135.299 232.025H145.513C146.996 232.025 148.248 231.459 149.269 230.327C150.305 229.179 151.087 228.286 151.613 227.648C151.9 227.297 152.123 227.121 152.283 227.121C152.618 227.121 152.785 227.289 152.785 227.624C152.785 227.831 152.769 227.998 152.737 228.126L150.991 234.274H129.007C128.72 234.274 128.577 234.106 128.577 233.772C128.577 233.373 128.975 233.038 129.773 232.767C130.57 232.48 130.969 231.818 130.969 230.781V204.204C130.969 203.168 130.57 202.514 129.773 202.243C128.975 201.956 128.577 201.605 128.577 201.19C128.577 200.855 128.744 200.688 129.079 200.688H151.278V206.836C151.278 207.171 151.111 207.338 150.776 207.338C150.616 207.338 150.321 207.019 149.891 206.381C149.093 205.281 148.4 204.428 147.81 203.822C147.235 203.216 146.47 202.913 145.513 202.913H135.299V215.902H140.777C141.797 215.902 142.467 215.495 142.786 214.682C143.105 213.853 143.472 213.438 143.886 213.438C144.205 213.438 144.365 213.606 144.365 213.941V220.017C144.365 220.352 144.205 220.519 143.886 220.519C143.472 220.519 143.081 220.112 142.714 219.299C142.347 218.486 141.654 218.079 140.633 218.079H135.299V232.025ZM208.57 204.204V230.781C208.57 231.818 208.969 232.48 209.766 232.767C210.58 233.038 210.986 233.373 210.986 233.772C210.986 234.106 210.819 234.274 210.484 234.274H202.375C202.04 234.274 201.872 234.106 201.872 233.772C201.872 233.373 202.271 233.038 203.068 232.767C203.866 232.48 204.264 231.818 204.264 230.781V205.161L190.462 234.992H189.529L175.87 206.286V230.781C175.87 231.818 176.268 232.48 177.066 232.767C177.863 233.038 178.262 233.373 178.262 233.772C178.262 234.106 178.094 234.274 177.759 234.274H171.683C171.348 234.274 171.181 234.106 171.181 233.772C171.181 233.373 171.58 233.038 172.377 232.767C173.174 232.48 173.573 231.818 173.573 230.781V204.204C173.573 203.184 173.174 202.53 172.377 202.243C171.58 201.956 171.181 201.605 171.181 201.19C171.181 200.855 171.348 200.688 171.683 200.688H178.046L191.131 227.528L203.81 200.688H210.484C210.819 200.688 210.986 200.855 210.986 201.19C210.986 201.605 210.58 201.956 209.766 202.243C208.969 202.53 208.57 203.184 208.57 204.204ZM224.048 232.025H234.262C235.745 232.025 236.997 231.459 238.018 230.327C239.054 229.179 239.836 228.286 240.362 227.648C240.649 227.297 240.872 227.121 241.032 227.121C241.367 227.121 241.534 227.289 241.534 227.624C241.534 227.831 241.518 227.998 241.486 228.126L239.74 234.274H217.756C217.469 234.274 217.326 234.106 217.326 233.772C217.326 233.373 217.724 233.038 218.522 232.767C219.319 232.48 219.718 231.818 219.718 230.781V204.204C219.718 203.168 219.319 202.514 218.522 202.243C217.724 201.956 217.326 201.605 217.326 201.19C217.326 200.855 217.493 200.688 217.828 200.688H240.027V206.836C240.027 207.171 239.86 207.338 239.525 207.338C239.365 207.338 239.07 207.019 238.64 206.381C237.842 205.281 237.149 204.428 236.559 203.822C235.984 203.216 235.219 202.913 234.262 202.913H224.048V215.902H229.526C230.546 215.902 231.216 215.495 231.535 214.682C231.854 213.853 232.221 213.438 232.635 213.438C232.954 213.438 233.114 213.606 233.114 213.941V220.017C233.114 220.352 232.954 220.519 232.635 220.519C232.221 220.519 231.83 220.112 231.463 219.299C231.096 218.486 230.403 218.079 229.382 218.079H224.048V232.025Z" fill="#172554"/>
<path d="M25.1512 330.054H47.0836C49.9933 330.054 52.5394 328.836 54.7217 326.399C56.9404 323.962 58.6498 322.016 59.8501 320.561C60.7958 319.434 61.6869 318.87 62.5235 318.87C64.1966 318.87 65.0331 319.616 65.0331 321.107C65.0331 321.652 64.9786 322.107 64.8695 322.471L60.6685 337.365H9.43853C7.87454 337.365 7.09254 336.619 7.09254 335.128C7.09254 333.746 8.00184 332.746 9.82044 332.128C11.639 331.473 12.5483 330.2 12.5483 328.308V267.695C12.5483 265.803 11.639 264.548 9.82044 263.93C8.00184 263.275 7.09254 262.239 7.09254 260.82C7.09254 259.329 7.9291 258.583 9.60221 258.583H61.596V273.696C61.596 275.187 60.7594 275.933 59.0863 275.933C58.177 275.933 57.104 275.023 55.8674 273.205C54.0852 270.732 52.6121 268.895 51.4482 267.695C50.2843 266.458 48.8294 265.84 47.0836 265.84H25.1512V293.282H36.2811C37.9542 293.282 39.1545 292.355 39.8819 290.5C40.6093 288.608 41.7732 287.663 43.3736 287.663C45.0103 287.663 45.8287 288.408 45.8287 289.9V303.757C45.8287 305.249 45.0103 305.994 43.3736 305.994C41.8096 305.994 40.6093 305.067 39.7728 303.212C38.9362 301.357 37.6632 300.429 35.9537 300.429H25.1512V330.054ZM92.2576 328.308C92.2576 330.2 93.1669 331.473 94.9855 332.128C96.8041 332.746 97.7134 333.746 97.7134 335.128C97.7134 336.619 96.895 337.365 95.2583 337.365H76.7631C75.09 337.365 74.2534 336.619 74.2534 335.128C74.2534 333.746 75.1445 332.746 76.9268 332.128C78.709 331.473 79.6001 330.2 79.6001 328.308L79.7092 267.695C79.7092 265.84 78.7999 264.585 76.9813 263.93C75.1627 263.275 74.2534 262.239 74.2534 260.82C74.2534 259.329 75.09 258.583 76.7631 258.583H108.952C112.88 258.583 116.991 259.293 121.282 260.711C125.611 262.093 128.975 264.839 131.376 268.949C133.194 272.186 134.104 276.042 134.104 280.516C134.031 284.808 132.794 288.681 130.394 292.137C128.284 295.119 125.302 297.338 121.446 298.793C117.591 300.247 114.081 300.975 110.916 300.975H92.2576V328.308ZM92.2576 265.294V294.974H103.551C105.915 294.974 108.279 294.646 110.644 293.991C113.044 293.3 115.099 292.1 116.809 290.391C119.5 287.808 120.846 284.335 120.846 279.97C120.846 275.787 119.446 272.314 116.645 269.549C113.699 266.712 109.698 265.294 104.642 265.294H92.2576ZM160.946 267.695V328.254C160.946 330.182 161.855 331.473 163.674 332.128C165.493 332.746 166.402 333.746 166.402 335.128C166.402 336.619 165.565 337.365 163.892 337.365H145.397C143.76 337.365 142.942 336.619 142.942 335.128C142.942 333.746 143.851 332.746 145.67 332.128C147.488 331.473 148.398 330.2 148.398 328.308V267.695C148.398 265.803 147.488 264.548 145.67 263.93C143.851 263.275 142.942 262.239 142.942 260.82C142.942 259.329 143.779 258.583 145.452 258.583H163.892C165.565 258.583 166.402 259.329 166.402 260.82C166.402 262.239 165.493 263.275 163.674 263.93C161.855 264.548 160.946 265.803 160.946 267.695ZM219.76 339.384C208.23 339.384 198.009 335.71 189.098 328.363C180.223 321.016 175.786 310.904 175.786 298.029C175.786 285.48 180.096 275.405 188.716 267.804C197.373 260.166 207.72 256.346 219.76 256.346C224.052 256.346 228.616 256.837 233.454 257.82C238.328 258.765 243.165 260.766 247.966 263.821L246.602 275.933C246.311 277.206 245.493 277.842 244.147 277.842H243.929C242.91 277.77 242.037 277.024 241.31 275.605C239.055 270.804 236.291 267.622 233.017 266.058C229.744 264.494 225.325 263.712 219.76 263.712C212.049 263.712 205.156 266.422 199.082 271.841C193.008 277.224 189.971 285.953 189.971 298.029C189.971 305.74 192.826 313.178 198.537 320.343C204.247 327.472 211.339 331.236 219.814 331.636C220.687 331.673 221.505 331.691 222.269 331.691C226.67 331.691 230.289 331.036 233.126 329.727C236.327 328.199 239.055 325.017 241.31 320.179C242.001 318.87 242.856 318.124 243.874 317.942H244.256C245.602 317.942 246.384 318.597 246.602 319.907L246.766 321.434L241.801 335.346C237.836 336.983 233.999 338.056 230.289 338.565C226.579 339.111 223.069 339.384 219.76 339.384Z" fill="#172554"/>
</svg>
