<svg fill="none" height="354" viewBox="0 0 250 354" width="250" xmlns="http://www.w3.org/2000/svg"><g fill="#011a46"><path d="m145.428 121.393c-2.016.009-3.866.009-5.898.009-.127-1.547-.345-2.878-.328-4.207.063-5.004-.122-10.041.399-15.002.601-5.718 3.36-10.6836 8.013-14.0434 14.446-10.431 29.066-20.6221 43.637-30.8805 9.989-7.0323 20.007-14.0225 30.015-21.0269.408-.2853.849-.5222 1.745-1.0684-.681 2.6362-1.251 4.8112-1.805 6.99-3.639 14.2996-7.286 28.5971-10.901 42.9027-.778 3.0761-1.417 6.187-2.183 9.2662-.063.2559-.643.5964-.93.5519-4.188-.6494-8.366-1.362-12.548-2.0497-1.642-.27-3.288-.5157-5.16-.8082 4.444-10.0387 8.76-19.7873 13.254-29.9397-3.433 2.5907-6.596 4.8714-9.644 7.2958-9.52 7.5716-19.003 15.1901-28.487 22.8072-2.678 2.1505-5.555 4.1262-7.895 6.6032-2.578 2.7288-4.654 5.9348-6.924 8.9518-.594.789-1.095 1.649-1.638 2.476.084.139.168.278.252.417 4.073-2.795 8.145-5.59 12.487-8.571-.876 6.614-1.729 13.056-2.557 19.316-4.323 0-8.53 0-12.904.01z"/><path d="m100.995 109.968c-2.6568-5.541-6.2111-10.3131-11.1725-14.0849-5.5053-4.1853-10.7765-8.6773-16.1862-12.9899-7.0565-5.6255-14.1452-11.2107-21.2286-16.8023-1.7741-1.4005-3.581-2.7594-5.6603-4.3585 4.6233 10.3297 9.0854 20.2993 13.584 30.3506-4.1538.6933-8.0954 1.3634-12.0418 2.0044-1.7771.2886-3.5595.5601-5.3495.7394-.3388.0339-.9771-.3396-1.052-.6335-1.7779-6.9778-3.4443-13.9843-5.2397-20.9575-3.182-12.3588-6.4363-24.6989-9.6537-37.0485-.0259-.0994.0405-.2229.1349-.6775 1.8911 1.2433 3.7061 2.382 5.4648 3.6018 10.6049 7.3554 21.2283 14.6849 31.7849 22.1091 11.6756 8.2111 23.2947 16.5027 34.9203 24.7846 3.9044 2.7814 7.4664 6.0059 9.2964 10.5083 1.071 2.6358 1.671 5.5964 1.819 8.4454.28 5.394.081 10.813.081 16.493-6.299 0-12.4311 0-18.8161 0-.8737-6.232-1.7756-12.665-2.7392-19.539 4.0797 2.902 7.8392 5.576 11.7753 8.415.339.191.502.218.665.245-.128-.202-.257-.404-.386-.605z"/><path d="m125.282.133235c4.666 15.519965 9.31 30.906265 13.865 46.318865 2.612 8.8378 5.107 17.7106 7.563 26.593.204.7385-.023 1.8924-.506 2.4769-3.246 3.9312-6.616 7.7606-10.261 11.9895-3.712-12.9441-7.291-25.4272-10.871-37.9102-.113.0031-.227.0062-.341.0093-3.525 12.324-7.051 24.6481-10.646 37.2124-.547-.4998-.938-.8088-1.273-1.1694-3.165-3.4062-6.345-6.8001-9.448-10.2625-.359-.4009-.519-1.2644-.367-1.7984 3.697-12.9877 7.423-25.9669 11.197-38.9323 3.222-11.0688 6.49-22.1243 9.839-33.15482.13-.42887-.349-1.961969 1.249-1.372345z"/><path d="m161.136 154.595c-14.653-.256-29.135-.524-43.618-.746-3.826-.059-7.659-.07-11.483.063-8.5778.299-17.1624.544-25.7247 1.109-7.2287.477-14.4302 1.368-21.6427 2.087-2.0902.208-4.1728.501-6.2658.672-2.0046.162-3.6423-.729-4.4443-2.488-.905-1.984-.7447-4.041.6653-5.901 1.8916-2.496 4.7258-2.556 7.4105-2.903 4.9814-.645 9.9761-1.191 14.9706-1.728 2.7928-.301 5.5919-.586 8.3957-.732 9.8606-.516 19.7201-1.193 29.5884-1.387 11.314-.223 22.639-.061 33.957.059 5.997.064 11.998.267 17.984.634 7.434.456 14.865 1.034 22.277 1.773 4.975.496 9.921 1.314 14.866 2.08 3.126.485 5.297 4.658 3.92 8.003-.932 2.264-3.406 3.075-6.645 2.55-3.673-.595-7.386-.96-11.089-1.353-4.712-.5-9.428-.98-14.15-1.366-2.926-.239-5.867-.288-8.972-.426z"/><path d="m61.3358 124.88c-4.131.545-8.1013 1.088-12.3093 1.663-.74-3.622-1.4762-7.282-2.2373-10.936-.6952-3.337-1.4439-6.664-2.0889-10.011-.069-.358.3411-1.136.6238-1.187 5.0193-.893 10.0536-1.702 15.0837-2.535.6864-.114 1.3676-.259 2.3108-.44 1.2805 7.526 2.5499 14.986 3.8724 22.759-1.7292.232-3.4118.458-5.2552.687z"/><path d="m204.618 109.623c-1.26 5.679-2.507 11.206-3.817 17.013-1.941-.267-4.032-.556-6.123-.841-3.17-.432-6.335-.898-9.511-1.271-1.251-.147-1.932-.163-1.572-1.937 1.166-5.744 2.117-11.537 2.954-17.34.548-3.802.386-3.772 4.288-3.071 4.349.782 8.718 1.449 13.074 2.188.56.095 1.098.319 1.695.498-.334 1.581-.655 3.096-.988 4.761z"/><path d="m92.4911 42.3204c5.4162 4.4418 3.0819 11.5975-.9241 13.8754-3.0321 1.7241-7.0888 1.292-9.9114-1.0921-2.4021-2.0289-3.1713-6.0518-1.8026-9.4277 1.2794-3.1555 4.5777-5.3433 8.015-4.9611 1.5453.1719 3.0184.9926 4.6231 1.6055z"/><path d="m163.106 57.2337c-5.495.0312-9.047-3.8218-9-8.3242.052-5.0678 4.007-8.3094 8.585-8.248 3.972.0532 7.689 3.5729 7.989 7.3025.403 5.0067-3.092 8.7893-6.766 9.0074-.223.0132-.438.1578-.808.2623z"/><path d="m46.0949 204.204v26.577c0 1.037.3987 1.699 1.1961 1.986.8133.271 1.22.606 1.22 1.005 0 .334-.1674.502-.5023.502h-8.1095c-.3349 0-.5023-.168-.5023-.502 0-.399.3987-.734 1.1961-1.005.7974-.287 1.196-.949 1.196-1.986v-25.62l-13.8027 29.831h-.933l-13.6592-28.706v24.495c0 1.037.3987 1.699 1.1961 1.986.7974.271 1.1961.606 1.1961 1.005 0 .334-.1675.502-.5024.502h-6.07605c-.33491 0-.50236-.168-.50236-.502 0-.399.3987-.734 1.19608-1.005.79743-.287 1.19613-.949 1.19613-1.986v-26.577c0-1.02-.3987-1.674-1.19613-1.961-.79738-.287-1.19608-.638-1.19608-1.053 0-.335.16745-.502.50236-.502h6.36315l13.0851 26.84 12.6784-26.84h6.6742c.3349 0 .5023.167.5023.502 0 .415-.4067.766-1.22 1.053-.7974.287-1.1961.941-1.1961 1.961zm25.0938-4.066c.7974 1.882 1.7781 4.186 2.9423 6.913 1.1802 2.727 2.3922 5.534 3.6361 8.421 1.2599 2.886 2.4719 5.693 3.6361 8.42 1.1801 2.727 2.1769 5.023 2.9902 6.889.2392.59.7097 1.125 1.4114 1.603.3668.239.7256.439 1.0764.598.3668.16.6619.311.8851.455.1595.111.2632.223.311.335.0319.063.0479.127.0479.191 0 .048-.016.104-.0479.167-.0478.096-.1435.144-.287.144h-8.0855c-.1436 0-.2871-.048-.4306-.144-.1595-.111-.2552-.231-.2871-.358-.0319-.048-.0478-.096-.0478-.144 0-.143.0957-.295.287-.454.1436-.144.319-.295.5263-.455.2073-.159.3588-.375.4545-.646.0479-.127.0718-.271.0718-.43 0-.272-.0638-.567-.1914-.886l-3.5404-8.181h-13.9463c-.5741 1.372-1.1482 2.743-1.7223 4.115-.5582 1.355-1.1243 2.711-1.6985 4.066-.1435.319-.2232.606-.2392.862-.0159.111-.0239.223-.0239.335 0 .159.0239.311.0718.454.0478.207.1275.383.2392.526.1116.128.1914.263.2392.407.0159.128.0239.215.0239.263s-.0159.104-.0478.168c-.1117.334-.2871.502-.5263.502h-6.1718c-.1594 0-.2711-.048-.3349-.144 0-.016-.0159-.055-.0478-.119 0-.032.0159-.112.0478-.239.0957-.208.3668-.415.8134-.622.2392-.112.4943-.232.7655-.359.287-.144.5741-.311.8611-.503.5901-.414 1.0207-.917 1.2918-1.507l13.5635-30.643zm4.5212 20.501-6.2436-14.569c-1.0206 2.44-2.0413 4.872-3.0619 7.296-1.0048 2.425-2.0095 4.849-3.0142 7.273zm23.9694-4.211 12.5107-11.841c1.244-1.164 2.297-2.169 3.158-3.014.574-.574 1.148-.861 1.722-.861.287 0 .574.072.861.215l2.536 1.244c.271.16.407.351.407.574 0 .096-.024.2-.072.311l-1.244 3.493-1.65-.694c-.622-.255-1.197-.383-1.723-.383-.829 0-1.555.311-2.177.933l-9.64 9.401 17.989 16.602c.335.335.686.59 1.052.766.383.159.575.358.575.598 0 .334-.16.502-.479.502h-8.109c-.335 0-.503-.168-.503-.502 0-.128.088-.272.264-.431.287-.239.446-.455.478-.646v-.024c0-.207-.287-.558-.861-1.052l-15.0947-13.923v13.085c0 1.037.3987 1.699 1.1957 1.986.798.271 1.196.606 1.196 1.005 0 .334-.159.502-.478.502h-8.1094c-.3349 0-.5024-.168-.5024-.502 0-.399.3987-.734 1.1961-1.005.7974-.287 1.1961-.949 1.1961-1.986v-26.577c0-1.02-.3987-1.674-1.1961-1.961s-1.1961-.638-1.1961-1.053c0-.335.1675-.502.5024-.502h8.1094c.319 0 .478.167.478.502 0 .415-.398.766-1.196 1.053-.797.287-1.1957.941-1.1957 1.961zm35.6197 15.597h10.214c1.483 0 2.735-.566 3.756-1.698 1.036-1.148 1.818-2.041 2.344-2.679.287-.351.51-.527.67-.527.335 0 .502.168.502.503 0 .207-.016.374-.048.502l-1.746 6.148h-21.984c-.287 0-.43-.168-.43-.502 0-.399.398-.734 1.196-1.005.797-.287 1.196-.949 1.196-1.986v-26.577c0-1.036-.399-1.69-1.196-1.961-.798-.287-1.196-.638-1.196-1.053 0-.335.167-.502.502-.502h22.199v6.148c0 .335-.167.502-.502.502-.16 0-.455-.319-.885-.957-.798-1.1-1.491-1.953-2.081-2.559-.575-.606-1.34-.909-2.297-.909h-10.214v12.989h5.478c1.02 0 1.69-.407 2.009-1.22.319-.829.686-1.244 1.1-1.244.319 0 .479.168.479.503v6.076c0 .335-.16.502-.479.502-.414 0-.805-.407-1.172-1.22s-1.06-1.22-2.081-1.22h-5.334zm73.271-27.821v26.577c0 1.037.399 1.699 1.196 1.986.814.271 1.22.606 1.22 1.005 0 .334-.167.502-.502.502h-8.109c-.335 0-.503-.168-.503-.502 0-.399.399-.734 1.196-1.005.798-.287 1.196-.949 1.196-1.986v-25.62l-13.802 29.831h-.933l-13.659-28.706v24.495c0 1.037.398 1.699 1.196 1.986.797.271 1.196.606 1.196 1.005 0 .334-.168.502-.503.502h-6.076c-.335 0-.502-.168-.502-.502 0-.399.399-.734 1.196-1.005.797-.287 1.196-.949 1.196-1.986v-26.577c0-1.02-.399-1.674-1.196-1.961s-1.196-.638-1.196-1.053c0-.335.167-.502.502-.502h6.363l13.085 26.84 12.679-26.84h6.674c.335 0 .502.167.502.502 0 .415-.406.766-1.22 1.053-.797.287-1.196.941-1.196 1.961zm15.478 27.821h10.214c1.483 0 2.735-.566 3.756-1.698 1.036-1.148 1.818-2.041 2.344-2.679.287-.351.51-.527.67-.527.335 0 .502.168.502.503 0 .207-.016.374-.048.502l-1.746 6.148h-21.984c-.287 0-.43-.168-.43-.502 0-.399.398-.734 1.196-1.005.797-.287 1.196-.949 1.196-1.986v-26.577c0-1.036-.399-1.69-1.196-1.961-.798-.287-1.196-.638-1.196-1.053 0-.335.167-.502.502-.502h22.199v6.148c0 .335-.167.502-.502.502-.16 0-.455-.319-.885-.957-.798-1.1-1.491-1.953-2.081-2.559-.575-.606-1.34-.909-2.297-.909h-10.214v12.989h5.478c1.02 0 1.69-.407 2.009-1.22.319-.829.686-1.244 1.1-1.244.319 0 .479.168.479.503v6.076c0 .335-.16.502-.479.502-.414 0-.805-.407-1.172-1.22s-1.06-1.22-2.081-1.22h-5.334z"/><path d="m25.1512 330.054h21.9324c2.9097 0 5.4558-1.218 7.6381-3.655 2.2187-2.437 3.9281-4.383 5.1284-5.838.9457-1.127 1.8368-1.691 2.6734-1.691 1.6731 0 2.5096.746 2.5096 2.237 0 .545-.0545 1-.1636 1.364l-4.201 14.894h-51.22997c-1.56399 0-2.34599-.746-2.34599-2.237 0-1.382.9093-2.382 2.7279-3 1.81856-.655 2.72786-1.928 2.72786-3.82v-60.613c0-1.892-.9093-3.147-2.72786-3.765-1.8186-.655-2.7279-1.691-2.7279-3.11 0-1.491.83656-2.237 2.50967-2.237h51.99379v15.113c0 1.491-.8366 2.237-2.5097 2.237-.9093 0-1.9823-.91-3.2189-2.728-1.7822-2.473-3.2553-4.31-4.4192-5.51-1.1639-1.237-2.6188-1.855-4.3646-1.855h-21.9324v27.442h11.1299c1.6731 0 2.8734-.927 3.6008-2.782.7274-1.892 1.8913-2.837 3.4917-2.837 1.6367 0 2.4551.745 2.4551 2.237v13.857c0 1.492-.8184 2.237-2.4551 2.237-1.564 0-2.7643-.927-3.6008-2.782-.8366-1.855-2.1096-2.783-3.8191-2.783h-10.8025zm67.1064-1.746c0 1.892.9093 3.165 2.7279 3.82 1.8186.618 2.7279 1.618 2.7279 3 0 1.491-.8184 2.237-2.4551 2.237h-18.4952c-1.6731 0-2.5097-.746-2.5097-2.237 0-1.382.8911-2.382 2.6734-3 1.7822-.655 2.6733-1.928 2.6733-3.82l.1091-60.613c0-1.855-.9093-3.11-2.7279-3.765s-2.7279-1.691-2.7279-3.11c0-1.491.8366-2.237 2.5097-2.237h32.1889c3.928 0 8.039.71 12.33 2.128 4.329 1.382 7.693 4.128 10.094 8.238 1.818 3.237 2.728 7.093 2.728 11.567-.073 4.292-1.31 8.165-3.71 11.621-2.11 2.982-5.092 5.201-8.948 6.656-3.855 1.454-7.365 2.182-10.53 2.182h-18.6584zm0-63.014v29.68h11.2934c2.364 0 4.728-.328 7.093-.983 2.4-.691 4.455-1.891 6.165-3.6 2.691-2.583 4.037-6.056 4.037-10.421 0-4.183-1.4-7.656-4.201-10.421-2.946-2.837-6.947-4.255-12.003-4.255zm68.6884 2.401v60.559c0 1.928.909 3.219 2.728 3.874 1.819.618 2.728 1.618 2.728 3 0 1.491-.837 2.237-2.51 2.237h-18.495c-1.637 0-2.455-.746-2.455-2.237 0-1.382.909-2.382 2.728-3 1.818-.655 2.728-1.928 2.728-3.82v-60.613c0-1.892-.91-3.147-2.728-3.765-1.819-.655-2.728-1.691-2.728-3.11 0-1.491.837-2.237 2.51-2.237h18.44c1.673 0 2.51.746 2.51 2.237 0 1.419-.909 2.455-2.728 3.11-1.819.618-2.728 1.873-2.728 3.765zm58.814 71.689c-11.53 0-21.751-3.674-30.662-11.021-8.875-7.347-13.312-17.459-13.312-30.334 0-12.549 4.31-22.624 12.93-30.225 8.657-7.638 19.004-11.458 31.044-11.458 4.292 0 8.856.491 13.694 1.474 4.874.945 9.711 2.946 14.512 6.001l-1.364 12.112c-.291 1.273-1.109 1.909-2.455 1.909h-.218c-1.019-.072-1.892-.818-2.619-2.237-2.255-4.801-5.019-7.983-8.293-9.547-3.273-1.564-7.692-2.346-13.257-2.346-7.711 0-14.604 2.71-20.678 8.129-6.074 5.383-9.111 14.112-9.111 26.188 0 7.711 2.855 15.149 8.566 22.314 5.71 7.129 12.802 10.893 21.277 11.293.873.037 1.691.055 2.455.055 4.401 0 8.02-.655 10.857-1.964 3.201-1.528 5.929-4.71 8.184-9.548.691-1.309 1.546-2.055 2.564-2.237h.382c1.346 0 2.128.655 2.346 1.965l.164 1.527-4.965 13.912c-3.965 1.637-7.802 2.71-11.512 3.219-3.71.546-7.22.819-10.529.819z"/></g></svg>