<svg fill="none" height="949" viewBox="0 0 772 949" width="772" xmlns="http://www.w3.org/2000/svg" xmlns:xlink="http://www.w3.org/1999/xlink"><linearGradient id="a" gradientUnits="userSpaceOnUse" x1="607" x2="413.5" y1="-.000001" y2="509"><stop offset="0" stop-color="#225eae"/><stop offset="1" stop-color="#add3ff" stop-opacity="0"/></linearGradient><linearGradient id="b" gradientUnits="userSpaceOnUse" x1="402" x2="330" y1="230" y2="725.5"><stop offset="0" stop-color="#225eae"/><stop offset="1" stop-color="#2562a8" stop-opacity=".55"/></linearGradient><g clip-rule="evenodd" fill-rule="evenodd"><path d="m962 158.5c0 68.207-43.083 126.352-103.521 148.705-4.07 45.551-31.702 85.759-72.982 112.522 1.649 11.185 2.503 22.629 2.503 34.273 0 128.682-104.318 233-233 233-30.317 0-59.282-5.79-85.85-16.326-27.905 30.193-63.664 48.326-102.65 48.326-89.194 0-161.5-94.916-161.5-212s72.306-212 161.5-212c5.773 0 11.476.398 17.093 1.173 17.7-19.213 38.589-35.443 61.828-47.849 26.816-66.78 75.043-111.324 130.079-111.324 3.698 0 7.365.201 10.996.596 12.594-35.288 34.317-58.596 59.004-58.596 6.353 0 12.51 1.5437 18.366 4.438 26.76-49.6757 79.254-83.438 139.634-83.438 87.537 0 158.5 70.9629 158.5 158.5z" fill="url(#a)"/><path d="m680 718c-34.661 0-67.605-7.47-97.361-20.913-6.788 122.594-108.349 219.913-232.639 219.913-30.317 0-59.282-5.79-85.85-16.326-27.905 30.193-63.664 48.326-102.65 48.326-89.194 0-161.5-94.916-161.5-212s72.306-212 161.5-212c5.773 0 11.476.398 17.093 1.173 17.7-19.213 38.589-35.443 61.828-47.849 26.816-66.78 75.043-111.324 130.079-111.324 6.717 0 13.333.664 19.82 1.95 23.082-36.045 63.579-59.95 109.68-59.95 1.056 0 2.109.013 3.158.037 43.87-48.583 106.858-79.037 176.842-79.037 132.548 0 240 109.243 240 244s-107.452 244-240 244z" fill="url(#b)"/></g></svg>