<svg width="93" height="95" viewBox="0 0 93 95" fill="none" xmlns="http://www.w3.org/2000/svg">
<g clip-path="url(#clip0_20_5509)">
<path fill-rule="evenodd" clip-rule="evenodd" d="M60.6271 0.0275879C62.7825 0.0275879 64.8996 0.912265 66.4259 2.45499L82.3727 18.5732C83.9209 20.1381 84.7742 22.2226 84.7742 24.4344V94.0276H8.18604V0.0275879H60.6271ZM57.4213 5.55699H13.6566V88.4982H79.3036V27.6747H57.4213V5.55694L57.4213 5.55699ZM62.8919 6.70159V22.1453H78.1712L62.8919 6.70159Z" fill="#4D77C1"/>
<path fill-rule="evenodd" clip-rule="evenodd" d="M43.618 33.2052C44.9145 33.2052 46.0579 33.8245 46.9113 35.0575C48.9409 37.9494 48.7987 41.0293 48.0492 45.1763C47.7921 46.603 48.0547 48.0461 48.8369 49.246C49.942 50.9491 51.5339 53.2935 53.0985 55.2786C54.2474 56.7439 56.0144 57.5235 57.8032 57.2803C58.9521 57.1199 60.3361 56.9872 61.7585 56.9872C68.1044 56.9872 67.6284 59.2763 68.2028 61.3775C68.5201 62.6493 68.3615 63.7607 67.7105 64.5846C66.9008 65.696 65.2323 66.2711 62.7924 66.2711C60.0899 66.2711 59.1982 65.8066 56.8459 65.0491C55.5165 64.6177 54.1379 64.5293 52.7921 64.8887C50.1061 65.5965 45.6749 66.6747 41.9768 67.1889C40.0019 67.4654 38.2076 68.4939 37.015 70.1693C34.3289 73.9293 31.8398 77.4405 27.8955 77.4405C26.878 77.4405 25.9425 77.07 25.1712 76.3291C24.0333 75.1789 23.5464 73.9016 23.7871 72.4197C24.4545 67.8691 29.9908 65.3311 33.2841 63.4787C34.0609 63.0419 34.6736 62.3728 35.0565 61.5434L40.281 50.1252C40.653 49.3234 40.7678 48.4332 40.6311 47.554C40.0238 43.6834 39.1266 37.1753 41.5392 34.2337C42.0698 33.5757 42.8029 33.2052 43.618 33.2052ZM44.6137 49.8487C42.5184 56.0472 38.8148 62.7875 38.317 63.5727C42.7865 61.4494 51.6817 60.3767 51.6817 60.3767C47.2067 56.0195 44.6137 49.8487 44.6137 49.8487Z" fill="#4D77C1"/>
</g>
<defs>
<clipPath id="clip0_20_5509">
<rect width="93" height="94" fill="white" transform="translate(0 0.0275879)"/>
</clipPath>
</defs>
</svg>
