<svg width="317" height="37" viewBox="0 0 317 37" fill="none" xmlns="http://www.w3.org/2000/svg">
<path fill-rule="evenodd" clip-rule="evenodd" d="M158.5 2.27672C157.779 2.27672 156.887 3.21514 156.632 5.27761C156.091 9.65904 157.458 15.1313 158.5 18.4747C159.543 15.1313 160.91 9.65904 160.368 5.27761C160.113 3.21514 159.221 2.27672 158.5 2.27672ZM158.5 23.087C158.036 23.087 157.618 22.8048 157.444 22.3733C157.281 21.9675 153.464 12.3597 154.374 4.99697C154.801 1.54494 156.753 0 158.5 0C160.247 0 162.2 1.54494 162.627 4.99697C163.537 12.3597 159.719 21.9675 159.556 22.3733C159.383 22.8048 158.965 23.087 158.5 23.087Z" fill="white"/>
<path fill-rule="evenodd" clip-rule="evenodd" d="M158.5 36.0277C161.03 36.0277 163.094 33.9637 163.094 31.4335C163.094 28.9033 161.03 26.8394 158.5 26.8394C155.97 26.8394 153.906 28.9033 153.906 31.4335C153.906 33.9637 155.97 36.0277 158.5 36.0277Z" fill="white"/>
<path fill-rule="evenodd" clip-rule="evenodd" d="M136.109 10.1584C139.701 9.74953 150.545 12.7203 144.608 18.6572C138.671 24.5942 135.635 13.8292 136.109 10.1584Z" fill="white"/>
<path fill-rule="evenodd" clip-rule="evenodd" d="M151.566 24.5519C151.859 24.8461 151.859 25.3214 151.566 25.6141C151.273 25.9083 150.797 25.9083 150.504 25.6141L144.078 19.1883C143.785 18.8956 143.785 18.4188 144.078 18.1261C144.372 17.8334 144.848 17.8334 145.14 18.1261L151.566 24.5519Z" fill="white"/>
<path fill-rule="evenodd" clip-rule="evenodd" d="M129.125 31.4334C131.376 28.6045 141.143 23.0387 141.143 31.4334C141.143 39.8296 131.383 34.3634 129.125 31.4334Z" fill="white"/>
<path fill-rule="evenodd" clip-rule="evenodd" d="M150.231 30.6821C150.646 30.6821 150.982 31.0186 150.982 31.4335C150.982 31.8484 150.646 32.1849 150.231 32.1849H141.143C140.729 32.1849 140.392 31.8484 140.392 31.4335C140.392 31.0186 140.729 30.6821 141.143 30.6821H150.231Z" fill="white"/>
<path fill-rule="evenodd" clip-rule="evenodd" d="M180.89 10.1584C177.298 9.74953 166.454 12.7203 172.391 18.6572C178.328 24.5942 181.365 13.8292 180.89 10.1584Z" fill="white"/>
<path fill-rule="evenodd" clip-rule="evenodd" d="M166.496 25.6156C166.204 25.9098 165.727 25.9098 165.434 25.6156C165.14 25.3214 165.14 24.8461 165.434 24.5534L171.86 18.1276C172.153 17.8349 172.63 17.8349 172.922 18.1276C173.215 18.4203 173.215 18.8971 172.922 19.1898L166.496 25.6156Z" fill="white"/>
<path fill-rule="evenodd" clip-rule="evenodd" d="M187.875 31.4334C185.624 28.6045 175.857 23.0387 175.857 31.4334C175.857 39.8296 185.617 34.3634 187.875 31.4334Z" fill="white"/>
<path fill-rule="evenodd" clip-rule="evenodd" d="M166.77 32.1849C166.355 32.1849 166.017 31.8484 166.017 31.4335C166.017 31.0186 166.353 30.6821 166.77 30.6821H175.857C176.272 30.6821 176.608 31.0186 176.608 31.4335C176.608 31.8484 176.272 32.1849 175.857 32.1849H166.77Z" fill="white"/>
<path fill-rule="evenodd" clip-rule="evenodd" d="M120.777 28.6332C121.4 28.6332 121.904 29.1386 121.904 29.7602C121.904 30.3834 121.398 30.8872 120.777 30.8872H20.399C19.7759 30.8872 19.272 30.3818 19.272 29.7602C19.272 29.1371 19.7774 28.6332 20.399 28.6332H120.777Z" fill="white"/>
<path fill-rule="evenodd" clip-rule="evenodd" d="M196.223 30.8888C195.6 30.8888 195.096 30.3834 195.096 29.7618C195.096 29.1387 195.602 28.6348 196.223 28.6348H295.825C296.448 28.6348 296.952 29.1402 296.952 29.7618C296.952 30.3849 296.447 30.8888 295.825 30.8888H196.223Z" fill="white"/>
<path fill-rule="evenodd" clip-rule="evenodd" d="M296.6 29.7617C299.32 29.3589 303.87 25.7726 304.874 24.2668C306.707 26.1287 311.014 28.4431 316.666 29.7617C311.014 31.0804 306.707 33.3933 304.874 35.2566C303.872 33.7509 299.32 30.1646 296.6 29.7617Z" fill="white"/>
<path fill-rule="evenodd" clip-rule="evenodd" d="M296.6 32.5575C298.08 32.5575 299.287 31.3505 299.287 29.8689C299.287 28.3888 298.08 27.1803 296.6 27.1803C295.12 27.1803 293.913 28.3873 293.913 29.8689C293.913 31.3505 295.12 32.5575 296.6 32.5575Z" fill="white"/>
<path fill-rule="evenodd" clip-rule="evenodd" d="M20.399 29.7617C17.6787 29.3589 13.1283 25.7726 12.1264 24.2668C10.2933 26.1287 5.98579 28.4431 0.333984 29.7617C5.98579 31.0804 10.2933 33.3933 12.1264 35.2566C13.1283 33.7509 17.6802 30.1646 20.399 29.7617Z" fill="white"/>
<path fill-rule="evenodd" clip-rule="evenodd" d="M20.399 32.5575C21.8791 32.5575 23.0876 31.3505 23.0876 29.8689C23.0876 28.3888 21.8806 27.1803 20.399 27.1803C18.9189 27.1803 17.7119 28.3873 17.7119 29.8689C17.7119 31.3505 18.9189 32.5575 20.399 32.5575Z" fill="white"/>
</svg>
