<svg fill="none" height="188" viewBox="0 0 196 188" width="196" xmlns="http://www.w3.org/2000/svg"><path d="m103.297.108202c-.058.044069-.102 1.380818-.102 2.967298-.015 3.20232-.103 3.68708-1.028 5.2001-.529.88138-.778 1.17517-5.3003 6.2137-5.9167 6.625-10.2038 11.7223-13.1989 15.7031-6.2544 8.329-10.9086 13.6467-18.5578 21.2999-5.0358 5.0385-8.4714 8.1968-12.1271 11.1641-1.0865.8961-2.8924 2.3944-4.0082 3.3492-1.1158.9401-2.2316 1.8215-2.4812 1.9537-.4258.2204-.6313.2204-2.6721-.0147-8.9412-.9988-12.1125-1.4542-15.7389-2.2034-.2936-.0734-.4991-.0294-.6166.1028-.1321.1763.1615.426 1.615 1.3662 2.5693 1.6599 4.8597 2.556 6.5187 2.5706.2496 0 .5579.1029.6607.2498.1174.1322.8515.7491 1.6297 1.3955.7781.6316 1.4535 1.2045 1.4975 1.278.0441.0734-.3083.5729-.8075 1.1164-.4845.5435-.8515 1.0136-.8222 1.0576.0441.0294.5433-.1763 1.1159-.4554.5725-.2937 1.2479-.5288 1.5269-.5288.4991 0 .3817-.0734 5.7993 4.0543 2.1141 1.6159 2.7601 1.895 4.3605 1.8803 1.2626-.0147 2.4518-.3379 5.858-1.6305.9543-.3673 1.7765-.6023 1.8352-.5289 1.8499 2.6295 3.0832 4.686 4.3018 7.1686 2.6867 5.4939 2.9804 9.2984.8515 11.2962-.3964.3673-.9543.7786-1.2332.9255-.4405.2056-1.3801 1.3073-1.2333 1.4396.0293.0146.9396-.5142 2.0408-1.1752 1.1011-.661 2.5252-1.4249 3.1565-1.704l1.1599-.4994 3.6704.0146c6.8711.0294 12.6851.9696 18.69 3.0114 2.1435.7345 5.6965 2.2626 5.8433 2.5116.0587.074-.1028.353-.3523.603-.6901.734-3.2154 3.966-4.6689 5.978-4.9771 6.875-8.8678 13.779-11.4371 20.272-1.3213 3.334-3.6851 6.728-6.9738 9.989-3.553 3.525-7.6786 5.978-11.628 6.889-2.7308.647-6.7096.647-9.8074.015-5.0653-1.028-9.5432-3.57-12.8172-7.271-5.3589-6.053-8.1484-15.322-8.2072-27.206l-.0146-3.349.6019-2.277c1.5563-5.993 3.4943-10.6496 5.9461-14.3367 1.1599-1.748 3.1713-3.9515 4.5661-5.0091.9543-.7051 2.7748-1.66 3.2006-1.66.3377 0 .5579-.4406.5579-1.1457 0-1.1458-.7928-1.2927-2.9657-.5729-10.9673 3.6724-17.5447 15.5562-19.2038 34.6524-.1908 2.071-.0881 3.599.5139 7.844 1.7765 12.384 5.9314 21.888 12.4795 28.484 5.1533 5.2 11.6427 8.387 19.703 9.709 3.0244.485 9.5431.441 12.3767-.102 1.1599-.221 4.9331-1.513 6.504-2.219 7.1501-3.217 13.9624-8.652 20.1435-16.055 1.2773-1.513 3.6704-4.642 4.243-5.553.1468-.22.3817-.397.5139-.397.1321 0 .8955.382 1.7026.838l1.469.852.646 1.263.66 1.263-.675.779c-.896 1.028-1.38 1.939-1.747 3.334-.264.97-.323 1.631-.353 4.158-.029 3.084-.146 3.98-.6602 4.994-.4258.823-.9984 1.293-1.8646 1.557-2.1876.646-2.5253 1.778-1.3507 4.554 1.1892 2.835 1.5709 4.701 1.6737 8.373.0881 3.144.4257 5.259.9102 5.655.1322.118.1909.529.1909 1.234 0 1.19.279 2.307.7047 2.777.294.323.763 1.968.763 2.688 0 .22.059.499.133.617.102.161.176.059.293-.367.22-.838.455-2.365.485-3.261l.044-.779.998.779c1.277 1.013 2.1 2.306 1.865 2.952-.265.779-.176 1.719.22 2.395.308.514.352.734.279 1.336-.059.382-.235.984-.396 1.322-.338.705-.25.955.19.559.632-.573 1.043-1.807 1.689-4.951.763-3.716.793-3.511-1.028-5.332-1.997-1.998-2.276-2.483-2.804-4.774-.191-.852-.22-1.792-.176-5.391l.044-4.378.719-1.763c.808-2.012 1.938-4.26 2.878-5.67l.631-.984.749.22c.984.279 3.568 1.513 4.771 2.277.529.323 1.645 1.117 2.467 1.748 1.453 1.131 1.527 1.161 2.305 1.161.455 0 1.292-.088 1.879-.176.837-.147 1.057-.147 1.116 0 .073.235.808.616 1.175.616.146 0 .396.133.543.294.367.412 1.248.94 1.351.823.146-.132-.265-1.234-.72-1.954-.22-.352-.411-.734-.411-.852 0-.117-.161-.323-.367-.455s-.367-.309-.367-.382c0-.206 1.204-1.88 1.63-2.262.191-.177.587-.353.866-.397.44-.059.587 0 .998.426.367.382.602.5.999.5.455 0 .675.146 1.541.984.925.896 1.013.94 1.013.602 0-.97-.734-2.262-2.143-3.79-.485-.514-.734-.881-.602-.881.117 0 .293-.103.396-.221.162-.191.235-.161.543.294.485.72.779.837 1.88.72.925-.103.983-.088 1.409.323.25.235.617.705.822 1.058.514.866.734.587.338-.441-.47-1.278-1.277-2.321-2.349-3.011-.514-.353-1.072-.794-1.248-.999-.279-.367-.382-.382-1.777-.411l-1.497-.03-.749.705c-.558.529-.837.691-1.013.603-.132-.059-.807-.162-1.483-.221-.675-.073-1.556-.235-1.938-.352-.396-.133-1.116-.294-1.6-.368-1.028-.147-4.977-2.012-5.917-2.791l-.558-.47.69-1.278c.999-1.851 2.423-3.995 3.318-4.965.441-.47 1.102-1.351 1.483-1.968.969-1.572.955-1.807-.352-4.099-3.538-6.243-4.082-8.049-3.92-13.25l.044-1.704 2.305-2.35 2.29-2.35 1.806-.235c3.069-.412 6.284-.97 7.282-1.278l.955-.294 2.745 1.763c3.656 2.335 5.976 3.731 7.414 4.451 1.072.543 1.292.602 2.276.602 1.043 0 1.087.015 1.351.455.147.25.323.691.367.97s.249.676.455.881c.191.206.631.823.969 1.381s.705 1.043.807 1.087c.441.147-.029-2.806-.69-4.26-.249-.543-.455-1.028-.455-1.072s.221-.074.485-.074c.646 0 2.026-.367 2.731-.734l.572-.279.088.44c.044.235.338.691.646.985.411.396.632.793.778 1.322.221.91.47.91.588.014l.073-.646.191.441c.103.235.22.925.264 1.498.044.588.147 1.072.206 1.072.514 0 .587-2.688.132-4.392-.308-1.175-.396-2.438-.147-2.291.088.044.147.279.147.514 0 .646.132.852.793 1.307.646.455.969 1.219.969 2.292 0 .529.191.69.352.279.044-.132.088-.735.088-1.352 0-.925-.103-1.425-.558-2.747l-.558-1.615-1.027-.544c-.558-.308-1.116-.558-1.248-.558-.118 0-.382.161-.573.367-.249.264-.499.367-.881.367-.293 0-1.218.103-2.07.235-1.732.265-4.786.162-5.755-.176-.749-.264-1.615-.955-2.335-1.866-.425-.558-.528-.763-.381-.852.352-.22.939-.132 1.659.25.925.485 3.45 1.014 3.45.72 0-.059-.132-.338-.308-.602-.323-.544-2.819-2.409-3.201-2.409-.132 0 .059-.294.529-.779.411-.411.851-.984.998-1.249.235-.47.264-.484.851-.381.47.073.764.249 1.219.749.426.455.719.646.954.631.632-.058.734 0 1.615.838.837.793.867.808.867.426 0-.529-.749-1.969-1.513-2.909-.352-.441-.69-.955-.734-1.146-.058-.205-.323-.719-.616-1.145-.279-.441-.514-.823-.514-.867 0-.03.147-.044.323-.015.191.03.44.279.631.617.396.72.881.984 1.556.882.749-.103 1.366.426 1.703 1.498.133.441.294.793.367.793.191 0 .133-1.219-.102-2.012-.147-.5-.485-1.029-.999-1.602-.411-.484-1.013-1.219-1.321-1.63-.631-.867-.91-.984-2.775-1.131-1.057-.088-1.13-.074-1.395.25-.249.323-.352.352-1.101.279-.749-.059-.895-.015-1.292.308-.235.206-.587.426-.763.47-.191.059-.661.441-1.072.867-.954.984-2.144 1.572-3.333 1.66l-.925.073-1.057-1.381c-.572-.749-1.248-1.557-1.483-1.777-.396-.382-.411-.441-.264-1.028.088-.368.485-1.029.91-1.572 1.63-2.0419 2.335-3.6871 2.628-6.0669.118-.9107.279-1.9537.353-2.3062.088-.3673.161-.9695.161-1.3368 0-.5582.132-.896.778-1.9096 3.524-5.6261 8.384-9.9155 12.362-10.9291 1.88-.47 3.979-.2056 5.785.7345 2.349 1.234 4.669 4.1719 3.964 5.0092-.161.1909-.396.2056-1.409.1322l-1.219-.1029v.3967c0 .2203.308 1.1604.675 2.1006.691 1.7333 1.322 3.9515 1.175 4.0984-.117.1175-1.086-.5142-1.336-.8814l-.22-.3085v.3526c.014.5435.484 1.513 1.101 2.1887.602.661.646.7932 1.042 3.7165.191 1.322.265 2.8644.265 5.773l.014 3.966-.47 1.014c-.264.543-.484 1.087-.484 1.19 0 .117.264.235.631.293.793.133 1.351.426 2.144 1.117.954.852 1.336.793 2.011-.309.294-.484.602-.881.676-.881.073 0 .102-.132.044-.294-.074-.22 0-.308.308-.382l.396-.103-.337-.249c-.25-.191-.309-.338-.25-.617.103-.382.455-.559 1.101-.559.455 0 .411-.146-.22-.675-.44-.382-.514-.514-.426-.838.088-.367.162-.396.793-.396h.69l-.47-.382c-.734-.558-.646-1.249.176-1.44l.441-.117-.338-.25c-.264-.191-.323-.338-.249-.632.146-.587.469-.617.646-.073.367 1.131 1.057 4.26 1.218 5.465.176 1.468.382 1.865.72 1.454.44-.529.293-3.129-.397-6.963l-.088-.514.896.044c.734.044.925.117 1.057.367.176.323.132.382-.852 1.102-.587.426-.308.617.852.617.895 0 1.027.029.983.25-.029.146-.264.396-.513.572-.529.353-.485.5.102.5.72 0 1.322.176 1.322.396 0 .118-.162.368-.367.559l-.353.367h.602c.514 0 .588.029.514.294-.059.22 0 .293.22.293.162 0 .588.294.955.662.352.367.778.661.925.661.352 0 1.482-1.44 2.07-2.645.704-1.41.895-4.1714.381-5.4347-.073-.2057-.19-1.1458-.249-2.1006-.074-1.0283-.191-1.8068-.294-1.939-.161-.191-.132-.2938.191-.6317.543-.5729.69-1.0723.793-2.6588.059-1.1458.205-1.8068.793-3.5402.396-1.1752.763-2.556.807-3.0848.103-1.0576-.073-1.087-.381-.0734-.235.7785-.735 1.6599-.984 1.748-.118.0588-.367-.2644-.69-.9107-.822-1.66-1.175-3.0114-1.645-6.3459-.411-2.9379-1.174-5.4058-2.261-7.3154-.425-.7198-.851-.9402-.66-.3232.147.4407.117 3.5402-.03 3.6871-.088.0881-.308-.0882-.587-.4848-.558-.7932-2.584-2.7763-3.935-3.878-1.659-1.3368-4.727-3.4962-6.298-4.3922-.808-.4701-2.114-1.2633-2.922-1.7775-1.718-1.087-2.217-1.2779-4.654-1.6746-1.013-.1616-2.349-.4113-2.966-.5435-.954-.1909-1.336-.2056-2.466-.0587-1.468.1909-4.082.8226-5.976 1.4689-.675.2204-1.204.3379-1.174.2497.044-.0881.69-1.1164 1.453-2.2915.764-1.1752 1.777-2.7617 2.261-3.5402l.867-1.4102 1.086-.1028c.602-.0441 1.556-.0882 2.129-.0882 1.072 0 1.351-.1028 2.143-.8079.279-.2497.617-.3526 1.469-.4113.602-.0588 1.497-.2351 1.982-.3966.484-.1616 3.332-1.0283 6.313-1.9244 8.691-2.5853 8.941-2.6882 10.497-4.0984l.514-.4553-.807.0587c-.441.0441-1.821.4113-3.069.8373-2.437.8226-2.804.8373-3.083.1029-.073-.191-.264-2.0566-.44-4.1572-.485-6.0815-.5-6.8747-.235-8.2849.352-1.939.425-2.6001.249-2.7029-.073-.0441-.382.235-.69.617-.558.7344-2.364 2.3503-3.465 3.0848-.807.5582-5.168 4.8916-7.546 7.521-2.452 2.7029-7.635 7.4917-9.338 8.6228l-.558.3673-2.613-.1323c-1.439-.0881-2.731-.1909-2.863-.2644-.235-.0881-.264 0-.264.852v.9549l-.764.6757c-.411.3672-1.218.8813-1.791 1.1458-2.422 1.1311-5.065 2.4825-5.946 3.0554-1.6 1.043-7.473 3.878-11.819 5.7289-.807.3379-1.967.7198-2.569.8226-2.702.5142-3.406.8227-4.654 1.9978l-.455.426-2.482-.1175-2.4809-.1175 1.7619-1.4102c2.334-1.8656 4.992-3.8193 5.77-4.26.411-.2203.91-.7198 1.38-1.3514.851-1.1899 1.527-1.5571 3.582-2.0125 1.101-.235 1.366-.3525 1.689-.7345.411-.4847.66-.5876 3.509-1.3367 1.923-.5142 4.022-.8961 4.331-.7786.249.1029.749-.1469 1.321-.6757.25-.2203 1.16-.7785 2.056-1.2486 1.849-.9548 7.605-4.4069 9.513-5.6849 1.307-.8813 2.217-1.8509 3.054-3.2757.705-1.2193.676-1.2193-1.585-.1176l-1.733.8373h-1.835c-1.997.0147-2.936-.1909-4.669-.9548-3.494-1.5571-6.915-5.2442-9.338-10.077-.822-1.6453-5.828-12.8387-7.473-16.7168-2.466-5.817-3.362-8.4318-4.507-13.0443-1.351-5.49389-2.099-7.35947-2.687-6.757198zm59.77 95.555698c.279.2791.205.661-.147.7491-.411.1175-.426.0882-.323-.4553.103-.5142.191-.5729.47-.2938zm.499 1.4983c.191.2791.132.3966-.323.5729-.587.2203-.558.3525.132.5435.793.2057.896.661.264 1.2046-.264.2203-.543.3966-.631.4113-.176 0-.719-2.5413-.602-2.8498.074-.1763.22-.2057.573-.1322.264.044.528.1616.587.2497z" fill="#00164e"/></svg>