<svg fill="none" height="170" viewBox="0 0 196 170" width="196" xmlns="http://www.w3.org/2000/svg" xmlns:xlink="http://www.w3.org/1999/xlink"><clipPath id="a"><path d="m0 .820557h196v168.359h-196z"/></clipPath><g clip-path="url(#a)"><path d="m173.797 1.03455c-4.517.94807-24.362 7.76806-28.404 9.75595-.735.367-1.302.8716-1.302 1.1469 0 .107-.092.1988-.214.1988-.291 0-.475.3211-1.93 3.3641-2.756 5.7954-4.838 9.2972-8.008 13.5482-2.68 3.5935-2.94 3.9911-3.859 5.7649l-.796 1.4985-.429-.5657c-.245-.3212-.781-.7187-1.286-.9634-.796-.367-1.011-.3976-3.001-.3976-1.976 0-2.251.0306-3.446.4435-.719.2446-1.225.474-1.148.4893.092.0306.919.1529 1.853.2905 2.894.3976 3.889.8411 4.134 1.8197.077.3059-.015.5199-.383.9328-.536.627-.551.6422-.183 1.6821.214.6269.367.8257.872 1.0704.353.1835.582.4128.552.5505-.016.1223.291.5963.673 1.0551 1.486 1.7279 3.139 6.1624 4.594 12.3861 1.087 4.5874 1.087 4.4651.505 7.034-.658 3.043-1.653 5.3062-2.756 6.3613-.689.6269-1.118.8716-2.434 1.3609l-1.608.5811-4.364.1223c-2.404.0612-4.87.1835-5.482.2906-.689.107-2.006.5352-3.461 1.1315l-2.343.9634-.735-.3823c-1.117-.5505-3.537-1.1316-4.394-1.0398-.613.0611-.797.0153-1.302-.3517-1.868-1.361-5.1296-5.7037-7.5183-10.0006-.5054-.9175-1.026-1.7738-1.1485-1.9115-.1378-.1376-.2909-.4587-.3369-.6881-.0765-.2905-.1684-.3823-.2756-.2752-.199.1988-1.47-1.1622-1.4853-1.5903 0-.1682.2756-.7493.5972-1.2998.3369-.5505.5819-1.0245.5512-1.0398-.0306-.0306-.5665.214-1.2096.5505l-1.1485.5963-.3981-.4128c-.2144-.2141-.3828-.4588-.3828-.52 0-.0764.3522-.5963.7656-1.1621.4288-.5658.7656-1.0857.7656-1.1469 0-.0458-.5818.1988-1.2862.5811-1.1791.627-1.3016.6575-1.5313.4435-.2297-.2294-.1684-.3365.781-1.2845.5665-.5658.9953-1.0704.9493-1.1163-.0918-.0765-1.8681.4893-2.649.8563-.4135.1988-.4594.1835-.7963-.2446l-.3522-.4435.3216-.3517c.3675-.3976.3675-.3976-.3062-.2141-.2604.0765-.49.1071-.49.0612 0-.0306.245-.3517.5359-.7034.2909-.3364.5053-.6423.4747-.6728-.0306-.0306-.4288.0764-.8728.2599-.9953.367-.9953.367-1.1178.0612-.0613-.1529.0765-.4129.3981-.7034.5819-.5505.3981-.7034-.4288-.3517-.3062.1223-.5972.1988-.6278.1682-.0459-.0306.1838-.3976.49-.7952.3216-.4129.5053-.7646.4288-.7798-.0766-.0306-.536.0764-1.0107.2446l-.8728.3058-.2297-.3364c-.2143-.3058-.199-.3517.245-.8104.4594-.474.4594-.4893.1532-.5964-.1685-.0459-.5513-.0459-.8575.0153-.291.0459-.536.0612-.536.0153s.3522-.3364.7963-.6422c.6584-.4741.8422-.5505 1.0719-.3976.4746.2905.3368-.1835-.1991-.6575-.2603-.2294-.4441-.4435-.4134-.4741.0306-.0306.4287-.0764.8728-.0917.7809-.0459.8422-.0153 1.2709.5199.3981.5046.5359.5658 1.1484.5658.3675 0 .8116.0764.9954.1682.4287.2293.4746.0917.1071-.367-.2143-.2753-.4593-.4129-.7503-.4129-.3522 0-.5359-.1376-.9034-.6728-.4747-.6728-1.0719-1.0093-1.8375-1.0093-.245 0-.6584-.2293-1.0872-.6269-.3828-.3364-.9494-.7493-1.2556-.9175-.3216-.1682-.5819-.367-.5819-.474 0-.0918-.1072-.2447-.2297-.3364-.1378-.0918-.2603-.4435-.2909-.7799-.046-.5199-.1072-.6117-.4135-.627-.199-.0152-.7043-.107-1.1025-.214l-.735-.1988.3369-.3517c.3216-.3517.3216-.367.046-.367-.1532 0-.5207.1376-.7963.3058-.6125.367-1.2862.4129-1.1637.0765.1378-.3365-.3522-.2906-.8116.0764-.4594.3517-.7044.3823-1.1638.1223-.1837-.107-.5359-.2599-.7656-.3517-.5512-.1987-3.6137-3.5476-3.7209-4.0522-.1991-1.0245-.3675-1.1469-1.6691-1.2386-.6737-.0612-1.6384-.2141-2.1437-.3517-1.5007-.3823-1.761-.3364-2.5725.4893-.781.7952-.9647 1.3457-.3828 1.208.1837-.0458.444-.0305.5971.0459.2297.1224.245.2294.1225.6881-.0918.3059-.1378.8717-.1071 1.2692l.0459.7187.4594-.8257.4593-.841.0766.841.0766.8257.2756-.5046c.4134-.7493.8116-.6575.7197.1682-.0153.1988.0612.2753.2603.26.7809-.0918.8575-.0306.7656.5963-.1072.8258.0766 1.0551.4288.5352.2603-.3975.2756-.4128.4747-.1376.1225.1682.1837.4129.1225.5658-.0919.3058.0918.367.3675.0917.2296-.2293.6431.1071.6431.52 0 .2293.0765.2752.2909.1987.3828-.1223.536.1377.3216.5505-.2144.3976-.0919.5505.2297.2906.199-.1529.2297-.1376.2297.1376s.0918.3211.7043.3211c.3982 0 .6585.0612.5972.1529-.0459.0765-.0459.3212.0153.5352.0766.3212.1838.3823.6738.3823.6584 0 .7503.1376.6431.9634-.0612.5199-.1072.5811-.3981.4893-.5053-.1682-1.6385-.1835-2.2816-.0306-.4287.1071-.7044.3212-1.1178.8869-.9034 1.2234-1.0106 1.2692-2.0366.6729-1.2096-.7187-2.695-1.1928-3.2921-1.0552-.2604.0459-1.0107.367-1.6538.6882-1.3475.6728-1.4394.6881-1.8375.3364-.3216-.2906-.3675-.0918-.0612.2905.1071.1529.3981.2906.6431.3058.6431.0612 2.1897-.1682 2.9247-.4281.6125-.2294.6584-.2141 1.5618.2446.6738.3365.9341.5505.9341.7646 0 .3823-.4594.4129-.4747.0306 0-.1988-.0459-.1835-.1684.0765-.2144.4281-.4288.4587-.4288.0458 0-.4281-.2603-.3823-.3675.0765-.0612.2447-.1684.3364-.3215.2905-.1225-.0611-.2297-.0153-.2297.0918 0 .1529-.0613.1376-.245-.0153-.1991-.1529-.2603-.1529-.3828.0306s-.1532.1835-.2757 0c-.1071-.1682-.1531-.1377-.245.1529-.1071.3364-.1225.3364-.3368.0459-.1225-.1682-.1685-.4435-.1225-.6423.1225-.474-.1532-.3058-.5513.3364l-.2909.4741v-.6117l-.0153-.6117-.3369.3976c-.1838.2141-.4594.4435-.5972.4894-.1531.0458-.3062.2905-.3675.5199-.0459.2293-.3216.6269-.5972.8869-.2909.2446-.5512.6269-.6125.8257-.1072.3517-.0919.3517.5513.2294.3675-.0765 1.2556-.1071 1.9753-.0765 1.179.0306 1.424-.0153 2.5265-.474 1.225-.5046 1.2404-.5046 3.5985-.4893 1.3322.0152 2.6797.107 3.0625.214.3828.1071 1.2862.2294 2.0212.2906l1.3322.0917.8116.7952c.4594.4434.9034.8104.9953.8104.1072 0 .3675.2447.5972.5352.2144.2906.4747.5352.5819.5352.3215.0153 1.1178.8411 1.4546 1.4833.1838.367.3829.6575.4594.6575.0766 0 .3063.4129.5206.9175.2297.5046.49.9175.5972.9175.1225 0 .3369.2447.5053.5505.1532.3058.4441.6728.6279.8104.1837.153.3981.52.444.8411.0613.3058.2297.6422.3828.7493.1378.0917.4135.5505.6125.9786.1838.4435.4288.8105.536.8105s.3981.5046.6278 1.1009c.3522.8717.5206 1.1316.7962 1.1622.1838.0306.3369.1376.3369.2294 0 .107.2144.4587.4594.7798.3675.4894.4594.7646.4594 1.3763 0 1.1162.4746 2.9053 1.5159 5.8107 1.3781 3.8076 1.7456 5.4438 1.7456 7.5846 0 1.6668-.0153 1.8044-.4287 2.4466-1.0107 1.5903-2.2203 4.8933-2.2203 6.0249 0 .3669-.1838.7034-.6891 1.2997-.3828.4588-.8116 1.0246-.9341 1.2539-.1684.3364-.3368.4435-.6737.4435-.3522 0-.6891.2141-1.3781.841-.5054.4588-1.0566.841-1.225.841-.1838 0-.5054.1377-.7504.3212-.2603.1835-.8421.367-1.5618.4587-.7197.107-1.2097.2447-1.3169.4129-.2909.367-.2603 2.5536.0459 2.9971.3063.4893.1838.5505-1.4547.6575-1.6078.1071-3.0931-.0917-6.2934-.8257-2.8022-.6422-3.3687-.9022-9.0344-4.1746-2.1437-1.2539-4.9765-2.8595-6.2781-3.5629-1.3016-.7187-2.7103-1.575-3.1391-1.8961-.4134-.3211-.8575-.5811-.9953-.5811-.1531 0-.245-.1835-.2756-.5046-.0459-.3823-.1991-.6117-.6891-.9634-.7043-.5046-1.3628-.5505-2.3581-.1223-.444.1835-.5665.1682-1.2709-.1682-1.0106-.4741-1.4241-.9634-1.8375-2.2173-.3675-1.101-.5206-1.1315-.98-.1682-.3522.7493-.3063 1.2692.2144 2.3549.2603.5352.4593 1.0092.4593 1.0398s-.199.0612-.444.0612-2.6032.2752-5.2522.5963c-2.6338.3365-7.5491.887-10.9178 1.2234-6.171.6116-7.7328.841-7.7328 1.101 0 .0764-.1991.1376-.4441.1376-.2297 0-.5972.1223-.7963.2905-.199.1529-.5665.3823-.8268.5199-1.225.6423-13.16878 11.6368-16.2466 14.9551-1.17906 1.269-1.28625 1.453-2.02125 3.303-.93406 2.309-1.2862473 3.746-1.2249973 4.908.06125 1.117.3675003 1.209.4900003.153.06125-.443.153125-.887.214375-.994.168437-.26 3.828122-.963 5.007192-.963 2.31218 0 3.90468.275 6.20158 1.101 2.0059.719 2.3581.902 3.7056 1.912 2.0825 1.59 4.0578 3.715 6.0025 6.468.9188 1.3 1.8528 2.615 2.0825 2.905.2297.291.5359.918.6891 1.376.2909.872.6737 1.591.7962 1.468.046-.03-.0306-.596-.1684-1.254-.1378-.642-.2144-1.208-.1838-1.238.0307-.031 1.5313-.306 3.3228-.596 8.085-1.316 8.085-1.331 12.25-1.392 3.9047-.076 3.9354-.076 6.5079.413 2.4193.459 2.7715.566 5.344 1.697l2.7563 1.224 2.9093 2.507c1.8529 1.591 3.0472 2.737 3.3075 3.166.4441.749 1.5313 1.651 2.006 1.651.245 0 .1378-.153-.4747-.703-1.4547-1.3-1.4547-1.224.1531-3.869.7503-1.269 1.5619-2.523 1.7916-2.798.2297-.26 1.3781-1.315 2.5572-2.325 1.9906-1.697 2.2968-1.911 4.4406-2.936l2.3122-1.101 2.3581-.107 2.3734-.107 2.5266.872c2.0059.673 7.3194 2.982 8.2075 3.563.1072.061.5666.795 1.0413 1.636.4746.841.8575 1.437.8575 1.315 0-.107-.245-.933-.5666-1.835l-.5513-1.636 1.026-3.043c.5665-1.667 1.3169-3.655 1.6537-4.419.7503-1.713 1.1638-2.89 2.0519-5.826.9341-3.043 2.0825-5.291 3.8128-7.4473.735-.9175 1.3933-1.6515 1.4543-1.6515.077 0 .353.26.613.5964.26.3211.811.8257 1.194 1.101.398.2905 1.256.9784 1.93 1.5594 1.776 1.529 3.751 2.37 8.513 3.64l1.914.52-.934.168c-.52.092-1.163.321-1.424.504-.275.199-.842.49-1.286.643-1.761.642-3.751 2.4-4.532 3.991-.261.535-.582 1.483-.705 2.11-.122.627-.337 1.529-.474 2.018-.307 1.056-.215 1.713.398 2.554.582.78 2.067 1.896 3.353 2.508l.965.459 3.169-.138c4.319-.183 9.862-.122 10.306.107 1.102.581 4.211 3.823 5.42 5.643.353.55 1.241 1.651 1.96 2.462 2.037 2.309 4.319 3.471 5.773 2.966.567-.214.597-.199 1.225.321.766.627 1.302.673 2.45.153.796-.352 1.715-1.315 2.266-2.355.245-.459.414-3.318.2-3.456-.092-.046-.123-.351-.077-.672.077-.597-.184-1.331-.597-1.667-.153-.138-.199-.016-.199.642 0 .443-.062.872-.123.948-.076.061-.367-.153-.674-.489-.995-1.132-1.776-1.912-1.837-1.851-.046.031.046.276.168.536.322.611.322 1.055-.015 1.024-.245-.015-.276.123-.23 1.101.031.612-.015 1.101-.091 1.101-.092 0-.735-.168-1.47-.382-.72-.214-1.685-.428-2.144-.474-.888-.107-1.731-.52-1.884-.902-.107-.291.582-.948 1.103-1.086.214-.046.597-.015.857.076.613.215.735.107.353-.305-.353-.383-1.026-.75-1.379-.75-.153 0-.444-.168-.658-.367-.413-.397-1.393-.535-2.098-.321-.275.092-.52-.153-1.638-1.636-1.577-2.095-4.395-6.361-4.395-6.636 0-.123.291-.352.658-.536 1.088-.55 3.002-2.248 3.4-3.027.52-.979.75-1.239 1.102-1.239.414 0 6.294 4.878 7.764 6.438 2.006 2.125 6.676 8.058 10.213 12.982 1.884 2.615 4.456 7.294 7.626 13.915 1.072 2.233 2.312 4.603 2.756 5.276 1.639 2.431 4.609 5.123 15.328 13.915 2.909 2.386 6.11 5.062 7.12 5.949 1.011.886 1.914 1.62 2.006 1.62.107 0 .291-.183.444-.397.215-.321.215-.428.046-.627-.107-.138-3.476-3.395-7.472-7.233-9.555-9.175-10.719-10.429-12.909-13.885-1.577-2.507-1.715-2.874-2.419-6.269-.567-2.798-.72-3.318-1.623-5.352-.536-1.239-1.547-3.594-2.221-5.23-.673-1.636-1.592-3.685-2.051-4.541-.46-.857-.827-1.698-.827-1.866 0-.183-.077-.275-.184-.245-.107.046-.306-.107-.444-.336-.138-.245-.643-1.101-1.133-1.927l-.888-1.498.291-.535c.275-.505.275-.551.015-1.01l-.26-.458.826.091c.812.107.843.092 1.057-.321.122-.229.26-.642.306-.917.077-.398.031-.52-.291-.734-.199-.138-.352-.352-.337-.49.062-.305-2.251-1.254-4.195-1.743-1.577-.382-1.884-.703-1.608-1.621.184-.611.061-.795-.322-.443-.275.244-.352.183-1.47-1.162-.704-.872-1.163-1.56-1.163-1.774s-.062-.321-.169-.26c-.214.138-.903-.52-.903-.872 0-.153-.092-.275-.199-.275-.291 0-1.945-1.728-1.945-2.034 0-.168-.077-.229-.168-.168-.092.046-.628-.352-1.195-.917l-1.026-1.025.138-.826c.092-.458.107-.887.061-.948-.061-.061-.337.123-.612.383l-.505.489-.965-.856c-.934-.857-.965-.903-.904-1.5449.031-.3517.016-.6575-.046-.6575-.045 0-.245.1682-.444.3822-.199.2141-.428.3823-.49.3823-.076 0-.765-.6269-1.516-1.3915-1.301-1.3303-1.669-1.942-1.669-2.783 0-.367-.26-.3365-.382.0458-.092.3059-.123.2906-.644-.1682-.306-.2599-1.332-.841-2.281-1.2845-1.439-.6881-1.746-.8869-1.838-1.2233-.091-.3517-.122-.3823-.321-.1835s-.383.1529-1.547-.367c-.735-.3211-1.408-.5963-1.516-.5963-.199 0-2.618-1.7891-3.353-2.4772-.276-.26-.536-.6576-.582-.9175-.077-.3823-.138-.4282-.306-.2906-.261.2294-.613.0765-1.133-.4893l-.353-.3823.735-.0611c.429-.0459.858 0 1.042.107.168.107.566.2599.873.367.627.2141 1.194.0306 1.194-.3823 0-.1223-.061-.1988-.138-.1529-.184.1223-.72-.3211-.582-.4741.261-.2599 5.911-.2446 8.223.0306 5.084.5811 12.817 2.2938 19.34 4.2816l1.332.3976 1.087 1.6056c.613.8716 1.149 1.5598 1.194 1.5139.046-.0459-.275-.7493-.689-1.5598l-.765-1.4832 1.194-3.0736c1.562-3.9452 2.205-5.2756 4.257-8.8691l1.7-2.9665 2.664-2.5843 2.664-2.5842 3.17-1.6668c1.746-.9175 3.354-1.7432 3.583-1.8502.23-.0918 2.297-.7035 4.625-1.3304l4.211-1.1622 3.2-.1529c1.761-.0764 3.905-.1529 4.762-.1529h1.562l.766 1.1622c.428.6422.826 1.3303.872 1.5291s.154.3211.23.2753c.414-.2447-.168-1.9421-1.041-3.0125-.475-.5657-1.149-1.9114-2.42-4.7709l-1.76-3.9758-.506-2.7983-.52-2.7831.352-2.6301c.643-4.7098 2.281-9.2054 4.655-12.7378.995-1.4527 3.353-4.5721 3.522-4.6333.092-.0306.719.2906 1.408.7034.705.4129 1.424.8411 1.624.9328l.352.1835-.261-.3976c-.153-.2294-.796-.7646-1.424-1.1774-1.715-1.1469-6.492-5.979-8.345-8.4562-1.179-1.5597-1.776-2.5843-2.863-4.7709l-1.379-2.7984-.245-2.4007c-.229-2.2479-.229-2.569.016-4.63334.291-2.41605.199-2.21727 2.021-5.06148l.643-.99394 1.195.12233c.673.06117 1.393.15291 1.638.1835.23.04587.413.03058.413-.04588 0-.30583-.52-.50462-2.235-.87161-1.669-.366995-2.19-.412869-6.033-.458744-3.139-.030583-4.472 0-5.207.152914zm-90.0371 42.92315c.2144.3823.2297.3823-.5666.5046-.5971.0917-.6278.0765-.5359-.26.1531-.6269.8269-.7798 1.1025-.2446zm-10.6575.6728c.3216.4893.3369.7952.0153.5352-.1837-.1529-.245-.1376-.3215.0612-.1072.2905-.6432.1835-.9188-.1835-.1378-.1988-.1837-.1988-.2603.0306-.0613.1376-.1838.2446-.2909.2446-.3216-.0153.9187-1.0704 1.2403-1.0704.1531 0 .3981.1682.5359.3823zm8.7741 49.3455c-.046.1071-.0766.0306-.0766-.1835 0-.214.0306-.2905.0766-.1987.0306.107.0306.2905 0 .3822zm41.4965 20.475c-.137.092-.765.184-1.378.23-1.056.076-1.087.061-.643-.153.536-.26 2.465-.337 2.021-.077z" fill="#00164e"/></g></svg>