<svg fill="none" height="40" viewBox="0 0 572 40" width="572" xmlns="http://www.w3.org/2000/svg"><g fill="#ffd703"><path clip-rule="evenodd" d="m266.943 18.0566 17.352-17.352512c.939-.938784 2.474-.938784 3.413 0l17.352 17.352512c.939.9388.939 2.4735 0 3.4123l-17.352 17.3525c-.939.9388-2.474.9388-3.413 0l-17.352-17.3525c-.939-.9388-.939-2.4735 0-3.4123z" fill-rule="evenodd"/><path clip-rule="evenodd" d="m320.722 22.8654c-1.124 0-2.033-.9116-2.033-2.0327 0-1.1238.912-2.0327 2.033-2.0327h244.911c1.124 0 2.035.9116 2.035 2.0327 0 1.1238-.911 2.0327-2.035 2.0327z" fill-rule="evenodd"/><path d="m320.722 26.5086c3.135 0 5.676-2.5413 5.676-5.6762s-2.541-5.6763-5.676-5.6763-5.676 2.5414-5.676 5.6763 2.541 5.6762 5.676 5.6762z"/><path clip-rule="evenodd" d="m565.634 26.506c3.127 0 5.674-2.5497 5.674-5.6763 0-3.1265-2.55-5.6735-5.674-5.6735-3.126 0-5.676 2.5497-5.676 5.6735 0 3.1266 2.55 5.6763 5.676 5.6763z" fill-rule="evenodd"/><path clip-rule="evenodd" d="m6.36806 22.8654c-1.12382 0-2.03261-.9116-2.03261-2.0327 0-1.1238.91151-2.0327 2.03261-2.0327h244.91094c1.124 0 2.033.9116 2.033 2.0327 0 1.1238-.912 2.0327-2.033 2.0327z" fill-rule="evenodd"/><path d="m6.36862 26.5086c3.1349 0 5.67628-2.5413 5.67628-5.6762s-2.54138-5.6763-5.67628-5.6763-5.676237 2.5414-5.676237 5.6763 2.541337 5.6762 5.676237 5.6762z"/><path clip-rule="evenodd" d="m251.279 26.506c3.127 0 5.677-2.5497 5.677-5.6763 0-3.1265-2.55-5.6735-5.677-5.6735-3.126 0-5.676 2.5497-5.676 5.6735 0 3.1266 2.55 5.6763 5.676 5.6763z" fill-rule="evenodd"/></g></svg>